<svg xmlns="http://www.w3.org/2000/svg" width="45" height="29" viewBox="1358 877 45 29"><g data-name="Group 343"><path d="M1375.397 888.504c.59-5.336 4.15-9.6 5.103-11.504.952 1.904 4.512 6.168 5.103 11.504" stroke-linejoin="round" stroke-linecap="round" stroke-width="2" stroke="#101c1d" fill="transparent" data-name="Path 5515"/><path d="M1375.397 888.456c-.054.487-.093.98-.093 1.485 0 1.688.408 3.287.995 4.714" stroke-linejoin="round" stroke-linecap="round" stroke-width="2" stroke="#101c1d" fill="transparent" data-name="Path 5516"/><path d="M1368.018 895.551c-3.165-4.138-3.303-9.339-5.183-10.28 5.705-.95 8.81-.205 12.561 3.192" stroke-linejoin="round" stroke-linecap="round" stroke-width="2" stroke="#101c1d" fill="transparent" data-name="Path 5517"/><path d="M1385.603 888.463c3.75-3.397 6.857-4.142 12.562-3.191-1.88.94-2.019 6.14-5.184 10.28" stroke-linejoin="round" stroke-linecap="round" stroke-width="2" stroke="#101c1d" fill="transparent" data-name="Path 5518"/><path d="M1368.019 895.497c-5.529.13-12.182 5.307-9.34 5.307 5.195 0 4.156 5.196 12.469 5.196 8.313 0 9.352-5.196 9.352-5.196" stroke-linejoin="round" stroke-linecap="round" stroke-width="2" stroke="#101c1d" fill="transparent" data-name="Path 5519"/><path d="M1368.019 895.529a7.762 7.762 0 0 1 1.57.112c1.89.343 2.07.31 3.637 1.039" stroke-linejoin="round" stroke-linecap="round" stroke-width="2" stroke="#101c1d" fill="transparent" data-name="Path 5520"/><path d="M1385.603 888.456c.054.487.092.98.092 1.485 0 1.688-.408 3.287-.995 4.714" stroke-linejoin="round" stroke-linecap="round" stroke-width="2" stroke="#101c1d" fill="transparent" data-name="Path 5521"/><path d="M1392.981 895.529a7.762 7.762 0 0 0-1.57.112c-1.89.343-2.071.31-3.637 1.039" stroke-linejoin="round" stroke-linecap="round" stroke-width="2" stroke="#101c1d" fill="transparent" data-name="Path 5522"/><path d="M1392.981 895.497c5.528.13 12.182 5.307 9.34 5.307-5.195 0-4.156 5.196-12.469 5.196-8.313 0-9.352-5.196-9.352-5.196" stroke-linejoin="round" stroke-linecap="round" stroke-width="2" stroke="#101c1d" fill="transparent" data-name="Path 5523"/></g></svg>