<svg xmlns="http://www.w3.org/2000/svg" width="36" height="45" viewBox="1726 693 36 45"><g data-name="Group 341"><path d="M1729.615 716.303s1.206 19.286 14.465 21.697" stroke-linejoin="round" stroke-linecap="round" stroke-width="2" stroke="#222" fill="transparent" data-name="Path 5507"/><path d="M1729.615 716.055s15.542-9.592 25.185-9.592" stroke-linejoin="round" stroke-linecap="round" stroke-width="2" stroke="#222" fill="transparent" data-name="Path 5508"/><path d="M1729.616 715.902s-3.616-3.616-3.616-9.643c0-6.027 3.616-8.438 3.616-8.438s6.027-4.821 14.464-4.821" stroke-linejoin="round" stroke-linecap="round" stroke-width="2" stroke="#222" fill="transparent" data-name="Path 5509"/><path d="M1743.92 738c11.882-1.98 14.002-15.343 14.38-20.051" stroke-linejoin="round" stroke-linecap="round" stroke-width="2" stroke="#222" fill="transparent" data-name="Path 5510"/><path d="M1758.3 717.768h0" stroke-linejoin="round" stroke-linecap="round" stroke-width="2" stroke="#222" fill="transparent" data-name="Path 5511"/><path d="M1742.048 709.685s11.431 3.734 16.253 8.042" stroke-linejoin="round" stroke-linecap="round" stroke-width="2" stroke="#222" fill="transparent" data-name="Path 5512"/><path d="M1758.301 717.768h0" stroke-linejoin="round" stroke-linecap="round" stroke-width="2" stroke="#222" fill="transparent" data-name="Path 5513"/><path d="M1758.301 717.768h0" stroke-linejoin="round" stroke-linecap="round" stroke-width="2" stroke="#222" fill="transparent" data-name="Line 5"/><path d="M1758.301 717.547s3.699-5.261 3.699-11.288-3.616-8.438-3.616-8.438-6.027-4.821-14.464-4.821" stroke-linejoin="round" stroke-linecap="round" stroke-width="2" stroke="#222" fill="transparent" data-name="Path 5514"/><path d="M1734.75 720.96a3.5 4 0 1 1 0 .1z" stroke-linejoin="round" stroke-linecap="round" stroke-width="2" stroke="#222" fill="transparent" data-name="Ellipse 9"/><path d="M1746.684 720.96a3.5 4 0 1 1 0 .1z" stroke-linejoin="round" stroke-linecap="round" stroke-width="2" stroke="#222" fill="transparent" data-name="Ellipse 10"/></g></svg>