<svg width="24" height="24" viewBox="0 0 24 24" fill="none" xmlns="http://www.w3.org/2000/svg">
<path d="M14.43 18.819C14.3315 18.8194 14.2339 18.8001 14.1429 18.7623C14.0519 18.7246 13.9693 18.6691 13.9 18.599C13.7605 18.4579 13.6823 18.2675 13.6823 18.069C13.6823 17.8706 13.7605 17.6802 13.9 17.539L19.44 11.999L13.9 6.45904C13.7702 6.31639 13.7004 6.12924 13.705 5.93645C13.7096 5.74367 13.7883 5.56006 13.9247 5.42377C14.0611 5.28747 14.2448 5.20896 14.4376 5.20454C14.6304 5.20012 14.8175 5.27014 14.96 5.40004L21.03 11.47C21.1695 11.6112 21.2477 11.8016 21.2477 12C21.2477 12.1985 21.1695 12.3889 21.03 12.53L14.96 18.6C14.8906 18.6699 14.808 18.7252 14.717 18.7628C14.626 18.8004 14.5285 18.8195 14.43 18.819Z" fill="white"/>
<path d="M20.33 12.75H3.5C3.30149 12.7487 3.11149 12.6693 2.97112 12.5289C2.83075 12.3885 2.75131 12.1985 2.75 12C2.75131 11.8015 2.83075 11.6115 2.97112 11.4711C3.11149 11.3307 3.30149 11.2513 3.5 11.25H20.33C20.5285 11.2513 20.7185 11.3307 20.8589 11.4711C20.9993 11.6115 21.0787 11.8015 21.08 12C21.0787 12.1985 20.9993 12.3885 20.8589 12.5289C20.7185 12.6693 20.5285 12.7487 20.33 12.75Z" fill="white"/>
</svg>
