<svg xmlns="http://www.w3.org/2000/svg" width="45.001" height="42" stroke="currentColor" viewBox="1118 694 45.001 42"><g data-name="Group 349"><path d="M1139.953 700.507a4.216 4.216 0 1 1-7.08-4.58 4.216 4.216 0 0 1 7.08 4.58Z" stroke-linejoin="round" stroke-linecap="round" stroke-width="2" fill="transparent" data-name="Path 5459"/><path d="M1134.345 708.34c.041-.316.054-.653.012-1.002" stroke-linejoin="round" stroke-linecap="round" stroke-width="2" fill="transparent" data-name="Path 5460"/><path d="M1134.358 707.346c-.115-.96-.622-1.996-1.952-2.857-3.54-2.29-5.83 1.25-5.83 1.25L1118 719" stroke-linejoin="round" stroke-linecap="round" stroke-width="2" fill="transparent" data-name="Path 5461"/><path d="m1130.523 715.218-4.943 7.643" stroke-linejoin="round" stroke-linecap="round" stroke-width="2" fill="transparent" data-name="Line 1"/><path d="M1130.141 709.945s-.201 2.565.38 5.234" stroke-linejoin="round" stroke-linecap="round" stroke-width="2" fill="transparent" data-name="Path 5462"/><path d="m1139.697 724.33-6.196-4.008c-1.693-1.094-2.549-3.125-2.979-5.098" stroke-linejoin="round" stroke-linecap="round" stroke-width="2" fill="transparent" data-name="Path 5463"/><path d="M1134.357 707.337v-.002" stroke-linejoin="round" stroke-linecap="round" stroke-width="2" fill="transparent" data-name="Line 2"/><path d="M1134.358 707.338c0 .004-.014.394-.012 1.002" stroke-linejoin="round" stroke-linecap="round" stroke-width="2" fill="transparent" data-name="Path 5464"/><path d="M1134.345 708.374c.007 2.24.245 7.597 2.331 8.947l5.31 3.435" stroke-linejoin="round" stroke-linecap="round" stroke-width="2" fill="transparent" data-name="Path 5465"/><path d="M1132.432 736v-12.649h-13.702" stroke-linejoin="round" stroke-linecap="round" stroke-width="2" fill="transparent" data-name="Path 5466"/><path d="M1139.812 724.405h5.27c5.27 0 6.324 7.379 9.487 7.379H1163" stroke-linejoin="round" stroke-linecap="round" stroke-width="2" fill="transparent" data-name="Path 5467"/><path d="M1133.486 731.784h10.54c4.216 0 4.216 4.216 8.433 4.216h10.54" stroke-linejoin="round" stroke-linecap="round" stroke-width="2" fill="transparent" data-name="Path 5468"/><path d="M1152.457 723.197a4.216 4.216 0 1 1 0 .1z" stroke-linejoin="round" stroke-linecap="round" stroke-width="2" fill="transparent" data-name="Ellipse 6"/></g></svg>