<svg xmlns="http://www.w3.org/2000/svg" width="30" height="30" viewBox="1245 700 30 30" stroke="currentColor">
    <g data-name="Group 325">
        <path d="M1267.592 707.357c.826-.735 1.311-1.595 1.311-2.518 0-2.673-3.986-4.839-8.903-4.839s-8.903 2.166-8.903 4.839c0 .923.485 1.783 1.31 2.518" stroke-linejoin="round" stroke-linecap="round" stroke-width="2" fill="transparent" data-name="Path 5469"/>
        <path d="M1267.62 707.356c-1.57 1.39-4.39 2.321-7.62 2.321-3.23 0-6.051-.93-7.621-2.32" stroke-linejoin="round" stroke-linecap="round" stroke-width="2" fill="transparent" data-name="Path 5470"/>
        <path d="M1269.725 715.484c-2.054 1.744-5.637 2.903-9.725 2.903s-7.67-1.159-9.725-2.903" stroke-linejoin="round" stroke-linecap="round" stroke-width="2"  fill="transparent" data-name="Path 5471"/>
        <path d="M1259.908 726.13c-4.006 0-7.518-1.16-9.531-2.904" stroke-linejoin="round" stroke-linecap="round" stroke-width="2" fill="transparent" data-name="Path 5472"/>
        <path d="M1250.276 715.484c-1.13-.979-1.792-2.139-1.792-3.387 0-1.894 1.513-3.587 3.895-4.74" stroke-linejoin="round" stroke-linecap="round" stroke-width="2" fill="transparent" data-name="Path 5473"/>
        <path d="M1269.725 715.484c1.128-.979 1.791-2.139 1.791-3.387 0-1.894-1.513-3.587-3.895-4.74" stroke-linejoin="round" stroke-linecap="round" stroke-width="2" fill="transparent" data-name="Path 5474"/>
        <path d="M1250.344 715.484c-3.265 1.509-5.344 3.765-5.344 6.29 0 4.543 6.716 8.226 15 8.226 8.284 0 15-3.683 15-8.226 0-2.525-2.08-4.781-5.344-6.29" stroke-linejoin="round" stroke-linecap="round" stroke-width="2" fill="transparent" data-name="Path 5475"/>
    </g>
</svg>