<svg width="40" height="40" viewBox="0 0 40 40" fill="none" xmlns="http://www.w3.org/2000/svg">
<path d="M36.7362 24.804H36.7364L36.7361 24.7954C36.5059 19.2313 28.5629 19.2327 28.3336 24.7955L28.3334 24.7955L28.3334 24.804C28.3351 25.9178 28.7785 26.9855 29.5664 27.7728C30.3542 28.5602 31.4222 29.0028 32.5361 29.0037L32.5365 29.0037C33.6498 29.0021 34.7171 28.559 35.5043 27.7718C36.2916 26.9846 36.7346 25.9173 36.7362 24.804ZM21.0974 9.65787L21.0974 9.65744C21.0959 8.54408 20.6529 7.47677 19.8656 6.6895C19.0784 5.90224 18.0111 5.45927 16.8977 5.45772V5.45753L16.8892 5.45789C11.3253 5.68807 11.3273 13.6306 16.8892 13.8599L16.8892 13.8601L16.8977 13.8601C18.0115 13.8586 19.0792 13.4152 19.8665 12.6274C20.6539 11.8396 21.0965 10.7717 21.0974 9.65787ZM20.8975 9.65771H20.8975H20.8975ZM22.6773 23.5269L22.6777 23.5266C22.7538 23.4541 22.8149 23.3674 22.8575 23.2713C22.9001 23.1753 22.9233 23.0718 22.9259 22.9667C22.9285 22.8617 22.9103 22.7572 22.8725 22.6591C22.8347 22.5611 22.7779 22.4715 22.7055 22.3954L15.0931 14.3954L15.0931 14.3954L15.0919 14.3941C14.6163 13.9034 14.03 13.5339 13.3822 13.3166C12.7343 13.0994 12.0438 13.0407 11.3685 13.1454C10.6933 13.2502 10.053 13.5155 9.5015 13.9188C8.94996 14.3222 8.50322 14.8521 8.19877 15.4638L8.19876 15.4638L8.19797 15.4654L4.50317 23.061L4.50316 23.061C4.41032 23.252 4.39712 23.4719 4.46647 23.6726C4.53582 23.8733 4.68204 24.0381 4.87296 24.131L4.96042 23.9511L4.87296 24.131C5.06388 24.2238 5.28386 24.237 5.48451 24.1677C5.68515 24.0983 5.85003 23.9521 5.94287 23.7612C5.94288 23.7612 5.94288 23.7612 5.94288 23.7612L9.63687 16.1676L9.63698 16.1674C9.82357 15.7827 10.1006 15.4489 10.4444 15.1946C10.7881 14.9403 11.1884 14.7731 11.6109 14.7073C12.0334 14.6415 12.4655 14.6791 12.8704 14.8168C13.2752 14.9545 13.6406 15.1882 13.9353 15.498L13.9353 15.498L21.5481 23.498L21.5483 23.4981C21.6944 23.6513 21.8952 23.7404 22.1069 23.7458C22.3185 23.7512 22.5236 23.6725 22.6773 23.5269ZM30.6973 22.9621C31.1852 22.4746 31.8466 22.2006 32.5364 22.2001C33.2255 22.2014 33.886 22.4757 34.3733 22.963C34.8598 23.4496 35.1341 24.1088 35.1362 24.7967C35.0104 28.242 30.0585 28.2408 29.9334 24.7968C29.9356 24.1084 30.2102 23.4487 30.6973 22.9621ZM14.2946 9.65788C14.2957 8.96862 14.57 8.30791 15.0574 7.82052C15.544 7.33397 16.2033 7.05977 16.8913 7.05772C20.3369 7.18319 20.3365 12.135 16.8913 12.2601C16.2029 12.2581 15.5433 11.9836 15.0566 11.4965C14.5692 11.0087 14.2952 10.3475 14.2946 9.65788Z" fill="black" stroke="black" stroke-width="0.4"/>
<path d="M35.6218 29.7746L35.6218 29.7747C38.7767 29.8755 38.7565 34.4462 35.6216 34.5437L35.6154 34.5439V34.5438H28.0002H27.9995C27.7889 34.5431 27.5868 34.4601 27.4365 34.3125L27.4352 34.3112L24.7488 31.6244L24.7485 31.6241C24.67 31.5453 24.5766 31.4828 24.4738 31.4402C24.371 31.3977 24.2608 31.3759 24.1495 31.3762L24.149 31.3762L19.137 31.3762C18.9248 31.3762 18.7213 31.2919 18.5713 31.1419C18.4213 30.9919 18.337 30.7884 18.337 30.5762C18.337 30.364 18.4213 30.1605 18.5713 30.0105C18.7213 29.8605 18.9248 29.7762 19.137 29.7762H24.1485H24.149V29.9762C24.4443 29.9754 24.7369 30.0332 25.0097 30.1463C25.2826 30.2593 25.5303 30.4252 25.7386 30.6346L35.6218 29.7746ZM35.6218 29.7746H35.6154H29.803L25.3636 25.3367C25.3635 25.3367 25.3635 25.3367 25.3635 25.3366L35.6218 29.7746ZM13.7723 19.5405L13.772 19.5408C13.622 19.6908 13.5377 19.8943 13.5377 20.1064C13.5377 20.3185 13.622 20.522 13.772 20.672L13.772 20.672L17.0756 23.9757C17.1491 24.0514 17.237 24.1119 17.334 24.1536C17.4316 24.1955 17.5366 24.2176 17.6428 24.2185C17.749 24.2195 17.8544 24.1992 17.9527 24.159C18.051 24.1188 18.1403 24.0594 18.2155 23.9843C18.2906 23.9091 18.35 23.8198 18.3902 23.7215C18.4304 23.6232 18.4507 23.5178 18.4497 23.4116C18.4488 23.3054 18.4267 23.2004 18.3848 23.1028C18.3431 23.0058 18.2826 22.9179 18.2069 22.8444C18.2064 22.844 18.206 22.8436 18.2055 22.8431L14.9016 19.5407L14.9013 19.5405C14.7514 19.3912 14.5484 19.3073 14.3368 19.3073C14.1252 19.3073 13.9222 19.3912 13.7723 19.5405ZM28.3322 32.9454L25.8804 30.4935L25.2218 25.4778C24.9814 25.2362 24.6954 25.0446 24.3805 24.9141C24.0655 24.7837 23.7279 24.7169 23.387 24.7178V24.5178H23.3867C23.3866 24.5178 23.3866 24.5178 23.3865 24.5178L2.8002 24.5178C2.58802 24.5178 2.38454 24.6021 2.23451 24.7521C2.08448 24.9021 2.0002 25.1056 2.0002 25.3178C2.0002 25.53 2.08448 25.7335 2.23451 25.8835C2.38454 26.0335 2.58802 26.1178 2.8002 26.1178L23.387 26.1178L23.3874 26.1178C23.5443 26.1175 23.6996 26.1482 23.8445 26.2082C23.9894 26.2682 24.121 26.3562 24.2317 26.4674L24.2319 26.4676L28.9039 31.1415C28.9782 31.2159 29.0664 31.2749 29.1635 31.3152C29.2606 31.3554 29.3646 31.3762 29.4698 31.3762H29.4698H35.6132C35.8179 31.3808 36.0127 31.4652 36.156 31.6115C36.2998 31.7582 36.3803 31.9554 36.3803 32.1608C36.3803 32.3662 36.2998 32.5634 36.156 32.7101C36.0127 32.8564 35.8179 32.9408 35.6132 32.9454H28.3322Z" fill="black" stroke="black" stroke-width="0.4"/>
</svg>
