<svg width="52" height="52" viewBox="0 0 52 52" fill="none" xmlns="http://www.w3.org/2000/svg">
<path d="M47.697 32.2451H47.6972L47.6969 32.2365C47.4008 25.0799 37.1886 25.0816 36.8936 32.2365L36.8934 32.2365L36.8934 32.2451C36.8955 33.6772 37.4656 35.0499 38.4786 36.0622C39.4916 37.0745 40.8648 37.6436 42.2969 37.6448L42.2973 37.6448C43.7288 37.6426 45.101 37.0731 46.1131 36.0609C47.1253 35.0487 47.6949 33.6765 47.697 32.2451ZM21.9669 7.15498V7.1548L21.9583 7.15515C14.8021 7.45122 14.8046 17.663 21.9584 17.9579L21.9584 17.9581L21.9669 17.9581C23.3989 17.9561 24.7717 17.3861 25.784 16.3732C26.7963 15.3603 27.3655 13.9872 27.3666 12.5551L27.3666 12.5547C27.3646 11.1232 26.7951 9.75094 25.7829 8.73873C24.7706 7.72652 23.3984 7.15698 21.9669 7.15498ZM29.4392 30.5414L29.4396 30.541C29.5328 30.4523 29.6077 30.3461 29.6599 30.2284C29.712 30.1107 29.7405 29.9839 29.7437 29.8552C29.7468 29.7265 29.7246 29.5985 29.6782 29.4784C29.6319 29.3583 29.5624 29.2485 29.4736 29.1553L19.5775 18.7554L19.5775 18.7554L19.5763 18.7541C18.9648 18.123 18.2108 17.6479 17.3777 17.3685C16.5446 17.0891 15.6566 17.0136 14.7883 17.1483C13.9199 17.2831 13.0966 17.6241 12.3873 18.1429C11.6781 18.6616 11.1036 19.3429 10.7121 20.1296L10.7113 20.1313L5.90803 30.0055L5.90802 30.0056C5.79429 30.2394 5.77812 30.5089 5.86307 30.7547C5.94803 31.0005 6.12715 31.2025 6.36104 31.3163C6.59492 31.43 6.86441 31.4462 7.11021 31.3612C7.35601 31.2763 7.55799 31.0971 7.67173 30.8633C7.67174 30.8633 7.67174 30.8633 7.67174 30.8632L12.4739 20.9916L12.474 20.9914C12.7208 20.4825 13.0873 20.041 13.5419 19.7047C13.9966 19.3683 14.5261 19.1472 15.0849 19.0602C15.6437 18.9731 16.2153 19.0228 16.7507 19.2049C17.2862 19.3871 17.7695 19.6962 18.1594 20.106L18.1594 20.106L28.056 30.506L28.0561 30.5061C28.2351 30.6938 28.4812 30.8029 28.7404 30.8095C28.9996 30.8161 29.2509 30.7197 29.4392 30.5414ZM39.864 29.8083C40.5096 29.1633 41.3846 28.8007 42.2972 28.8001C43.209 28.8018 44.0829 29.1647 44.7277 29.8095C45.3716 30.4535 45.7345 31.3261 45.737 32.2367C45.5717 36.7941 39.0178 36.7927 38.8534 32.2368C38.8559 31.3256 39.2193 30.4524 39.864 29.8083ZM18.523 12.5551C18.5244 11.6432 18.8873 10.769 19.5322 10.1242C20.1762 9.4802 21.0489 9.11739 21.9596 9.11499C26.5176 9.27982 26.517 15.8338 21.9596 15.9981C21.0484 15.9957 20.1752 15.6325 19.5311 14.9878C18.8863 14.3424 18.5237 13.4675 18.523 12.5551Z" fill="black" stroke="black" stroke-width="0.4"/>
<path d="M46.306 38.7668L46.306 38.7669C50.3283 38.8955 50.3053 44.7224 46.3058 44.8467L46.2996 44.8469V44.8468H36.3999H36.3992C36.141 44.8459 35.8933 44.7442 35.7091 44.5633L35.7077 44.562L32.2154 41.0692L32.2152 41.0689C32.1075 40.9608 31.9795 40.8751 31.8385 40.8167C31.6975 40.7584 31.5464 40.7285 31.3938 40.7289L31.3933 40.7289L24.8777 40.7289C24.6178 40.7289 24.3685 40.6257 24.1847 40.4419C24.001 40.2581 23.8977 40.0088 23.8977 39.7489C23.8977 39.489 24.001 39.2397 24.1847 39.0559C24.3685 38.8722 24.6178 38.7689 24.8777 38.7689H31.3928H31.3933V38.9689C31.7772 38.9679 32.1575 39.0431 32.5122 39.19C32.8669 39.3369 33.189 39.5527 33.4598 39.8248L46.306 38.7668ZM46.306 38.7668H46.2996H38.7187L32.9297 32.9799C32.9297 32.9799 32.9296 32.9798 32.9296 32.9798L46.306 38.7668ZM17.9459 25.445L17.9456 25.4453C17.7619 25.6291 17.6586 25.8783 17.6586 26.1382C17.6586 26.398 17.7619 26.6473 17.9456 26.831L17.9456 26.8311L22.2407 31.1262C22.3308 31.2191 22.4385 31.2933 22.5575 31.3444C22.6771 31.3958 22.8057 31.4228 22.9358 31.424C23.0659 31.4251 23.195 31.4003 23.3154 31.351C23.4358 31.3017 23.5453 31.229 23.6373 31.137C23.7293 31.0449 23.8021 30.9355 23.8513 30.8151C23.9006 30.6947 23.9254 30.5656 23.9243 30.4355C23.9231 30.3054 23.8961 30.1768 23.8447 30.0572L23.661 30.1361L23.8447 30.0572C23.7936 29.9382 23.7194 29.8305 23.6265 29.7404L19.3293 25.4453L19.329 25.445C19.1453 25.2621 18.8967 25.1594 18.6374 25.1594C18.3782 25.1594 18.1296 25.2621 17.9459 25.445ZM36.8067 42.8889L33.6016 39.6838L32.7879 33.121C32.4754 32.8069 32.1036 32.5578 31.6942 32.3882C31.2848 32.2186 30.8458 32.1319 30.4027 32.133V31.933H30.4024C30.4023 31.933 30.4023 31.933 30.4022 31.933L3.63986 31.933C3.37995 31.933 3.13068 32.0362 2.9469 32.22C2.76311 32.4038 2.65986 32.6531 2.65986 32.913C2.65986 33.1729 2.76311 33.4222 2.9469 33.606C3.13068 33.7897 3.37995 33.893 3.63986 33.893L30.4027 33.893L30.4031 33.893C30.6149 33.8925 30.8247 33.934 31.0204 34.015C31.2161 34.096 31.3938 34.215 31.5433 34.3651L31.5436 34.3653L37.6171 40.4414C37.6171 40.4415 37.6171 40.4415 37.6172 40.4415C37.7081 40.5326 37.8162 40.6048 37.9351 40.6542C38.054 40.7035 38.1815 40.7289 38.3103 40.7289H46.2975C46.5795 40.7351 46.8479 40.8513 47.0453 41.0528C47.2432 41.2547 47.3541 41.5262 47.3541 41.8089C47.3541 42.0916 47.2432 42.3631 47.0453 42.565C46.8479 42.7664 46.5795 42.8827 46.2976 42.8889H36.8067Z" fill="black" stroke="black" stroke-width="0.4"/>
</svg>
