<svg xmlns="http://www.w3.org/2000/svg" width="17.5" height="20" viewBox="1002 268 17.5 20"><g data-name="icon-back"><path d="M1005.75 278.938c0-.52.418-.938.938-.938h8.125c.519 0 .937.418.937.938 0 .519-.418.937-.938.937h-8.125a.935.935 0 0 1-.937-.938Zm5.313 2.812c.519 0 .937.418.937.938 0 .519-.418.937-.938.937h-4.375a.935.935 0 0 1-.937-.938c0-.519.418-.937.938-.937h4.375Zm-3.125-11.25h5.625v-1.563a.936.936 0 1 1 1.875 0v1.563H1017c1.379 0 2.5 1.12 2.5 2.5v12.5c0 1.379-1.121 2.5-2.5 2.5h-12.5c-1.38 0-2.5-1.121-2.5-2.5V273a2.5 2.5 0 0 1 2.5-2.5h1.563v-1.563a.936.936 0 1 1 1.875 0v1.563Zm-4.063 15c0 .344.28.625.625.625h12.5a.627.627 0 0 0 .625-.625v-10h-13.75v10Z" fill="#222" fill-rule="evenodd" data-name="calendar-lines"/></g></svg>