<svg width="60" height="60" viewBox="0 0 60 60" fill="currentColor" xmlns="http://www.w3.org/2000/svg">
<path d="M19.5438 21.6125C27.3413 21.6125 33.6613 20.275 33.6613 18.6238C33.6613 17.2788 29.4463 16.1388 23.6613 15.765C23.58 15.9013 23.515 16.0525 23.4238 16.18C22.8037 17.1028 21.9236 17.8207 20.895 18.2425C21.735 18.3675 22.3088 18.6075 22.3088 18.885C22.3088 19.2938 21.0725 19.6263 19.5475 19.6263C18.0225 19.6263 16.7875 19.2938 16.7875 18.885C16.7875 18.5963 17.4125 18.3488 18.3063 18.2275C17.1247 17.7255 16.1316 16.8633 15.4688 15.7638C9.66253 16.1388 5.43128 17.2738 5.43128 18.6238C5.42628 20.275 11.75 21.6125 19.5438 21.6125Z"/>
<path d="M18.6063 16.2875V12.6488C18.6063 12.4001 18.705 12.1617 18.8808 11.9858C19.0567 11.81 19.2951 11.7113 19.5438 11.7113C19.7924 11.7113 20.0308 11.81 20.2067 11.9858C20.3825 12.1617 20.4813 12.4001 20.4813 12.6488V16.375C21.0472 16.073 21.5301 15.6364 21.8875 15.1038C22.6697 13.8622 23.0455 12.4076 22.9625 10.9425C22.9625 8.58001 21.3875 4.83001 20.375 2.65501C19.9 1.61751 19.5375 0.942505 19.5375 0.942505C19.5375 0.942505 16.125 7.46751 16.125 10.9425C16.125 14.3138 17.5663 15.7138 18.6063 16.2875Z"/>
<path d="M18.6063 16.2875V18.6137C18.6063 18.8624 18.705 19.1008 18.8808 19.2766C19.0567 19.4525 19.2951 19.5512 19.5438 19.5512C19.7924 19.5512 20.0309 19.4525 20.2067 19.2766C20.3825 19.1008 20.4813 18.8624 20.4813 18.6137V16.375C20.2212 16.5179 19.9409 16.6203 19.65 16.6787C19.2827 16.6076 18.9299 16.4753 18.6063 16.2875Z" />
<path d="M26.5125 32.7212C26.8744 32.7539 27.2348 32.6439 27.5167 32.4145C27.7986 32.1852 27.9797 31.8547 28.0213 31.4937V22.9262C25.2125 23.3154 22.3794 23.503 19.5438 23.4875C15.955 23.4875 8.81752 23.2212 5.42627 21.2625V29.6125C5.42627 29.635 5.43877 29.6525 5.43877 29.675C5.48005 30.0361 5.66103 30.3668 5.943 30.5962C6.22497 30.8256 6.58552 30.9355 6.94752 30.9025C7.30931 30.9352 7.66955 30.8251 7.95124 30.5957C8.23293 30.3663 8.41374 30.0359 8.45502 29.675V27.2112C8.49364 26.3516 8.87153 25.5425 9.50584 24.9611C10.1402 24.3798 10.9791 24.0737 11.8388 24.11C12.6982 24.074 13.5369 24.3803 14.1709 24.9616C14.8049 25.5429 15.1827 26.3519 15.2213 27.2112V35.1412C15.2628 35.5021 15.444 35.8325 15.7259 36.0616C16.0078 36.2908 16.3682 36.4005 16.73 36.3675C17.0917 36.4005 17.4519 36.2907 17.7337 36.0615C18.0154 35.8324 18.1962 35.502 18.2375 35.1412V30.5399C18.2761 29.6797 18.6545 28.87 19.2897 28.2885C19.9248 27.707 20.7647 27.4014 21.625 27.4387C22.4832 27.4048 23.3199 27.712 23.9523 28.2931C24.5847 28.8742 24.9614 29.682 25 30.5399V31.5C25.0428 31.8607 25.225 32.1904 25.5076 32.4186C25.7902 32.6468 26.1509 32.7554 26.5125 32.7212Z"/>
<path d="M28.4913 43.445C28.8001 42.2359 29.4528 41.1423 30.3704 40.2966C31.288 39.4509 32.4311 38.8894 33.6613 38.68V21.2625C32.4781 21.885 31.2094 22.3294 29.8963 22.5812V31.5C29.8234 32.3472 29.4353 33.1362 28.8088 33.7112C28.1823 34.2861 27.3629 34.6051 26.5125 34.6051C25.6622 34.6051 24.8428 34.2861 24.2162 33.7112C23.5897 33.1362 23.2017 32.3472 23.1288 31.5V30.5462C23.0875 30.1854 22.9066 29.855 22.6249 29.6259C22.3432 29.3967 21.9829 29.2869 21.6213 29.32C21.2595 29.2869 20.8991 29.3966 20.6171 29.6258C20.3352 29.8549 20.1541 30.1853 20.1125 30.5462V35.1475C20.0739 36.0068 19.6962 36.8158 19.0621 37.3971C18.4281 37.9784 17.5895 38.2846 16.73 38.2487C15.8704 38.285 15.0314 37.9789 14.3971 37.3975C13.7628 36.8162 13.3849 36.007 13.3463 35.1475V27.2112C13.305 26.8504 13.1241 26.52 12.8424 26.2909C12.5607 26.0617 12.2004 25.9519 11.8388 25.985C11.477 25.9519 11.1166 26.0617 10.8346 26.2908C10.5527 26.5199 10.3716 26.8503 10.33 27.2112V29.675C10.2917 30.5345 9.91414 31.3438 9.28007 31.9254C8.64599 32.507 7.80717 32.8134 6.94752 32.7775C6.42102 32.7751 5.90155 32.6565 5.42627 32.43V50.835C5.42627 52.485 11.7463 53.8225 19.5425 53.8225C23.4515 53.9137 27.355 53.4803 31.1488 52.5337C31.284 52.0555 31.4731 51.5942 31.7125 51.1587C30.9915 50.8676 30.3354 50.4363 29.7823 49.8898C29.2292 49.3432 28.7901 48.6923 28.4904 47.9748C28.1908 47.2572 28.0366 46.4874 28.0367 45.7098C28.0369 44.9322 28.1914 44.1624 28.4913 43.445Z"/>
<path d="M51.4037 49.7838C54.35 48.8263 54.995 46.3 54.2387 43.6913C54.1127 43.0855 53.8514 42.5161 53.4743 42.0255C53.0973 41.535 52.6143 41.136 52.0613 40.8583C51.5084 40.5806 50.8999 40.4315 50.2813 40.4221C49.6626 40.4126 49.0499 40.5431 48.4887 40.8038C47.3432 41.4546 46.412 42.425 45.8087 43.5963C46.5269 42.4513 46.9559 41.1489 47.0587 39.8013C47.0587 36.705 44.8575 35.2238 42.1412 35.2238C39.425 35.2238 37.4462 36.7313 37.6175 39.8013C37.8283 40.9221 38.3359 41.9659 39.0875 42.8238C38.276 41.9206 37.2686 41.2151 36.1425 40.7613C33.1962 39.8038 31.1075 41.44 30.2675 44.0238C30.0376 44.5904 29.9332 45.2 29.9613 45.8108C29.9894 46.4216 30.1493 47.019 30.4302 47.5622C30.7111 48.1053 31.1062 48.5811 31.5884 48.9571C32.0706 49.333 32.6285 49.6001 33.2237 49.74C34.4109 49.8086 35.5993 49.6299 36.7137 49.215C35.5714 49.7109 34.5598 50.4653 33.7587 51.4188C31.9375 53.9188 32.8487 56.4188 35.0462 58.0125C37.2437 59.6063 39.9212 59.4138 41.3962 56.9675C41.9345 55.7759 42.1214 54.4554 41.935 53.1613C42.0214 54.5307 42.442 55.8581 43.16 57.0275C44.98 59.5275 47.6325 59.4363 49.83 57.84C52.0275 56.2438 52.9062 53.525 50.7975 51.4775C49.6408 50.6629 48.3548 50.0496 46.9937 49.6638C48.4288 50.083 49.9479 50.1243 51.4037 49.7838ZM42.1137 50.2838C41.6093 50.284 41.1162 50.1347 40.6967 49.8546C40.2772 49.5746 39.9501 49.1764 39.7569 48.7105C39.5637 48.2445 39.5131 47.7318 39.6113 47.237C39.7096 46.7423 39.9523 46.2878 40.3089 45.9311C40.6655 45.5743 41.1198 45.3313 41.6145 45.2328C42.1092 45.1344 42.622 45.1848 43.088 45.3777C43.554 45.5707 43.9524 45.8975 44.2326 46.3169C44.5129 46.7363 44.6625 47.2294 44.6625 47.7338C44.6625 48.4098 44.394 49.0583 43.916 49.5364C43.4381 50.0146 42.7898 50.2834 42.1137 50.2838Z"/>
</svg>
