<svg xmlns="http://www.w3.org/2000/svg" width="36" height="45" viewBox="1602 693 36 45"><g data-name="Group 329"><path d="M1623.912 733.977c6.034 0 14.08-8.1 14.088-18.098" stroke-linejoin="round" stroke-linecap="round" stroke-width="2" stroke="#222" fill="transparent" data-name="Path 5489"/><path d="M1616.088 733.977c-6.034 0-14.08-8.1-14.088-18.098" stroke-linejoin="round" stroke-linecap="round" stroke-width="2" stroke="#222" fill="transparent" data-name="Path 5490"/><path d="M1610.508 732.085v2.716c0 .793.457 1.52 1.184 1.835 1.356.588 3.974 1.364 8.347 1.364" stroke-linejoin="round" stroke-linecap="round" stroke-width="2" stroke="#222" fill="transparent" data-name="Path 5491"/><path d="M1629.49 732.085v2.716a1.99 1.99 0 0 1-1.184 1.835c-1.355.588-3.973 1.364-8.346 1.364" stroke-linejoin="round" stroke-linecap="round" stroke-width="2" stroke="#222" fill="transparent" data-name="Path 5492"/><path d="M1619.408 711.696c-6.892.113-12.373 1.863-12.373 4.012 0 2.222 5.854 4.023 13.075 4.023 3.046 0 5.842-.323 8.065-.86" stroke-linejoin="round" stroke-linecap="round" stroke-width="2" stroke="#222" fill="transparent" data-name="Path 5493"/><path d="M1627.954 718.872c3.047-.737 5.01-1.878 5.01-3.162 0-1.062-1.346-2.024-3.528-2.743" stroke-linejoin="round" stroke-linecap="round" stroke-width="2" stroke="#222" fill="transparent" data-name="Path 5494"/><path d="M1619.296 711.646c.635-1.339 1.289-2.714 1.906-4.007" stroke-linejoin="round" stroke-linecap="round" stroke-width="2" stroke="#222" fill="transparent" data-name="Path 5495"/><path d="m1629.49 712.967-1.48 5.905" stroke-linejoin="round" stroke-linecap="round" stroke-width="2" stroke="#222" fill="transparent" data-name="Path 5496"/><path d="M1619.315 711.694c-1.888 3.978-3.6 7.607-3.6 7.607" stroke-linejoin="round" stroke-linecap="round" stroke-width="2" stroke="#222" fill="transparent" data-name="Path 5497"/><path d="m1629.482 712.927.954-3.804" stroke-linejoin="round" stroke-linecap="round" stroke-width="2" stroke="#222" fill="transparent" data-name="Path 5498"/><path d="m1630.444 708.992 1.242-4.95c.477-1.9-.577-4.076-2.691-4.76-2.114-.682-3.909.268-4.966 2.288-.375.715-1.538 3.13-2.882 5.95" stroke-linejoin="round" stroke-linecap="round" stroke-width="2" stroke="#222" fill="transparent" data-name="Path 5499"/><path d="m1628.014 718.9.002-.006" stroke-linejoin="round" stroke-linecap="round" stroke-width="2" stroke="#222" fill="transparent" data-name="Path 5500"/><path d="M1612.605 708.326c-.743.15-1.457.322-2.143.513" stroke-linejoin="round" stroke-linecap="round" stroke-width="2" stroke="#222" fill="transparent" data-name="Path 5501"/><path d="M1612.576 708.321a37.976 37.976 0 0 1 7.449-.718c.406 0 .804.015 1.204.027" stroke-linejoin="round" stroke-linecap="round" stroke-width="2" stroke="#222" fill="transparent" data-name="Path 5502"/><path d="M1610.466 708.9c-5.074 1.423-8.46 3.94-8.46 6.815 0 4.444 8.056 8.046 17.993 8.046s17.993-3.602 17.993-8.046c0-2.702-2.988-5.087-7.557-6.546" stroke-linejoin="round" stroke-linecap="round" stroke-width="2" stroke="#222" fill="transparent" data-name="Path 5503"/><path d="M1610.517 708.724c-1.706-.25-4.089-.91-5.563-2.675-2.493-2.984-1.427-7.983-1.427-7.983s3.274-.098 5.86 1.393" stroke-linejoin="round" stroke-linecap="round" stroke-width="2" stroke="#222" fill="transparent" data-name="Path 5504"/><path d="M1612.352 703.394c-.25-.887-.65-1.758-1.273-2.504a6.426 6.426 0 0 0-1.742-1.43" stroke-linejoin="round" stroke-linecap="round" stroke-width="2" stroke="#222" fill="transparent" data-name="Path 5505"/><path d="M1616.73 703.395c.516-1.24.854-2.692.6-4.15-.667-3.83-5.171-6.245-5.171-6.245s-2.75 3.061-2.83 6.459" stroke-linejoin="round" stroke-linecap="round" stroke-width="2" stroke="#222" fill="transparent" data-name="Path 5506"/></g></svg>