<svg xmlns="http://www.w3.org/2000/svg" width="20" height="20" viewBox="1360 268 20 20"><g data-name="icon-back"><path d="M1370.938 278a.917.917 0 0 1-.418.746l-3.75 2.5a.905.905 0 0 1-1.301-.226.942.942 0 0 1 .261-1.301l3.332-2.219v-4.813c0-.519.418-.937.938-.937s.938.418.938.938V278Zm9.062 0c0 5.523-4.477 10-10 10s-10-4.477-10-10 4.477-10 10-10 10 4.477 10 10Zm-10-8.125a8.124 8.124 0 0 0-8.125 8.125 8.124 8.124 0 0 0 8.125 8.125 8.124 8.124 0 0 0 8.125-8.125 8.124 8.124 0 0 0-8.125-8.125Z" fill="#222" fill-rule="evenodd" data-name="clock-eight"/></g></svg>