<svg width="130" height="24" viewBox="0 0 130 24" fill="none" xmlns="http://www.w3.org/2000/svg">
<g clip-path="url(#clip0_43_1588)">
<path d="M112.53 10.58C114 10.67 115.13 10.1 116.45 9.39C118.43 8.34 120.81 7.85 123.07 7.59C125.09 7.36 126.77 8.59 128.16 10.06C129.64 11.63 129.52 12.23 127.76 13.34C125.31 14.88 122.63 14.59 120.01 14.24C118.65 14.06 117.4 13.15 116.04 12.96C114.21 12.7 112.33 12.82 110.48 12.77C110.52 13.06 110.47 13.42 110.62 13.64C111.36 14.7 112.29 15.65 112.9 16.78C113.95 18.73 113.43 19.48 111.23 19.38C107.95 19.23 105.29 17.82 103.71 14.93C102.94 13.51 102.13 13.09 100.63 13.44C99.89 13.61 99.0801 13.46 98.3001 13.5C98.0701 13.51 97.86 13.68 97.64 13.77C97.76 13.97 97.8401 14.24 98.0101 14.36C100.05 15.83 101.27 17.84 101.97 20.21C102.1 20.64 102.25 21.08 102.3 21.52C102.47 23.07 102.11 23.38 100.57 23.14C95.62 22.37 92.26 19.47 89.85 15.24C89.23 14.15 86.4101 13.51 85.4701 14.25C85.3301 14.36 85.3801 14.94 85.5401 15.16C86.1901 16.04 87.11 16.78 87.56 17.74C87.93 18.54 87.97 19.62 87.78 20.49C87.72 20.77 86.39 20.92 85.67 20.85C82.34 20.51 79.8 18.94 78.31 15.85C77.51 14.19 76.96 13.91 75.13 14.15C74.49 14.23 73.82 14.33 73.2 14.21C72.87 14.14 72.4701 13.65 72.4001 13.29C72.3601 13.09 72.9001 12.6 73.2301 12.54C74.3801 12.34 75.55 12.15 76.71 12.19C78.09 12.23 78.6301 11.55 79.0401 10.36C80.2001 6.99 82.4901 4.88 86.1201 4.34C87.9701 4.06 88.48 4.5 87.89 6.29C87.4101 7.76 86.7301 9.17 86.0101 10.54C85.6001 11.33 85.49 11.64 86.56 11.7C88.44 11.8 89.8401 11.45 90.8301 9.51C91.8601 7.52 93.37 5.75999 94.77 3.98C96.4 1.91 98.6801 0.829995 101.16 0.109995C102.59 -0.300005 103.27 0.419995 102.91 2.02999C102.22 5.06999 100.9 7.77 98.6201 9.96C98.4101 10.16 98.2801 10.46 98.1201 10.72C98.4101 10.82 98.6801 10.97 98.9801 11C100.95 11.19 102.59 10.76 103.93 9.04C105.91 6.5 108.33 4.41 111.61 3.7C112.23 3.56999 113.19 3.58999 113.52 3.96C113.88 4.35999 113.96 5.42 113.67 5.9C112.99 7.03 112.02 7.97999 111.15 8.99C110.78 9.42 110.36 9.81 109.97 10.22C110.56 10.34 111.15 10.48 111.75 10.58C112 10.62 112.27 10.58 112.53 10.58Z" fill="#B2A285"/>
<path d="M16.6602 10.58C15.1902 10.67 14.0602 10.1 12.7402 9.39C10.7602 8.34 8.38015 7.85 6.12015 7.59C4.10015 7.36 2.42015 8.59 1.03015 10.06C-0.449849 11.63 -0.329849 12.23 1.43015 13.34C3.88015 14.88 6.56015 14.59 9.18015 14.24C10.5302 14.06 11.7902 13.15 13.1502 12.96C14.9802 12.7 16.8601 12.82 18.7101 12.77C18.6701 13.06 18.7201 13.42 18.5702 13.64C17.8302 14.7 16.9002 15.65 16.2902 16.78C15.2402 18.73 15.7601 19.48 17.9601 19.38C21.2402 19.23 23.9002 17.82 25.4802 14.93C26.2502 13.51 27.0602 13.09 28.5602 13.44C29.3001 13.61 30.1101 13.46 30.8902 13.5C31.1201 13.51 31.3302 13.68 31.5501 13.77C31.4301 13.97 31.3502 14.24 31.1802 14.36C29.1402 15.83 27.9202 17.84 27.2201 20.21C27.0902 20.64 26.9401 21.08 26.8902 21.52C26.7201 23.07 27.0802 23.38 28.6202 23.14C33.5702 22.37 36.9302 19.47 39.3402 15.24C39.9602 14.15 42.7802 13.51 43.7202 14.25C43.8602 14.36 43.8102 14.94 43.6502 15.16C43.0002 16.04 42.0802 16.78 41.6302 17.74C41.2602 18.54 41.2202 19.62 41.4102 20.49C41.4702 20.77 42.8002 20.92 43.5202 20.85C46.8502 20.51 49.3902 18.94 50.8802 15.85C51.6802 14.19 52.2302 13.91 54.0602 14.15C54.7002 14.23 55.3702 14.33 55.9902 14.21C56.3202 14.14 56.7202 13.65 56.7902 13.29C56.8302 13.09 56.2902 12.6 55.9602 12.54C54.8102 12.34 53.6402 12.15 52.4802 12.19C51.1002 12.23 50.5602 11.55 50.1502 10.36C48.9902 6.99 46.7002 4.88 43.0702 4.34C41.2202 4.06 40.7102 4.5 41.3002 6.29C41.7802 7.76 42.4602 9.17 43.1802 10.54C43.5902 11.33 43.7002 11.64 42.6302 11.7C40.7502 11.8 39.3602 11.45 38.3602 9.51C37.3302 7.52 35.8202 5.75999 34.4202 3.98C32.7901 1.91 30.5102 0.829995 28.0302 0.109995C26.6002 -0.300005 25.9202 0.419995 26.2802 2.02999C26.9702 5.06999 28.2901 7.77 30.5702 9.96C30.7801 10.16 30.9102 10.46 31.0702 10.72C30.7801 10.82 30.5101 10.97 30.2101 11C28.2402 11.19 26.6002 10.76 25.2602 9.04C23.2802 6.5 20.8602 4.41 17.5802 3.7C16.9601 3.56999 16.0002 3.58999 15.6702 3.96C15.3102 4.35999 15.2302 5.42 15.5202 5.9C16.2002 7.03 17.1702 7.97999 18.0402 8.99C18.4102 9.42 18.8302 9.81 19.2201 10.22C18.6301 10.34 18.0402 10.48 17.4402 10.58C17.1902 10.62 16.9202 10.58 16.6602 10.58Z" fill="#B2A285"/>
</g>
<defs>
<clipPath id="clip0_43_1588">
<rect width="129.18" height="23.22" fill="white"/>
</clipPath>
</defs>
</svg>
