<svg width="27" height="30" viewBox="0 0 27 30" fill="currentColor" xmlns="http://www.w3.org/2000/svg">
<g clip-path="url(#clip0_80_167)">
<path d="M23.4375 1.875H2.8125C2.06658 1.875 1.35121 2.17132 0.823762 2.69876C0.296316 3.22621 0 3.94158 0 4.6875L0 25.3125C0 26.0584 0.296316 26.7738 0.823762 27.3012C1.35121 27.8287 2.06658 28.125 2.8125 28.125H10.8545V19.2006H7.16309V15H10.8545V11.7984C10.8545 8.15684 13.0225 6.14531 16.343 6.14531C17.9332 6.14531 19.5961 6.42891 19.5961 6.42891V10.0031H17.7639C15.9586 10.0031 15.3955 11.1234 15.3955 12.2725V15H19.4256L18.7811 19.2006H15.3955V28.125H23.4375C24.1834 28.125 24.8988 27.8287 25.4262 27.3012C25.9537 26.7738 26.25 26.0584 26.25 25.3125V4.6875C26.25 3.94158 25.9537 3.22621 25.4262 2.69876C24.8988 2.17132 24.1834 1.875 23.4375 1.875Z"/>
</g>
<defs>
<clipPath id="clip0_80_167">
<rect width="26.25" height="30" />
</clipPath>
</defs>
</svg>
