<svg width="46" height="46" viewBox="0 0 46 46" fill="none" xmlns="http://www.w3.org/2000/svg">
<g clip-path="url(#clip0_118_722)">
<path d="M26.2011 45.1417L26.2008 45.1417H8.625C6.98469 45.1417 5.65 43.807 5.65 42.1667V38.3334C5.65 36.6931 6.98469 35.3584 8.625 35.3584H20.0357L24.9168 30.483C25.2217 30.1773 25.5896 29.9418 25.9948 29.7928C26.4001 29.6439 26.8329 29.585 27.2632 29.6205C27.6935 29.6559 28.1109 29.7846 28.4863 29.9978C28.8618 30.211 29.1862 30.5035 29.4371 30.8549C30.2763 32.0274 30.0995 33.7088 29.0373 34.7701C29.0373 34.7701 29.0373 34.7701 29.0373 34.7701L26.6415 37.165C26.5432 37.2632 26.4265 37.3412 26.2982 37.3944C26.1698 37.4475 26.0322 37.4749 25.8932 37.4749C25.7542 37.4749 25.6166 37.4475 25.4883 37.3944C25.3599 37.3412 25.2432 37.2632 25.145 37.165C25.0467 37.0667 24.9688 36.95 24.9156 36.8217C24.8624 36.6933 24.835 36.5557 24.835 36.4167C24.835 36.2778 24.8624 36.1401 24.9156 36.0118C24.9688 35.8834 25.0467 35.7667 25.145 35.6685L27.5408 33.2726C27.8827 32.9308 27.9463 32.4088 27.7161 32.0877L27.7156 32.0869C27.6437 31.9846 27.5501 31.8994 27.4415 31.8375C27.3328 31.7755 27.2118 31.7383 27.0872 31.7286L27.0865 31.7285C26.9636 31.7181 26.8398 31.7349 26.7241 31.7777C26.6083 31.8205 26.5034 31.8882 26.4167 31.9761L26.4162 31.9766L21.4957 36.8875C21.4956 36.8876 21.4955 36.8877 21.4955 36.8878C21.3102 37.0755 21.0893 37.2242 20.8456 37.3251C20.6019 37.426 20.3404 37.477 20.0767 37.475M26.2011 45.1417L20.0771 37.375M26.2011 45.1417C27.4978 45.1387 28.741 44.6245 29.6609 43.7106L29.6612 43.7104L36.2066 37.165C36.405 36.9665 36.5165 36.6974 36.5165 36.4167C36.5165 36.1361 36.405 35.8669 36.2066 35.6685C36.0081 35.47 35.739 35.3585 35.4583 35.3585C35.1777 35.3585 34.9085 35.47 34.7101 35.6685L28.1649 42.2136C28.1649 42.2137 28.1648 42.2137 28.1648 42.2138C27.6425 42.7323 26.9368 43.0238 26.2008 43.025M26.2011 45.1417L26.2008 43.025M20.0767 37.475C20.0766 37.475 20.0765 37.475 20.0763 37.475L20.0771 37.375M20.0767 37.475H20.0771V37.375M20.0767 37.475H8.625C8.39736 37.475 8.17904 37.5655 8.01807 37.7264C7.8571 37.8874 7.76667 38.1057 7.76667 38.3334V42.1667C7.76667 42.3944 7.8571 42.6127 8.01807 42.7736C8.17904 42.9346 8.39736 43.025 8.625 43.025L26.2007 43.025M20.0771 37.375H8.625C8.37083 37.375 8.12708 37.476 7.94736 37.6557C7.76763 37.8355 7.66667 38.0792 7.66667 38.3334V42.1667C7.66667 42.4209 7.76763 42.6646 7.94736 42.8444C8.12708 43.0241 8.37083 43.125 8.625 43.125H26.2008L26.2007 43.025M26.2007 43.025L26.2008 43.025M26.2007 43.025C26.2007 43.025 26.2008 43.025 26.2008 43.025" fill="black" stroke="black" stroke-width="0.2"/>
<path d="M35.4585 37.3749H25.8944C25.6402 37.3749 25.3964 37.274 25.2167 37.0942C25.037 36.9145 24.936 36.6708 24.936 36.4166C24.936 36.1624 25.037 35.9187 25.2167 35.7389C25.3964 35.5592 25.6402 35.4583 25.8944 35.4583H35.4585C35.7127 35.4583 35.9565 35.5592 36.1362 35.7389C36.3159 35.9187 36.4169 36.1624 36.4169 36.4166C36.4169 36.6708 36.3159 36.9145 36.1362 37.0942C35.9565 37.274 35.7127 37.3749 35.4585 37.3749Z" fill="black"/>
<path d="M20.0359 35.3583H17.3502V32.5833C17.3502 29.9964 19.4549 27.8916 22.0418 27.8916H28.7502C29.8624 27.8916 30.7668 26.9872 30.7668 25.8749V2.97492H38.2335V32.5833C38.2335 34.1131 36.9883 35.3583 35.4585 35.3583H25.8943C25.6136 35.3583 25.3444 35.4698 25.146 35.6682C24.9475 35.8667 24.836 36.1359 24.836 36.4166C24.836 36.6973 24.9475 36.9665 25.146 37.1649C25.3445 37.3634 25.6136 37.4749 25.8943 37.4749H35.4585C38.1558 37.4749 40.3502 35.2806 40.3502 32.5833V2.87492C40.3502 1.76265 39.4458 0.858252 38.3335 0.858252H30.6668C29.5546 0.858252 28.6502 1.76265 28.6502 2.87492V25.7749H22.0418C18.2884 25.7749 15.2335 28.8298 15.2335 32.5833V37.3749V37.4749H15.3335H20.0765C20.3404 37.4769 20.6019 37.4259 20.8457 37.325C21.0895 37.2241 21.3106 37.0753 21.4958 36.8874C21.4958 36.8874 21.4958 36.8874 21.4959 36.8874L26.4163 31.9765L26.4169 31.9759C26.5036 31.8881 26.6085 31.8203 26.7242 31.7776C26.84 31.7348 26.9637 31.718 27.0867 31.7284L27.0873 31.7284C27.212 31.7382 27.333 31.7754 27.4416 31.8373C27.5503 31.8993 27.6439 31.9845 27.7157 32.0868L27.7163 32.0876C27.9465 32.4087 27.8828 32.9306 27.541 33.2715L27.541 33.2714L27.5389 33.2736C27.3499 33.474 27.2463 33.7401 27.2502 34.0156C27.2541 34.291 27.3652 34.5541 27.5598 34.7491C27.7545 34.944 28.0174 35.0554 28.2929 35.0597C28.5683 35.064 28.8346 34.9608 29.0353 34.7721L29.0353 34.7721L29.0374 34.77C30.0997 33.7087 30.2765 32.0272 29.4371 30.8547C29.1863 30.5033 28.8619 30.2109 28.4865 29.9977C28.111 29.7845 27.6936 29.6557 27.2633 29.6203C26.8331 29.5849 26.4002 29.6438 25.995 29.7927C25.5897 29.9417 25.2219 30.1772 24.9169 30.4829L20.0359 35.3583Z" fill="black" stroke="black" stroke-width="0.2"/>
<path d="M25.8941 37.3751C25.7043 37.3755 25.5188 37.3196 25.3609 37.2143C25.2031 37.1091 25.08 36.9593 25.0074 36.7841C24.9348 36.6088 24.916 36.4159 24.9532 36.2299C24.9904 36.0438 25.0821 35.8731 25.2165 35.7392L27.6124 33.3434C27.792 33.1637 28.0358 33.0627 28.2899 33.0627C28.544 33.0627 28.7877 33.1637 28.9674 33.3434C29.1471 33.5231 29.2481 33.7668 29.2481 34.0209C29.2481 34.2751 29.1471 34.5188 28.9674 34.6985L26.5716 37.0943C26.3919 37.274 26.1482 37.375 25.8941 37.3751Z" fill="black"/>
</g>
<defs>
<clipPath id="clip0_118_722">
<rect width="46" height="46" fill="white"/>
</clipPath>
</defs>
</svg>
