<svg xmlns="http://www.w3.org/2000/svg" width="44" height="45" viewBox="1478 693 44 45"><g data-name="Group 345"><path d="M1500.048 734v-7" stroke-linejoin="round" stroke-linecap="round" stroke-width="2" stroke="#101c1d" fill="transparent" data-name="Line 6"/><path d="M1504.39 725.927c0-4.974-5.23-7.683-5.23-7.683s-.219 1.697-1.355 3.293c-1.056 1.481-2.06 2.81-2.195 4.39-.374 4.39 3.292 4.39 4.39 4.39 1.098 0 4.39 0 4.39-4.39Z" stroke-linejoin="round" stroke-linecap="round" stroke-width="2" stroke="#101c1d" fill="transparent" data-name="Path 5524"/><path d="M1495.561 738H1478v-5.488c0-11.538 3.452-20.868 13.094-24.146" stroke-linejoin="round" stroke-linecap="round" stroke-width="2" stroke="#101c1d" fill="transparent" data-name="Path 5525"/><path d="M1515.415 738H1522v-5.488c0-11.538-3.529-20.868-13.17-24.146h-10.976" stroke-linejoin="round" stroke-linecap="round" stroke-width="2" stroke="#101c1d" fill="transparent" data-name="Path 5526"/><path d="M1484.585 738v-6.585c0-9.699 4.405-17.561 15.415-17.561 12.111 0 15.415 7.862 15.415 17.56V738h-11.01v-4.39h-8.81V738" stroke-linejoin="round" stroke-linecap="round" stroke-width="2" stroke="#101c1d" fill="transparent" data-name="Path 5527"/><path d="M1508.805 708.366s5.488 0 5.488-5.488h-13.171" stroke-linejoin="round" stroke-linecap="round" stroke-width="2" stroke="#101c1d" fill="transparent" data-name="Path 5528"/><path d="M1491.197 708.366s-5.488 0-5.488-5.488h15.366" stroke-linejoin="round" stroke-linecap="round" stroke-width="2" stroke="#101c1d" fill="transparent" data-name="Path 5529"/><path d="M1493.395 693c0 3.293-4.39 3.293-3.293 6.585" stroke-linejoin="round" stroke-linecap="round" stroke-width="2" stroke="#101c1d" fill="transparent" data-name="Path 5530"/><path d="M1502.196 693c0 3.293-3.292 3.293-3.292 6.585" stroke-linejoin="round" stroke-linecap="round" stroke-width="2" stroke="#101c1d" fill="transparent" data-name="Path 5531"/><path d="M1510.998 693c0 3.293-3.293 3.293-3.293 6.585" stroke-linejoin="round" stroke-linecap="round" stroke-width="2" stroke="#101c1d" fill="transparent" data-name="Path 5532"/></g></svg>