<svg xmlns="http://www.w3.org/2000/svg" width="17.5" height="20" viewBox="1002 378 17.5 20"><g data-name="icon-back"><path d="M1012.625 389.875h-3.75a6.875 6.875 0 0 0-6.875 6.875c0 .69.56 1.25 1.25 1.25h15c.69 0 1.25-.56 1.25-1.25a6.875 6.875 0 0 0-6.875-6.875Zm-8.711 6.25a5.005 5.005 0 0 1 4.961-4.375h3.75a5.008 5.008 0 0 1 4.96 4.375h-13.671Zm6.836-8.125a5 5 0 1 0 0-10 5 5 0 0 0 0 10Zm0-8.125a3.129 3.129 0 0 1 3.125 3.125 3.129 3.129 0 0 1-3.125 3.125 3.129 3.129 0 0 1-3.125-3.125 3.129 3.129 0 0 1 3.125-3.125Z" fill="#222" fill-rule="evenodd" data-name="user"/></g></svg>