<svg width="24" height="24" viewBox="0 0 24 24" fill="none" xmlns="http://www.w3.org/2000/svg">
<g clip-path="url(#clip0_20_274)">
<path d="M15 22.7502H9.00002C7.86938 22.7767 6.7409 22.6386 5.65002 22.3402C5.48538 22.2898 5.3425 22.1854 5.24436 22.044C5.14623 21.9025 5.09856 21.7321 5.10902 21.5602C5.36002 18.5702 8.39002 16.2202 12 16.2202C15.61 16.2202 18.63 18.5602 18.89 21.5602C18.9061 21.733 18.8607 21.9058 18.762 22.0485C18.6632 22.1911 18.5174 22.2944 18.35 22.3402C17.2591 22.6386 16.1307 22.7767 15 22.7502ZM6.72002 21.0602C7.47211 21.197 8.23567 21.2606 9.00002 21.2502H15C15.7644 21.2606 16.5279 21.197 17.28 21.0602C16.75 19.1402 14.56 17.7202 12 17.7202C9.44002 17.7202 7.25002 19.1402 6.72002 21.0602Z" fill="#0D0D0D"/>
<path d="M15 2H9C4 2 2 4 2 9V15C2 18.78 3.14 20.85 5.86 21.62C6.08 19.02 8.75 16.97 12 16.97C15.25 16.97 17.92 19.02 18.14 21.62C20.86 20.85 22 18.78 22 15V9C22 4 20 2 15 2ZM12 14.17C11.291 14.171 10.5975 13.9617 10.0074 13.5686C9.41734 13.1755 8.95706 12.6162 8.68481 11.9615C8.41256 11.3068 8.34056 10.5861 8.47792 9.89051C8.61527 9.19489 8.95582 8.55563 9.45649 8.05356C9.95716 7.55149 10.5955 7.20917 11.2907 7.06987C11.9859 6.93057 12.7069 7.00056 13.3623 7.27098C14.0178 7.54141 14.5783 8.00013 14.973 8.58913C15.3678 9.17813 15.579 9.87095 15.58 10.58C15.5807 11.0508 15.4886 11.5171 15.309 11.9523C15.1295 12.3875 14.8659 12.7831 14.5335 13.1164C14.2011 13.4498 13.8062 13.7144 13.3715 13.8952C12.9368 14.076 12.4708 14.1693 12 14.17Z" stroke="#0D0D0D" stroke-width="1.5" stroke-linecap="round" stroke-linejoin="round"/>
<path d="M12 14.92C11.1426 14.921 10.3042 14.6677 9.59074 14.1922C8.8773 13.7167 8.32089 13.0403 7.99187 12.2486C7.66285 11.4568 7.576 10.5853 7.7423 9.74419C7.9086 8.90309 8.32057 8.13019 8.92613 7.52323C9.53169 6.91627 10.3036 6.50251 11.1444 6.33428C11.9851 6.16604 12.8568 6.25088 13.6493 6.57807C14.4418 6.90526 15.1195 7.46011 15.5966 8.17245C16.0738 8.88478 16.329 9.72262 16.33 10.58C16.33 11.7293 15.8741 12.8317 15.0624 13.6453C14.2506 14.4589 13.1493 14.9174 12 14.92ZM12 7.75C11.4388 7.74901 10.89 7.91457 10.4231 8.2257C9.95607 8.53683 9.59193 8.97955 9.37674 9.49778C9.16154 10.016 9.10498 10.5864 9.21421 11.1369C9.32344 11.6873 9.59355 12.1929 9.99033 12.5896C10.3871 12.9864 10.8927 13.2565 11.4431 13.3658C11.9935 13.475 12.564 13.4184 13.0822 13.2032C13.6004 12.988 14.0431 12.6239 14.3543 12.1569C14.6654 11.6899 14.831 11.1411 14.83 10.58C14.8289 9.82976 14.5304 9.11055 13.9999 8.58006C13.4694 8.04956 12.7502 7.75106 12 7.75Z" fill="#0D0D0D"/>
</g>
<defs>
<clipPath id="clip0_20_274">
<rect width="24" height="24" fill="white"/>
</clipPath>
</defs>
</svg>
