<svg width="27" height="30" viewBox="0 0 27 30" fill="currentColor" xmlns="http://www.w3.org/2000/svg">
<g clip-path="url(#clip0_80_173)">
<path d="M13.3809 8.26172C9.6543 8.26172 6.64844 11.2676 6.64844 14.9941C6.64844 18.7207 9.6543 21.7266 13.3809 21.7266C17.1074 21.7266 20.1133 18.7207 20.1133 14.9941C20.1133 11.2676 17.1074 8.26172 13.3809 8.26172ZM13.3809 19.3711C10.9727 19.3711 9.00391 17.4082 9.00391 14.9941C9.00391 12.5801 10.9668 10.6172 13.3809 10.6172C15.7949 10.6172 17.7578 12.5801 17.7578 14.9941C17.7578 17.4082 15.7891 19.3711 13.3809 19.3711ZM21.959 7.98633C21.959 8.85938 21.2559 9.55664 20.3887 9.55664C19.5156 9.55664 18.8184 8.85352 18.8184 7.98633C18.8184 7.11914 19.5215 6.41602 20.3887 6.41602C21.2559 6.41602 21.959 7.11914 21.959 7.98633ZM26.418 9.58008C26.3184 7.47656 25.8379 5.61328 24.2969 4.07812C22.7617 2.54297 20.8984 2.0625 18.7949 1.95703C16.627 1.83398 10.1289 1.83398 7.96094 1.95703C5.86328 2.05664 4 2.53711 2.45898 4.07227C0.917969 5.60742 0.443359 7.4707 0.337891 9.57422C0.214844 11.7422 0.214844 18.2402 0.337891 20.4082C0.4375 22.5117 0.917969 24.375 2.45898 25.9102C4 27.4453 5.85742 27.9258 7.96094 28.0312C10.1289 28.1543 16.627 28.1543 18.7949 28.0312C20.8984 27.9316 22.7617 27.4512 24.2969 25.9102C25.832 24.375 26.3125 22.5117 26.418 20.4082C26.541 18.2402 26.541 11.748 26.418 9.58008ZM23.6172 22.7344C23.1602 23.8828 22.2754 24.7676 21.1211 25.2305C19.3926 25.916 15.291 25.7578 13.3809 25.7578C11.4707 25.7578 7.36328 25.9102 5.64062 25.2305C4.49219 24.7734 3.60742 23.8887 3.14453 22.7344C2.45898 21.0059 2.61719 16.9043 2.61719 14.9941C2.61719 13.084 2.46484 8.97656 3.14453 7.25391C3.60156 6.10547 4.48633 5.2207 5.64062 4.75781C7.36914 4.07227 11.4707 4.23047 13.3809 4.23047C15.291 4.23047 19.3984 4.07812 21.1211 4.75781C22.2695 5.21484 23.1543 6.09961 23.6172 7.25391C24.3027 8.98242 24.1445 13.084 24.1445 14.9941C24.1445 16.9043 24.3027 21.0117 23.6172 22.7344Z"/>
</g>
<defs>
<clipPath id="clip0_80_173">
<rect width="26.25" height="30" fill="white" transform="translate(0.25)"/>
</clipPath>
</defs>
</svg>
