<svg width="24" height="24" viewBox="0 0 24 24" fill="currentColor" xmlns="http://www.w3.org/2000/svg">
<path d="M14.79 19.42C14.6622 19.4186 14.5369 19.3849 14.4257 19.3219C14.3145 19.2589 14.221 19.1688 14.1541 19.0599C14.0872 18.9511 14.049 18.827 14.043 18.6994C14.037 18.5717 14.0635 18.4446 14.12 18.33L16.26 14.06C16.3237 13.9371 16.4198 13.834 16.5379 13.7617C16.656 13.6895 16.7916 13.6508 16.93 13.65C17.0697 13.6508 17.2064 13.6905 17.3247 13.7647C17.4431 13.8389 17.5384 13.9446 17.6 14.07L19.744 18.34C19.8248 18.518 19.8334 18.7204 19.7679 18.9046C19.7023 19.0888 19.5678 19.2404 19.3927 19.3273C19.2176 19.4142 19.0155 19.4297 18.8292 19.3705C18.6429 19.3113 18.4868 19.182 18.394 19.01L16.93 16.08L15.47 19.01C15.4038 19.133 15.3058 19.236 15.1861 19.3081C15.0665 19.3803 14.9297 19.4189 14.79 19.42Z" />
<path d="M18.68 18.66H15.16C14.9615 18.6587 14.7715 18.5793 14.6311 18.4389C14.4907 18.2985 14.4113 18.1085 14.41 17.91C14.4113 17.7115 14.4907 17.5215 14.6311 17.3811C14.7715 17.2408 14.9615 17.1613 15.16 17.16H18.68C18.8789 17.16 19.0697 17.239 19.2103 17.3797C19.351 17.5203 19.43 17.7111 19.43 17.91C19.43 18.1089 19.351 18.2997 19.2103 18.4403C19.0697 18.581 18.8789 18.66 18.68 18.66Z" />
<path d="M16.92 22.75C15.767 22.75 14.6398 22.4081 13.6811 21.7675C12.7223 21.1269 11.9751 20.2163 11.5338 19.151C11.0926 18.0858 10.9771 16.9135 11.2021 15.7826C11.427 14.6517 11.9823 13.6129 12.7976 12.7976C13.6129 11.9822 14.6517 11.427 15.7827 11.202C16.9136 10.9771 18.0858 11.0925 19.1511 11.5338C20.2164 11.975 21.1269 12.7223 21.7675 13.681C22.4081 14.6398 22.75 15.7669 22.75 16.92C22.7484 18.4657 22.1337 19.9477 21.0407 21.0407C19.9477 22.1337 18.4658 22.7484 16.92 22.75ZM16.92 12.6C16.0636 12.6 15.2265 12.8539 14.5144 13.3297C13.8023 13.8055 13.2474 14.4818 12.9196 15.273C12.5919 16.0642 12.5062 16.9348 12.6732 17.7747C12.8403 18.6147 13.2527 19.3862 13.8583 19.9918C14.4638 20.5973 15.2354 21.0097 16.0753 21.1768C16.9152 21.3439 17.7858 21.2581 18.577 20.9304C19.3683 20.6027 20.0445 20.0477 20.5203 19.3356C20.9961 18.6236 21.25 17.7864 21.25 16.93C21.2495 15.7818 20.7931 14.6807 19.9812 13.8688C19.1693 13.0569 18.0683 12.6005 16.92 12.6Z" />
<path d="M4.86 12.7C3.90386 12.7539 2.96533 12.4267 2.25 11.79C1.89806 11.406 1.62792 10.9545 1.456 10.4628C1.28409 9.97111 1.214 9.4496 1.25 8.92999V5.00999C1.19075 4.50058 1.24751 3.98438 1.41603 3.50002C1.58454 3.01566 1.86044 2.57569 2.22307 2.21306C2.5857 1.85043 3.02567 1.57453 3.51003 1.40602C3.99439 1.2375 4.51059 1.18074 5.02 1.23999H8.94C9.45973 1.20251 9.98164 1.27191 10.4735 1.4439C10.9654 1.61588 11.4168 1.88682 11.8 2.23999C12.1327 2.61918 12.3849 3.062 12.5413 3.5416C12.6978 4.02119 12.7551 4.52755 12.71 5.02999V8.92999C12.7582 9.44032 12.7005 9.9551 12.5405 10.4421C12.3804 10.9291 12.1215 11.3777 11.78 11.76C11.3934 12.1011 10.9412 12.3596 10.4511 12.5195C9.96099 12.6795 9.44335 12.7375 8.93 12.69H5.03C4.97368 12.6977 4.91684 12.7011 4.86 12.7ZM5.02 2.74999C3.41 2.74999 2.75 3.40999 2.75 5.01999V8.93999C2.71865 9.25761 2.7502 9.5783 2.84286 9.88373C2.93551 10.1891 3.08746 10.4733 3.29 10.72C3.7714 11.0975 4.38224 11.27 4.99 11.2H8.93C9.24349 11.2401 9.56185 11.2164 9.86599 11.1305C10.1701 11.0446 10.4538 10.8982 10.7 10.7C10.8942 10.4557 11.0377 10.175 11.1218 9.8745C11.206 9.57396 11.2292 9.25962 11.19 8.94999V5.00999C11.2277 4.70579 11.2047 4.39715 11.1223 4.10191C11.0399 3.80667 10.8998 3.53071 10.71 3.28999C10.4633 3.08745 10.1792 2.9355 9.87373 2.84285C9.56831 2.75019 9.24762 2.71864 8.93 2.74999H5.02Z" />
<path d="M9 6.60001H4.94C4.74149 6.5987 4.55149 6.51926 4.41112 6.37889C4.27075 6.23852 4.19131 6.04851 4.19 5.85001C4.19131 5.6515 4.27075 5.46149 4.41112 5.32112C4.55149 5.18075 4.74149 5.10132 4.94 5.10001H9C9.19891 5.10001 9.38968 5.17902 9.53033 5.31968C9.67098 5.46033 9.75 5.65109 9.75 5.85001C9.75 6.04892 9.67098 6.23968 9.53033 6.38034C9.38968 6.52099 9.19891 6.60001 9 6.60001Z" />
<path d="M6.97998 6.60001C6.78147 6.5987 6.59147 6.51926 6.4511 6.3789C6.31073 6.23853 6.23129 6.04852 6.22998 5.85001V5.17001C6.23129 4.97151 6.31073 4.7815 6.4511 4.64113C6.59147 4.50076 6.78147 4.42132 6.97998 4.42001C7.17849 4.42132 7.36849 4.50076 7.50886 4.64113C7.64923 4.7815 7.72867 4.97151 7.72998 5.17001V5.85001C7.72867 6.04852 7.64923 6.23853 7.50886 6.3789C7.36849 6.51926 7.17849 6.5987 6.97998 6.60001Z" />
<path d="M4.94 9.76C4.74109 9.76 4.55032 9.68098 4.40967 9.54033C4.26902 9.39967 4.19 9.20891 4.19 9.01C4.19 8.81108 4.26902 8.62032 4.40967 8.47967C4.55032 8.33901 4.74109 8.26 4.94 8.26C5.24995 8.25222 5.55533 8.18344 5.83869 8.05759C6.12205 7.93175 6.37784 7.7513 6.59143 7.52656C6.80502 7.30182 6.97224 7.0372 7.08353 6.74781C7.19481 6.45842 7.24798 6.14994 7.24 5.84C7.24 5.64108 7.31902 5.45032 7.45967 5.30967C7.60032 5.16901 7.79109 5.09 7.99 5.09C8.18891 5.09 8.37968 5.16901 8.52033 5.30967C8.66098 5.45032 8.74 5.64108 8.74 5.84C8.75498 6.86346 8.36325 7.85105 7.65081 8.58598C6.93837 9.32092 5.96344 9.74315 4.94 9.76Z" />
<path d="M9.00998 9.76001C8.5287 9.74844 8.05674 9.62494 7.63148 9.39929C7.20623 9.17364 6.83937 8.85206 6.55998 8.46001C6.44063 8.30088 6.38938 8.10086 6.41751 7.90395C6.44564 7.70703 6.55085 7.52936 6.70998 7.41001C6.86911 7.29067 7.06913 7.23942 7.26604 7.26755C7.46296 7.29568 7.64063 7.40088 7.75998 7.56001C7.89739 7.76872 8.08233 7.94189 8.29961 8.0653C8.51689 8.18872 8.76034 8.25887 9.00998 8.27001C9.20848 8.27132 9.39849 8.35076 9.53886 8.49113C9.67923 8.6315 9.75867 8.82151 9.75998 9.02001C9.75813 9.21743 9.6782 9.4061 9.53766 9.54476C9.39712 9.68343 9.20741 9.76081 9.00998 9.76001Z" />
<path d="M9 22.75C6.94563 22.7466 4.97638 21.9289 3.52372 20.4763C2.07106 19.0236 1.25344 17.0544 1.25 15C1.25131 14.8015 1.33075 14.6115 1.47112 14.4711C1.61149 14.3307 1.80149 14.2513 2 14.25C2.19851 14.2513 2.38851 14.3307 2.52888 14.4711C2.66925 14.6115 2.74869 14.8015 2.75 15C2.75119 16.4108 3.22884 17.7799 4.10552 18.8853C4.9822 19.9907 6.20652 20.7675 7.58 21.09L7.31 20.64C7.25944 20.5553 7.22606 20.4615 7.21176 20.3639C7.19747 20.2663 7.20254 20.1668 7.22668 20.0712C7.25082 19.9755 7.29357 19.8856 7.35248 19.8064C7.41138 19.7273 7.4853 19.6606 7.57 19.61C7.6547 19.5594 7.74853 19.5261 7.84614 19.5118C7.94374 19.4975 8.0432 19.5025 8.13885 19.5267C8.23449 19.5508 8.32444 19.5936 8.40357 19.6525C8.48269 19.7114 8.54944 19.7853 8.6 19.87L9.65 21.62C9.71784 21.733 9.75451 21.8619 9.75627 21.9936C9.75803 22.1254 9.72481 22.2553 9.66 22.37C9.59157 22.4844 9.49499 22.5794 9.37946 22.6459C9.26393 22.7124 9.1333 22.7483 9 22.75Z" />
<path d="M22 9.75001C21.8015 9.7487 21.6115 9.66926 21.4711 9.52889C21.3308 9.38853 21.2513 9.19852 21.25 9.00001C21.2488 7.58919 20.7712 6.22011 19.8945 5.11473C19.0178 4.00935 17.7935 3.23247 16.42 2.91001L16.69 3.36001C16.7406 3.44471 16.774 3.53855 16.7883 3.63615C16.8025 3.73375 16.7975 3.83322 16.7733 3.92886C16.7492 4.0245 16.7064 4.11446 16.6475 4.19358C16.5886 4.27271 16.5147 4.33945 16.43 4.39001C16.3453 4.44057 16.2515 4.47395 16.1539 4.48825C16.0563 4.50254 15.9568 4.49748 15.8612 4.47333C15.7655 4.44919 15.6756 4.40644 15.5964 4.34754C15.5173 4.28863 15.4506 4.21471 15.4 4.13001L14.35 2.38001C14.2828 2.2667 14.2468 2.13758 14.2458 2.00582C14.2447 1.87407 14.2786 1.74439 14.344 1.63001C14.4075 1.51434 14.501 1.41796 14.6147 1.35106C14.7284 1.28417 14.8581 1.24926 14.99 1.25001C17.0451 1.25239 19.0154 2.06954 20.4689 3.52232C21.9224 4.9751 22.7406 6.94495 22.744 9.00001C22.7452 9.09833 22.7268 9.1959 22.6899 9.28704C22.653 9.37818 22.5984 9.46107 22.5291 9.53088C22.4599 9.60068 22.3774 9.65601 22.2866 9.69363C22.1958 9.73125 22.0983 9.75042 22 9.75001Z" />
</svg>
