<svg width="57" height="24" viewBox="0 0 57 24" fill="currentColor" xmlns="http://www.w3.org/2000/svg">
<path d="M16.66 10.58C15.19 10.67 14.06 10.1 12.74 9.39C10.76 8.34 8.38 7.85 6.12 7.59C4.1 7.36 2.42 8.59 1.03 10.06C-0.450002 11.63 -0.330002 12.23 1.43 13.34C3.88 14.88 6.56 14.59 9.18 14.24C10.53 14.06 11.79 13.15 13.15 12.96C14.98 12.7 16.86 12.82 18.71 12.77C18.67 13.06 18.72 13.42 18.57 13.64C17.83 14.7 16.9 15.65 16.29 16.78C15.24 18.73 15.76 19.48 17.96 19.38C21.24 19.23 23.9 17.82 25.48 14.93C26.25 13.51 27.06 13.09 28.56 13.44C29.3 13.61 30.11 13.46 30.89 13.5C31.12 13.51 31.33 13.68 31.55 13.77C31.43 13.97 31.35 14.24 31.18 14.36C29.14 15.83 27.92 17.84 27.22 20.21C27.09 20.64 26.94 21.08 26.89 21.52C26.72 23.07 27.08 23.38 28.62 23.14C33.57 22.37 36.93 19.47 39.34 15.24C39.96 14.15 42.78 13.51 43.72 14.25C43.86 14.36 43.81 14.94 43.65 15.16C43 16.04 42.08 16.78 41.63 17.74C41.26 18.54 41.22 19.62 41.41 20.49C41.47 20.77 42.8 20.92 43.52 20.85C46.85 20.51 49.39 18.94 50.88 15.85C51.68 14.19 52.23 13.91 54.06 14.15C54.7 14.23 55.37 14.33 55.99 14.21C56.32 14.14 56.72 13.65 56.79 13.29C56.83 13.09 56.29 12.6 55.96 12.54C54.81 12.34 53.64 12.15 52.48 12.19C51.1 12.23 50.56 11.55 50.15 10.36C48.99 6.99 46.7 4.88 43.07 4.34C41.22 4.06 40.71 4.5 41.3 6.29C41.78 7.76 42.46 9.17 43.18 10.54C43.59 11.33 43.7 11.64 42.63 11.7C40.75 11.8 39.36 11.45 38.36 9.51C37.33 7.52 35.82 5.76 34.42 3.98C32.79 1.91 30.51 0.830003 28.03 0.110003C26.6 -0.299997 25.92 0.420003 26.28 2.03C26.97 5.07 28.29 7.77 30.57 9.96C30.78 10.16 30.91 10.46 31.07 10.72C30.78 10.82 30.51 10.97 30.21 11C28.24 11.19 26.6 10.76 25.26 9.04C23.28 6.5 20.86 4.41 17.58 3.7C16.96 3.57 16 3.59 15.67 3.96C15.31 4.36 15.23 5.42 15.52 5.9C16.2 7.03 17.17 7.98 18.04 8.99C18.41 9.42 18.83 9.81 19.22 10.22C18.63 10.34 18.04 10.48 17.44 10.58C17.19 10.62 16.92 10.58 16.66 10.58Z"/>
</svg>
