<?xml version="1.0" encoding="utf-8"?>
<!-- Generator: Adobe Illustrator 27.4.0, SVG Export Plug-In . SVG Version: 6.00 Build 0)  -->
<svg version="1.1" id="Layer_1" xmlns="http://www.w3.org/2000/svg" xmlns:xlink="http://www.w3.org/1999/xlink" x="0px" y="0px"
	 viewBox="0 0 137 32" style="enable-background:new 0 0 137 32;" xml:space="preserve">
<style type="text/css">
	.st0{fill:#800000;}
	.st1{fill:#222222;}
	.st2{fill:url(#SVGID_1_);}
	.st3{fill:#B98C6D;}
	.st4{fill:#130D56;}
	.st5{fill:#F84500;}
	.st6{fill:#FF5B00;}
	.st7{fill:#FF8000;}
	.st8{fill:#3944B3;}
	.st9{fill-rule:evenodd;clip-rule:evenodd;fill:url(#SVGID_00000142177894059401075970000003504906147550140305_);}
	.st10{fill:url(#SVGID_00000030473803296074187630000015194281821439448458_);}
	.st11{fill:url(#SVGID_00000126316491755416414660000010769843726027521679_);}
	.st12{fill:url(#SVGID_00000112608818818823788780000012411092416347062199_);}
	.st13{fill:url(#SVGID_00000063609270841523582160000002792884978308044216_);}
	.st14{fill:#00417F;}
	.st15{fill:#46B7C2;}
	.st16{fill:#0B9ACF;}
	.st17{fill:#0080BC;}
</style>
<g>
	<g>
		<path class="st1" d="M10.74,7.67c1.59-1.24,3.59-1.98,5.76-1.98s4.17,0.74,5.76,1.98c0.65,0,1.29,0,1.94,0
			c-1.95-2.02-4.68-3.28-7.7-3.28s-5.75,1.26-7.7,3.28C9.45,7.67,10.1,7.67,10.74,7.67z"/>
		<path class="st1" d="M13.48,24c-3.71-1.26-6.38-4.77-6.38-8.9c0-0.63,0.06-1.24,0.18-1.84c-0.31-0.53-0.61-1.06-0.92-1.58
			C6,12.75,5.8,13.9,5.8,15.1c0,5.18,3.7,9.51,8.6,10.49C14.1,25.06,13.79,24.53,13.48,24z"/>
		<path class="st1" d="M25.72,13.26c0.12,0.6,0.18,1.21,0.18,1.84c0,4.13-2.68,7.64-6.38,8.9c-0.31,0.53-0.61,1.06-0.92,1.59
			c4.9-0.98,8.6-5.31,8.6-10.49c0-1.2-0.2-2.35-0.57-3.42C26.33,12.2,26.03,12.73,25.72,13.26z"/>
		<path class="st1" d="M19.89,8.41c-0.87,1.51-1.75,3.03-2.62,4.54l1.54,2.67l2.6-4.5h1.54L16.5,22.28l-2.05-3.56h-3.08
			c1.71,2.96,3.42,5.92,5.13,8.89c3.69-6.4,7.39-12.8,11.08-19.2C25.02,8.41,22.46,8.41,19.89,8.41z"/>
		<linearGradient id="SVGID_1_" gradientUnits="userSpaceOnUse" x1="5.4188" y1="14.0088" x2="18.0418" y2="14.0088">
			<stop  offset="0" style="stop-color:#B98C6D"/>
			<stop  offset="1" style="stop-color:#D7B697"/>
		</linearGradient>
		<path class="st2" d="M16.5,19.61l1.54-2.67l-1.23-2.12c-1.54,0-3.08,0-4.62,0l-2.14-3.71h1.54l1.42,2.46h3.08
			c-1.13-1.96-1.86-3.21-2.99-5.17c-2.57,0-5.13,0-7.69,0c1.75,3.03,3.49,6.05,5.24,9.08c1.54,0,3.08,0,4.62,0L16.5,19.61z"/>
	</g>
	<g>
		<polygon class="st1" points="113.67,19.43 99.32,19.43 99.32,8.21 113.67,8.21 113.67,10.7 102.25,10.7 102.25,12.58 
			113.67,12.58 113.67,15.07 102.25,15.07 102.25,16.94 113.67,16.94 		"/>
		<polygon class="st3" points="56.98,19.44 56.98,15.69 56.98,11.95 56.98,8.2 59.91,8.2 59.91,11.95 59.91,15.69 59.91,19.44 		"/>
		<path class="st1" d="M81.85,17h10.32c0.53,0,0.96-0.37,0.96-0.82v-0.27c0-0.45-0.43-0.82-0.96-0.82h-3.61h-3.61
			c-2.15,0-3.9-1.48-3.9-3.31v-0.27c0-1.83,1.74-3.31,3.9-3.31h10.32v2.49H84.94c-0.53,0-0.96,0.37-0.96,0.82v0.27
			c0,0.45,0.43,0.82,0.96,0.82h3.61h3.61c2.15,0,3.9,1.48,3.9,3.31v0.27c0,1.64-1.4,3-3.24,3.26H81.85V17z"/>
		<polygon class="st3" points="54.35,8.21 47.64,19.43 43.86,19.43 37.15,8.21 40.44,8.21 45.66,16.94 45.84,16.94 51.06,8.21 		"/>
		<path class="st3" d="M64.25,19.5v-5.77h10.73c0.55,0,0.99-0.38,0.99-0.84v-1.4c0-0.46-0.44-0.84-0.99-0.84H64.26V8.14h10.72
			c2.17,0,3.92,1.49,3.92,3.33v1.4c0,1.84-1.76,3.33-3.92,3.33h-7.8v3.28H64.25z"/>
		<path class="st1" d="M127.11,19.5l-2.02-3.28h-5.24v3.28h-2.93v-5.77h10.73c0.55,0,0.99-0.38,0.99-0.84v-1.4
			c0-0.46-0.44-0.84-0.99-0.84h-10.72V8.14h10.72c2.17,0,3.92,1.49,3.92,3.33v1.4c0,1.63-1.38,2.99-3.21,3.28l2.05,3.34H127.11z"/>
		<g>
			<path class="st1" d="M37.51,23.68l0.52,1.57h0.02l0.52-1.57h0.4l-0.7,1.99h-0.44l-0.7-1.99H37.51z"/>
			<path class="st1" d="M40.68,23.68v1.99h-0.36v-1.99H40.68z"/>
			<path class="st1" d="M42.17,25.67v-1.99h0.75c0.15,0,0.28,0.03,0.39,0.09c0.1,0.06,0.18,0.14,0.24,0.23
				c0.05,0.1,0.08,0.21,0.08,0.34c0,0.13-0.03,0.24-0.08,0.34c-0.05,0.1-0.13,0.18-0.24,0.23c-0.1,0.06-0.23,0.09-0.39,0.09h-0.49
				v-0.3h0.45c0.09,0,0.16-0.02,0.22-0.05c0.06-0.03,0.1-0.07,0.13-0.13s0.04-0.12,0.04-0.19c0-0.07-0.01-0.13-0.04-0.19
				c-0.03-0.05-0.07-0.1-0.13-0.13c-0.06-0.03-0.13-0.05-0.22-0.05h-0.33v1.69H42.17z"/>
			<path class="st1" d="M48.5,24.35h-0.36c-0.01-0.06-0.03-0.11-0.06-0.16c-0.03-0.05-0.06-0.09-0.1-0.12
				c-0.04-0.03-0.09-0.06-0.14-0.07c-0.05-0.02-0.11-0.02-0.17-0.02c-0.11,0-0.2,0.03-0.29,0.08c-0.08,0.05-0.15,0.13-0.2,0.24
				c-0.05,0.1-0.07,0.23-0.07,0.38c0,0.15,0.02,0.28,0.07,0.38c0.05,0.1,0.11,0.18,0.2,0.24c0.08,0.05,0.18,0.08,0.29,0.08
				c0.06,0,0.12-0.01,0.17-0.02c0.05-0.02,0.1-0.04,0.14-0.07c0.04-0.03,0.08-0.07,0.11-0.11c0.03-0.05,0.05-0.1,0.06-0.16l0.36,0
				c-0.01,0.09-0.04,0.18-0.09,0.27c-0.04,0.08-0.1,0.16-0.18,0.22c-0.07,0.06-0.16,0.11-0.25,0.15c-0.1,0.04-0.2,0.05-0.32,0.05
				c-0.17,0-0.33-0.04-0.47-0.12c-0.14-0.08-0.25-0.2-0.32-0.35c-0.08-0.15-0.12-0.34-0.12-0.55c0-0.21,0.04-0.4,0.12-0.55
				c0.08-0.15,0.19-0.27,0.33-0.35c0.14-0.08,0.29-0.12,0.47-0.12c0.11,0,0.21,0.02,0.31,0.05c0.1,0.03,0.18,0.08,0.25,0.14
				c0.07,0.06,0.14,0.13,0.18,0.22C48.45,24.14,48.48,24.24,48.5,24.35z"/>
			<path class="st1" d="M51.7,24.67c0,0.21-0.04,0.4-0.12,0.55c-0.08,0.15-0.19,0.27-0.33,0.35c-0.14,0.08-0.29,0.12-0.47,0.12
				c-0.17,0-0.33-0.04-0.47-0.12c-0.14-0.08-0.25-0.2-0.33-0.35c-0.08-0.15-0.12-0.34-0.12-0.55c0-0.21,0.04-0.4,0.12-0.55
				c0.08-0.15,0.19-0.27,0.33-0.35c0.14-0.08,0.29-0.12,0.47-0.12c0.17,0,0.33,0.04,0.47,0.12c0.14,0.08,0.25,0.2,0.33,0.35
				C51.66,24.28,51.7,24.46,51.7,24.67z M51.34,24.67c0-0.15-0.02-0.28-0.07-0.38c-0.05-0.1-0.11-0.18-0.19-0.24
				c-0.08-0.05-0.18-0.08-0.29-0.08c-0.11,0-0.2,0.03-0.29,0.08c-0.08,0.05-0.15,0.13-0.19,0.24c-0.05,0.1-0.07,0.23-0.07,0.38
				c0,0.15,0.02,0.28,0.07,0.38c0.05,0.1,0.11,0.18,0.19,0.24c0.08,0.05,0.18,0.08,0.29,0.08c0.11,0,0.2-0.03,0.29-0.08
				c0.08-0.05,0.15-0.13,0.19-0.24C51.31,24.95,51.34,24.83,51.34,24.67z"/>
			<path class="st1" d="M54.77,23.68v1.99h-0.32l-0.94-1.36H53.5v1.36h-0.36v-1.99h0.32l0.94,1.36h0.02v-1.36H54.77z"/>
			<path class="st1" d="M57.96,24.35H57.6c-0.01-0.06-0.03-0.11-0.06-0.16c-0.03-0.05-0.06-0.09-0.1-0.12
				c-0.04-0.03-0.09-0.06-0.14-0.07c-0.05-0.02-0.11-0.02-0.17-0.02c-0.11,0-0.2,0.03-0.29,0.08c-0.08,0.05-0.15,0.13-0.2,0.24
				c-0.05,0.1-0.07,0.23-0.07,0.38c0,0.15,0.02,0.28,0.07,0.38c0.05,0.1,0.11,0.18,0.2,0.24c0.08,0.05,0.18,0.08,0.29,0.08
				c0.06,0,0.12-0.01,0.17-0.02c0.05-0.02,0.1-0.04,0.14-0.07c0.04-0.03,0.08-0.07,0.11-0.11c0.03-0.05,0.05-0.1,0.06-0.16l0.36,0
				c-0.01,0.09-0.04,0.18-0.09,0.27c-0.04,0.08-0.1,0.16-0.18,0.22c-0.07,0.06-0.16,0.11-0.25,0.15c-0.1,0.04-0.2,0.05-0.32,0.05
				c-0.17,0-0.33-0.04-0.47-0.12c-0.14-0.08-0.25-0.2-0.32-0.35c-0.08-0.15-0.12-0.34-0.12-0.55c0-0.21,0.04-0.4,0.12-0.55
				c0.08-0.15,0.19-0.27,0.33-0.35c0.14-0.08,0.29-0.12,0.47-0.12c0.11,0,0.21,0.02,0.31,0.05c0.1,0.03,0.18,0.08,0.25,0.14
				c0.07,0.06,0.14,0.13,0.18,0.22C57.91,24.14,57.94,24.24,57.96,24.35z"/>
			<path class="st1" d="M59.75,23.68v1.99h-0.36v-1.99H59.75z"/>
			<path class="st1" d="M61.23,25.67v-1.99h1.29v0.3h-0.93v0.54h0.87v0.3h-0.87v0.54h0.94v0.3H61.23z"/>
			<path class="st1" d="M63.99,25.67v-1.99h0.75c0.15,0,0.28,0.03,0.39,0.08c0.1,0.05,0.18,0.13,0.24,0.22
				c0.05,0.1,0.08,0.21,0.08,0.33c0,0.13-0.03,0.24-0.08,0.33c-0.05,0.09-0.13,0.17-0.24,0.22c-0.1,0.05-0.23,0.08-0.39,0.08H64.2
				v-0.3h0.48c0.09,0,0.16-0.01,0.22-0.04c0.06-0.02,0.1-0.06,0.13-0.11c0.03-0.05,0.04-0.11,0.04-0.18c0-0.07-0.01-0.13-0.04-0.18
				c-0.03-0.05-0.07-0.09-0.13-0.11s-0.13-0.04-0.22-0.04h-0.33v1.69H63.99z M65.02,24.77l0.49,0.9h-0.4l-0.48-0.9H65.02z"/>
			<path class="st1" d="M68.19,24.31c-0.02-0.05-0.04-0.1-0.07-0.14s-0.06-0.08-0.1-0.11c-0.04-0.03-0.08-0.05-0.13-0.07
				c-0.05-0.02-0.11-0.02-0.17-0.02c-0.11,0-0.2,0.03-0.29,0.08c-0.08,0.05-0.15,0.13-0.2,0.24c-0.05,0.1-0.07,0.23-0.07,0.38
				c0,0.15,0.02,0.28,0.07,0.38c0.05,0.1,0.11,0.18,0.2,0.24c0.08,0.05,0.18,0.08,0.29,0.08c0.1,0,0.19-0.02,0.26-0.06
				c0.07-0.04,0.13-0.09,0.17-0.17c0.04-0.07,0.06-0.16,0.06-0.25l0.08,0.01h-0.54v-0.28h0.81v0.24c0,0.17-0.04,0.32-0.11,0.44
				c-0.07,0.12-0.17,0.22-0.3,0.29c-0.13,0.07-0.27,0.1-0.44,0.1c-0.18,0-0.34-0.04-0.48-0.12c-0.14-0.08-0.25-0.2-0.32-0.35
				c-0.08-0.15-0.12-0.33-0.12-0.54c0-0.16,0.02-0.3,0.07-0.43c0.05-0.13,0.11-0.23,0.19-0.32c0.08-0.09,0.18-0.16,0.29-0.2
				c0.11-0.05,0.23-0.07,0.36-0.07c0.11,0,0.21,0.02,0.31,0.05c0.1,0.03,0.18,0.08,0.25,0.14c0.07,0.06,0.14,0.13,0.18,0.21
				c0.05,0.08,0.08,0.17,0.09,0.27H68.19z"/>
			<path class="st1" d="M70.02,25.67v-1.99h1.29v0.3h-0.93v0.54h0.87v0.3h-0.87v0.54h0.94v0.3H70.02z"/>
			<path class="st1" d="M75.63,24.23c-0.01-0.08-0.05-0.15-0.11-0.2c-0.07-0.05-0.15-0.07-0.26-0.07c-0.08,0-0.14,0.01-0.19,0.03
				c-0.05,0.02-0.09,0.05-0.12,0.09c-0.03,0.04-0.04,0.08-0.04,0.13c0,0.04,0.01,0.08,0.03,0.11c0.02,0.03,0.05,0.06,0.08,0.08
				c0.03,0.02,0.07,0.04,0.11,0.05c0.04,0.01,0.08,0.03,0.12,0.04l0.19,0.05c0.08,0.02,0.15,0.04,0.22,0.07
				c0.07,0.03,0.13,0.07,0.19,0.11c0.06,0.05,0.1,0.1,0.13,0.16c0.03,0.06,0.05,0.14,0.05,0.23c0,0.12-0.03,0.22-0.09,0.31
				c-0.06,0.09-0.15,0.16-0.26,0.21c-0.11,0.05-0.25,0.07-0.41,0.07c-0.15,0-0.29-0.02-0.4-0.07c-0.11-0.05-0.2-0.12-0.27-0.21
				c-0.06-0.09-0.1-0.2-0.1-0.34h0.35c0.01,0.07,0.03,0.13,0.06,0.17c0.04,0.05,0.09,0.08,0.15,0.1c0.06,0.02,0.13,0.03,0.2,0.03
				c0.08,0,0.15-0.01,0.21-0.04c0.06-0.02,0.11-0.06,0.14-0.1c0.03-0.04,0.05-0.09,0.05-0.15c0-0.05-0.02-0.09-0.05-0.13
				c-0.03-0.03-0.07-0.06-0.12-0.09c-0.05-0.02-0.12-0.04-0.19-0.06l-0.23-0.06c-0.16-0.04-0.29-0.11-0.39-0.19
				c-0.09-0.09-0.14-0.2-0.14-0.34c0-0.12,0.03-0.22,0.1-0.31c0.06-0.09,0.15-0.16,0.26-0.21c0.11-0.05,0.23-0.07,0.37-0.07
				c0.14,0,0.27,0.02,0.37,0.07c0.11,0.05,0.19,0.12,0.25,0.2c0.06,0.09,0.09,0.19,0.09,0.3H75.63z"/>
			<path class="st1" d="M77.42,25.67v-1.99h1.29v0.3h-0.93v0.54h0.87v0.3h-0.87v0.54h0.94v0.3H77.42z"/>
			<path class="st1" d="M80.18,25.67v-1.99h0.75c0.15,0,0.28,0.03,0.39,0.08c0.1,0.05,0.18,0.13,0.24,0.22
				c0.05,0.1,0.08,0.21,0.08,0.33c0,0.13-0.03,0.24-0.08,0.33c-0.05,0.09-0.13,0.17-0.24,0.22c-0.1,0.05-0.23,0.08-0.39,0.08h-0.53
				v-0.3h0.48c0.09,0,0.16-0.01,0.22-0.04c0.06-0.02,0.1-0.06,0.13-0.11c0.03-0.05,0.04-0.11,0.04-0.18c0-0.07-0.01-0.13-0.04-0.18
				c-0.03-0.05-0.07-0.09-0.13-0.11s-0.13-0.04-0.22-0.04h-0.33v1.69H80.18z M81.21,24.77l0.49,0.9h-0.4l-0.48-0.9H81.21z"/>
			<path class="st1" d="M83.27,23.68l0.52,1.57h0.02l0.52-1.57h0.4l-0.7,1.99h-0.44l-0.7-1.99H83.27z"/>
			<path class="st1" d="M86.43,23.68v1.99h-0.36v-1.99H86.43z"/>
			<path class="st1" d="M89.62,24.35h-0.36c-0.01-0.06-0.03-0.11-0.06-0.16c-0.03-0.05-0.06-0.09-0.1-0.12
				c-0.04-0.03-0.09-0.06-0.14-0.07c-0.05-0.02-0.11-0.02-0.17-0.02c-0.11,0-0.2,0.03-0.29,0.08c-0.08,0.05-0.15,0.13-0.2,0.24
				c-0.05,0.1-0.07,0.23-0.07,0.38c0,0.15,0.02,0.28,0.07,0.38c0.05,0.1,0.11,0.18,0.2,0.24c0.08,0.05,0.18,0.08,0.29,0.08
				c0.06,0,0.12-0.01,0.17-0.02c0.05-0.02,0.1-0.04,0.14-0.07c0.04-0.03,0.08-0.07,0.11-0.11c0.03-0.05,0.05-0.1,0.06-0.16l0.36,0
				c-0.01,0.09-0.04,0.18-0.09,0.27c-0.04,0.08-0.1,0.16-0.18,0.22c-0.07,0.06-0.16,0.11-0.25,0.15c-0.1,0.04-0.2,0.05-0.32,0.05
				c-0.17,0-0.33-0.04-0.47-0.12c-0.14-0.08-0.25-0.2-0.32-0.35c-0.08-0.15-0.12-0.34-0.12-0.55c0-0.21,0.04-0.4,0.12-0.55
				s0.19-0.27,0.33-0.35c0.14-0.08,0.29-0.12,0.47-0.12c0.11,0,0.21,0.02,0.31,0.05c0.1,0.03,0.18,0.08,0.25,0.14
				c0.07,0.06,0.14,0.13,0.18,0.22C89.58,24.14,89.61,24.24,89.62,24.35z"/>
			<path class="st1" d="M91.05,25.67v-1.99h1.29v0.3h-0.93v0.54h0.87v0.3h-0.87v0.54h0.94v0.3H91.05z"/>
			<path class="st1" d="M94.89,24.23c-0.01-0.08-0.05-0.15-0.11-0.2c-0.07-0.05-0.15-0.07-0.26-0.07c-0.08,0-0.14,0.01-0.19,0.03
				c-0.05,0.02-0.09,0.05-0.12,0.09c-0.03,0.04-0.04,0.08-0.04,0.13c0,0.04,0.01,0.08,0.03,0.11c0.02,0.03,0.05,0.06,0.08,0.08
				c0.03,0.02,0.07,0.04,0.11,0.05c0.04,0.01,0.08,0.03,0.12,0.04l0.19,0.05c0.08,0.02,0.15,0.04,0.22,0.07
				c0.07,0.03,0.13,0.07,0.19,0.11c0.06,0.05,0.1,0.1,0.13,0.16c0.03,0.06,0.05,0.14,0.05,0.23c0,0.12-0.03,0.22-0.09,0.31
				c-0.06,0.09-0.15,0.16-0.26,0.21c-0.11,0.05-0.25,0.07-0.41,0.07c-0.15,0-0.29-0.02-0.4-0.07c-0.11-0.05-0.2-0.12-0.27-0.21
				c-0.06-0.09-0.1-0.2-0.1-0.34h0.35c0.01,0.07,0.03,0.13,0.06,0.17c0.04,0.05,0.09,0.08,0.15,0.1c0.06,0.02,0.13,0.03,0.2,0.03
				c0.08,0,0.15-0.01,0.21-0.04c0.06-0.02,0.11-0.06,0.14-0.1c0.03-0.04,0.05-0.09,0.05-0.15c0-0.05-0.02-0.09-0.05-0.13
				c-0.03-0.03-0.07-0.06-0.12-0.09c-0.05-0.02-0.12-0.04-0.19-0.06l-0.23-0.06c-0.16-0.04-0.29-0.11-0.39-0.19
				c-0.09-0.09-0.14-0.2-0.14-0.34c0-0.12,0.03-0.22,0.1-0.31c0.06-0.09,0.15-0.16,0.26-0.21c0.11-0.05,0.23-0.07,0.37-0.07
				c0.14,0,0.27,0.02,0.37,0.07c0.11,0.05,0.19,0.12,0.25,0.2c0.06,0.09,0.09,0.19,0.09,0.3H94.89z"/>
		</g>
	</g>
</g>
</svg>
