<?xml version="1.0" encoding="utf-8"?>
<!-- Generator: Adobe Illustrator 27.4.0, SVG Export Plug-In . SVG Version: 6.00 Build 0)  -->
<svg version="1.1" id="Layer_1" xmlns="http://www.w3.org/2000/svg" xmlns:xlink="http://www.w3.org/1999/xlink" x="0px" y="0px"
	 viewBox="0 0 137 32" style="enable-background:new 0 0 137 32;" xml:space="preserve">
<style type="text/css">
	.st0{fill:#800000;}
	.st1{fill:#222222;}
	.st2{fill:url(#SVGID_1_);}
	.st3{fill:#B98C6D;}
	.st4{fill:#130D56;}
	.st5{fill:#F84500;}
	.st6{fill:#FF5B00;}
	.st7{fill:#FF8000;}
	.st8{fill:#3944B3;}
	.st9{fill-rule:evenodd;clip-rule:evenodd;fill:url(#SVGID_00000056395443273269543900000017380997261791850120_);}
	.st10{fill:url(#SVGID_00000103256161037798723500000013158696933223696523_);}
	.st11{fill:url(#SVGID_00000006702822457598363400000012785530209637674883_);}
	.st12{fill:url(#SVGID_00000160159211091281359710000015364012247246845585_);}
	.st13{fill:url(#SVGID_00000121973958238050759060000001935048951366092699_);}
	.st14{fill:#00417F;}
	.st15{fill:#46B7C2;}
	.st16{fill:#0B9ACF;}
	.st17{fill:#0080BC;}
</style>
<g>
	<path class="st4" d="M36.9,12.06v10.65h-1.05c-0.83,0-1.5-0.67-1.5-1.5v0c-0.37,0.56-0.89,1-1.57,1.33
		c-0.68,0.33-1.44,0.49-2.28,0.49c-0.99,0-1.86-0.23-2.63-0.69c-0.77-0.46-1.36-1.12-1.78-1.96c-0.42-0.84-0.63-1.83-0.63-2.95
		c0-1.13,0.22-2.12,0.66-2.99c0.44-0.87,1.06-1.54,1.86-2.01c0.8-0.47,1.71-0.71,2.75-0.71c0.81,0,1.54,0.15,2.19,0.44
		c0.65,0.3,1.16,0.71,1.55,1.25v0c0.12-0.78,0.79-1.35,1.58-1.35H36.9z M33.35,19.7c0.56-0.61,0.85-1.4,0.85-2.37
		c0-0.97-0.27-1.75-0.82-2.34c-0.55-0.59-1.28-0.88-2.19-0.88c-0.91,0-1.64,0.3-2.19,0.89c-0.55,0.59-0.82,1.38-0.82,2.35
		c0,0.97,0.28,1.76,0.83,2.36c0.55,0.6,1.27,0.9,2.16,0.9C32.05,20.61,32.78,20.31,33.35,19.7z"/>
	<path class="st4" d="M45.61,12.06v2.29c-0.29-0.03-0.5-0.05-0.63-0.05c-0.96,0-1.69,0.27-2.21,0.8C42.25,15.63,42,16.38,42,17.35
		v3.98c0,0.76-0.61,1.37-1.37,1.37h-1.3V12.06h0.87c0.89,0,1.64,0.65,1.78,1.53v0c0.16-0.53,0.47-0.93,0.94-1.21
		c0.47-0.28,1.04-0.42,1.69-0.42C44.96,11.96,45.29,12,45.61,12.06z"/>
	<path class="st4" d="M55.96,12.43c0.79,0.47,1.4,1.13,1.85,1.98c0.45,0.85,0.67,1.83,0.67,2.95c0,1.11-0.22,2.1-0.67,2.96
		c-0.45,0.86-1.06,1.53-1.85,2c-0.79,0.47-1.69,0.71-2.72,0.71c-0.76,0-1.45-0.13-2.08-0.38c-0.62-0.26-1.12-0.62-1.48-1.1v7.35
		c0,0.67-0.45,1.26-1.09,1.45l-1.55,0.44V12.06h0.65c0.88,0,1.63,0.65,1.74,1.53v0c0.38-0.58,0.91-1.03,1.59-1.36
		c0.68-0.33,1.43-0.5,2.26-0.5C54.28,11.72,55.17,11.96,55.96,12.43z M54.92,19.71c0.55-0.6,0.82-1.38,0.82-2.33
		c0-0.97-0.27-1.76-0.82-2.35c-0.55-0.59-1.27-0.89-2.16-0.89c-0.89,0-1.62,0.3-2.18,0.89c-0.56,0.59-0.83,1.39-0.83,2.37
		c0,0.97,0.28,1.75,0.83,2.33c0.55,0.58,1.27,0.87,2.16,0.87C53.65,20.61,54.38,20.31,54.92,19.71z"/>
	<path class="st4" d="M71.15,12.08v10.6c0,0.01-0.01,0.02-0.02,0.02h-1.1c-0.79,0-1.43-0.64-1.43-1.43l0,0
		c0-0.02-0.03-0.03-0.04-0.01c-0.36,0.53-0.87,0.96-1.53,1.27c-0.68,0.33-1.44,0.49-2.28,0.49c-0.99,0-1.86-0.23-2.63-0.69
		c-0.77-0.46-1.36-1.12-1.78-1.96c-0.42-0.84-0.63-1.83-0.63-2.95c0-1.13,0.22-2.12,0.66-2.99c0.44-0.87,1.06-1.54,1.86-2.01
		c0.8-0.47,1.71-0.71,2.75-0.71c0.81,0,1.54,0.15,2.19,0.44c0.63,0.29,1.14,0.69,1.51,1.21c0.01,0.02,0.04,0.01,0.04-0.01v0
		c0.12-0.75,0.76-1.3,1.52-1.3h0.89C71.14,12.06,71.15,12.07,71.15,12.08z M67.6,19.7c0.56-0.61,0.85-1.4,0.85-2.37
		c0-0.97-0.27-1.75-0.82-2.34c-0.55-0.59-1.28-0.88-2.19-0.88c-0.91,0-1.64,0.3-2.19,0.89c-0.55,0.59-0.82,1.38-0.82,2.35
		c0,0.97,0.28,1.76,0.83,2.36c0.55,0.6,1.27,0.9,2.16,0.9C66.31,20.61,67.04,20.31,67.6,19.7z"/>
	<path class="st4" d="M82.35,12.89c0.72,0.78,1.08,1.86,1.08,3.22v6.58c0,0,0,0.01-0.01,0.01h-1.27c-0.78,0-1.41-0.63-1.41-1.41
		v-4.56c0-1.73-0.71-2.6-2.12-2.6c-0.76,0-1.35,0.22-1.77,0.66c-0.42,0.44-0.62,1.04-0.62,1.8v4.7c0,0.78-0.63,1.42-1.42,1.42h-1.22
		c0,0-0.01,0-0.01-0.01V12.07c0,0,0-0.01,0.01-0.01h0.93c0.74,0,1.36,0.54,1.48,1.27v0c0,0.01,0.01,0.01,0.01,0
		c0.33-0.48,0.8-0.87,1.41-1.16c0.61-0.3,1.28-0.44,1.99-0.44C80.65,11.72,81.63,12.11,82.35,12.89z"/>
	<path class="st4" d="M95.24,12.06v9.95c0,0.39-0.31,0.7-0.7,0.7h-0.96c-0.32,0-0.58-0.23-0.63-0.54l-0.12-0.8
		c-0.38,0.54-0.86,0.96-1.43,1.24c-0.57,0.28-1.21,0.42-1.93,0.42c-1.26,0-2.23-0.38-2.92-1.14c-0.68-0.76-1.03-1.77-1.03-3.05
		v-5.07c0-0.94,0.76-1.7,1.7-1.7h0.97v6.32c0,0.81,0.19,1.39,0.56,1.76s0.9,0.54,1.59,0.54c0.68,0,1.23-0.22,1.63-0.67
		c0.4-0.45,0.6-1.05,0.6-1.81v-4.6c0-0.85,0.69-1.53,1.53-1.53H95.24z"/>
	<g>
		<path class="st5" d="M111.54,5.59c-0.09,0.09-0.14,0.16-0.2,0.22c-1.54,1.55-3.09,3.09-4.64,4.63c-1.48,1.47-4.04,1.12-5.06-0.67
			c-0.01-0.02-0.02-0.05-0.03-0.16c0.05,0.02,0.09,0.05,0.14,0.06c0.6,0.14,1.12-0.02,1.55-0.45c1.06-1.05,2.11-2.11,3.17-3.17
			c0.95-0.96,2.07-1.3,3.39-0.93c0.45,0.12,0.9,0.23,1.35,0.35C111.31,5.51,111.41,5.55,111.54,5.59z"/>
	</g>
	<g>
		<path class="st6" d="M99.62,17.54c-0.11-0.4-0.21-0.74-0.3-1.08c-0.49-1.85-0.99-3.69-1.48-5.54c-0.52-1.96,0.9-3.94,2.91-4.07
			c0.09-0.01,0.18-0.03,0.26-0.05c0.01,0.03,0.01,0.06,0.02,0.09C101,6.95,100.95,7,100.91,7.06c-0.35,0.44-0.48,0.94-0.33,1.49
			c0.39,1.47,0.79,2.94,1.18,4.4c0.34,1.28,0.06,2.39-0.88,3.33C100.47,16.69,100.07,17.09,99.62,17.54z"/>
	</g>
	<g>
		<path class="st7" d="M95.24,1.22c0.88,0.23,1.71,0.45,2.53,0.67c1.34,0.36,2.67,0.73,4.01,1.07c2.12,0.55,3.14,3,1.99,4.84
			c-0.03-0.06-0.06-0.11-0.08-0.16c-0.18-0.57-0.56-0.93-1.13-1.08c-1.11-0.3-2.21-0.59-3.32-0.89c-0.46-0.12-0.92-0.23-1.37-0.38
			c-1.02-0.34-1.73-1.02-2.07-2.05C95.59,2.6,95.44,1.93,95.24,1.22z"/>
	</g>
	<g>
		<path class="st4" d="M67.63,27.52H66.5v3.21h-0.5v-3.21h-1.14v-0.46h2.76V27.52z"/>
		<path class="st4" d="M70.56,27.06h1.43c0.41,0,0.72,0.1,0.94,0.29c0.22,0.19,0.33,0.46,0.33,0.81c0,0.26-0.06,0.48-0.19,0.66
			c-0.13,0.18-0.31,0.3-0.54,0.37l0.73,1.54h-0.55l-0.68-1.45h-0.98v1.45h-0.5V27.06z M71.99,28.83c0.24,0,0.43-0.06,0.55-0.18
			c0.13-0.12,0.19-0.28,0.19-0.48c0-0.2-0.07-0.36-0.2-0.48c-0.13-0.12-0.32-0.18-0.56-0.18h-0.93v1.32H71.99z"/>
		<path class="st4" d="M77.3,27.06h0.55l1.37,3.67h-0.53l-0.33-0.92h-1.57l-0.34,0.92h-0.5L77.3,27.06z M78.22,29.4l-0.33-0.91
			c-0.11-0.3-0.18-0.5-0.22-0.61l-0.09-0.25c0.01,0-0.1,0.29-0.31,0.86l-0.34,0.9H78.22z"/>
		<path class="st4" d="M81.99,27.06l0.61,1.55l0.54,1.51c0.05-0.14,0.13-0.38,0.25-0.7c0.12-0.33,0.22-0.6,0.3-0.81l0.6-1.55h0.53
			l-1.42,3.67h-0.51l-1.43-3.67H81.99z"/>
		<path class="st4" d="M88.21,27.52v1.15h1.6v0.43h-1.6v1.17h1.77v0.46h-2.27v-3.67h2.27v0.46H88.21z"/>
		<path class="st4" d="M95.15,30.28v0.45h-2.03v-3.67h0.5v3.22H95.15z"/>
	</g>
</g>
</svg>
