<?xml version="1.0" encoding="utf-8"?>
<!-- Generator: Adobe Illustrator 27.4.0, SVG Export Plug-In . SVG Version: 6.00 Build 0)  -->
<svg version="1.1" id="Layer_1" xmlns="http://www.w3.org/2000/svg" xmlns:xlink="http://www.w3.org/1999/xlink" x="0px" y="0px"
	 viewBox="0 0 137 32" style="enable-background:new 0 0 137 32;" xml:space="preserve">
<style type="text/css">
	.st0{fill:#800000;}
	.st1{fill:#222222;}
	.st2{fill:url(#SVGID_1_);}
	.st3{fill:#B98C6D;}
	.st4{fill:#130D56;}
	.st5{fill:#F84500;}
	.st6{fill:#FF5B00;}
	.st7{fill:#FF8000;}
	.st8{fill:#3944B3;}
	.st9{fill-rule:evenodd;clip-rule:evenodd;fill:url(#SVGID_00000139991906531144453070000000986240757411684224_);}
	.st10{fill:url(#SVGID_00000067921446505987506610000006714344390991754905_);}
	.st11{fill:url(#SVGID_00000049180189171238321520000004493759465786325147_);}
	.st12{fill:url(#SVGID_00000096779080154066652990000005094424853061506432_);}
	.st13{fill:url(#SVGID_00000145041126724904894820000002358303011144234664_);}
	.st14{fill:#00417F;}
	.st15{fill:#46B7C2;}
	.st16{fill:#0B9ACF;}
	.st17{fill:#0080BC;}
</style>
<g>
	<g>
		<g>
			<path d="M37.45,16.43h-2.8v-0.37h2.8v-2.69h0.37v2.69h2.78v0.37h-2.78v2.77h-0.37V16.43z"/>
			<polygon points="38.54,19.9 36.74,19.9 36.74,17.12 33.94,17.12 33.94,15.37 36.74,15.37 36.74,12.68 38.54,12.68 38.54,15.37 
				41.32,15.37 41.32,17.12 38.54,17.12 			"/>
		</g>
	</g>
	<g>
		<g>
			<path d="M49.75,9.29h0.47l4.36,13.37h-0.45l-1.27-3.88h-5.75l-1.25,3.88h-0.45L49.75,9.29z M52.72,18.39l-2.15-6.61
				c-0.22-0.65-0.35-1.17-0.57-1.85h-0.04c-0.22,0.69-0.37,1.24-0.59,1.91l-2.13,6.55H52.72z"/>
			<path d="M54.71,22.77h-0.66l-1.27-3.88h-5.6l-1.25,3.88h-0.66l4.4-13.57h0.62L54.71,22.77z M54.2,22.57h0.24L50.14,9.39h-0.32
				l-4.27,13.18h0.24l1.25-3.88h5.89L54.2,22.57z M52.86,18.49h-5.75l2.17-6.68c0.12-0.38,0.22-0.72,0.33-1.07
				c0.08-0.27,0.16-0.54,0.26-0.84l0.02-0.07h0.19L50.1,9.9c0.09,0.29,0.17,0.54,0.24,0.79c0.1,0.35,0.2,0.68,0.33,1.06L52.86,18.49
				z M47.38,18.29h5.2l-2.11-6.48c-0.13-0.38-0.22-0.71-0.33-1.07c-0.05-0.17-0.1-0.35-0.16-0.54c-0.06,0.2-0.12,0.4-0.18,0.59
				c-0.11,0.35-0.21,0.69-0.33,1.07L47.38,18.29z"/>
		</g>
		<g>
			<path d="M58.15,12.9h0.39l0.04,1.43c0.98-0.69,2.29-1.57,3.13-1.57h0.74v0.42h-0.74c-0.84,0-2.29,1.03-3.13,1.64v7.83h-0.43V12.9
				z"/>
			<path d="M58.68,22.77h-0.63v-9.96h0.59l0.04,1.34c1.12-0.78,2.25-1.48,3.03-1.48h0.84v0.62h-0.84c-0.82,0-2.29,1.06-3.03,1.59
				V22.77z M58.25,22.57h0.23v-7.78l0.04-0.03c0.74-0.54,2.29-1.66,3.19-1.66h0.64v-0.22h-0.64c-0.87,0-2.35,1.05-3.07,1.55
				l-0.16,0.11L58.44,13h-0.19V22.57z"/>
		</g>
		<g>
			<path d="M65.5,19.86v-4.13c0-2.14,0.9-3.02,3.07-3.02c2.13,0,3.03,0.88,3.03,3.02v0.15h-0.43v-0.15c0-1.89-0.74-2.62-2.6-2.62
				c-1.9,0-2.64,0.73-2.64,2.62v4.13c0,1.89,0.74,2.6,2.64,2.6c1.9,0,2.64-0.71,2.64-2.6v-0.23h0.43v0.23c0,2.14-0.9,3-3.07,3
				C66.4,22.86,65.5,22,65.5,19.86z"/>
			<path d="M68.57,22.96c-2.22,0-3.17-0.93-3.17-3.1v-4.13c0-2.19,0.95-3.12,3.17-3.12c2.19,0,3.13,0.93,3.13,3.12v0.25h-0.63v-0.25
				c0-1.84-0.68-2.52-2.5-2.52c-1.85,0-2.54,0.68-2.54,2.52v4.13c0,1.82,0.69,2.5,2.54,2.5c1.85,0,2.54-0.68,2.54-2.5v-0.33h0.63
				v0.33C71.74,22.03,70.79,22.96,68.57,22.96z M68.57,12.81c-2.11,0-2.97,0.85-2.97,2.92v4.13c0,2.09,0.83,2.9,2.97,2.9
				c2.14,0,2.97-0.81,2.97-2.9v-0.13h-0.23v0.13c0,1.94-0.77,2.7-2.74,2.7c-1.97,0-2.74-0.76-2.74-2.7v-4.13
				c0-1.93,0.79-2.72,2.74-2.72c1.92,0,2.7,0.79,2.7,2.72v0.05h0.23v-0.05C71.5,13.66,70.65,12.81,68.57,12.81z"/>
		</g>
		<g>
			<path d="M75.93,9.29h0.43v4.83c1.07-0.61,2.5-1.41,3.79-1.41c1.43,0,2.19,0.97,2.19,2.73v7.22h-0.43v-7.22
				c0-1.55-0.57-2.33-1.8-2.33c-1.19,0-2.48,0.73-3.75,1.47v8.08h-0.43V9.29z"/>
			<path d="M82.45,22.77h-0.63v-7.32c0-1.52-0.54-2.23-1.7-2.23c-1.11,0-2.31,0.64-3.65,1.43v8.13h-0.63V9.19h0.63v4.76
				c1.04-0.59,2.42-1.34,3.69-1.34c1.48,0,2.29,1.01,2.29,2.83V22.77z M82.02,22.57h0.23v-7.12c0-1.2-0.36-2.63-2.09-2.63
				c-1.28,0-2.7,0.81-3.74,1.4l-0.15,0.09V9.39h-0.23v13.18h0.23v-8.04l0.05-0.03c1.39-0.81,2.63-1.49,3.8-1.49
				c1.28,0,1.9,0.79,1.9,2.43V22.57z"/>
		</g>
		<g>
			<path d="M87.05,9.14h0.51v1.55h-0.51V9.14z M87.09,12.9h0.43v9.76h-0.43V12.9z"/>
			<path d="M87.62,22.77h-0.63v-9.96h0.63V22.77z M87.19,22.57h0.23V13h-0.23V22.57z M87.66,10.79h-0.71V9.04h0.71V10.79z
				 M87.15,10.59h0.31V9.24h-0.31V10.59z"/>
		</g>
		<g>
			<path d="M93.11,19.88v-6.57h-1.8v-0.4h1.8v-2.25h0.43v2.25h2.72v0.4h-2.72v6.55c0,1.78,0.49,2.41,1.9,2.41h0.82v0.4h-0.84
				C93.76,22.67,93.11,21.89,93.11,19.88z"/>
			<path d="M96.36,22.77h-0.94c-1.71,0-2.41-0.84-2.41-2.89V13.4h-1.8v-0.6h1.8v-2.25h0.63v2.25h2.72v0.6h-2.72v6.45
				c0,1.73,0.45,2.31,1.79,2.31h0.92V22.77z M91.41,13.21h1.8v6.67c0,1.96,0.6,2.69,2.21,2.69h0.74v-0.2h-0.72
				c-1.46,0-2-0.68-2-2.51v-6.65h2.72V13h-2.72v-2.25h-0.23V13h-1.8V13.21z"/>
		</g>
		<g>
			<path d="M99.97,20.03v-4.3c0-2.16,0.88-3.02,3.11-3.02c2.03,0,3.13,0.8,3.13,2.37v0.57c0,1.32-0.63,1.95-2.23,2.24l-3.6,0.63
				v1.51c0,1.78,0.7,2.43,2.7,2.43c1.97,0,2.66-0.65,2.66-2.43V19.8h0.43v0.23c0,2.03-0.88,2.83-3.09,2.83
				C100.83,22.86,99.97,22.06,99.97,20.03z M103.9,17.51c1.37-0.25,1.88-0.78,1.88-1.89V15.1c0-1.34-0.9-1.99-2.7-1.99
				c-1.99,0-2.7,0.71-2.7,2.62v2.39L103.9,17.51z"/>
			<path d="M103.08,22.96c-2.28,0-3.21-0.85-3.21-2.93v-4.3c0-2.21,0.93-3.12,3.21-3.12c2.11,0,3.23,0.85,3.23,2.47v0.57
				c0,1.36-0.67,2.04-2.31,2.33l-3.51,0.62v1.43c0,1.74,0.66,2.33,2.6,2.33c1.91,0,2.56-0.59,2.56-2.33V19.7h0.63v0.33
				C106.27,22.11,105.34,22.96,103.08,22.96z M103.08,12.81c-2.16,0-3.01,0.82-3.01,2.92v4.3c0,1.99,0.81,2.73,3.01,2.73
				c2.15,0,2.99-0.76,2.99-2.73V19.9h-0.23v0.13c0,1.84-0.75,2.53-2.76,2.53c-2.04,0-2.8-0.68-2.8-2.53v-1.59l3.68-0.65
				c1.54-0.28,2.14-0.88,2.14-2.14v-0.57C106.1,13.58,105.09,12.81,103.08,12.81z M100.28,18.24v-2.51c0-1.98,0.76-2.72,2.8-2.72
				c1.86,0,2.8,0.7,2.8,2.09v0.52c0,1.18-0.55,1.73-1.96,1.99l0,0L100.28,18.24z M103.08,13.21c-1.92,0-2.6,0.66-2.6,2.52V18
				l3.4-0.59c1.31-0.24,1.79-0.72,1.79-1.79V15.1C105.67,13.83,104.82,13.21,103.08,13.21z"/>
		</g>
		<g>
			<path d="M110.29,19.86v-4.13c0-2.14,0.9-3.02,3.07-3.02c2.13,0,3.03,0.88,3.03,3.02v0.15h-0.43v-0.15c0-1.89-0.74-2.62-2.6-2.62
				c-1.9,0-2.64,0.73-2.64,2.62v4.13c0,1.89,0.74,2.6,2.64,2.6c1.9,0,2.64-0.71,2.64-2.6v-0.23h0.43v0.23c0,2.14-0.9,3-3.07,3
				C111.19,22.86,110.29,22,110.29,19.86z"/>
			<path d="M113.36,22.96c-2.22,0-3.17-0.93-3.17-3.1v-4.13c0-2.19,0.95-3.12,3.17-3.12c2.19,0,3.13,0.93,3.13,3.12v0.25h-0.63
				v-0.25c0-1.84-0.68-2.52-2.5-2.52c-1.85,0-2.54,0.68-2.54,2.52v4.13c0,1.82,0.69,2.5,2.54,2.5c1.85,0,2.54-0.68,2.54-2.5v-0.33
				h0.63v0.33C116.53,22.03,115.58,22.96,113.36,22.96z M113.36,12.81c-2.11,0-2.97,0.85-2.97,2.92v4.13c0,2.09,0.83,2.9,2.97,2.9
				c2.14,0,2.97-0.81,2.97-2.9v-0.13h-0.23v0.13c0,1.94-0.77,2.7-2.74,2.7c-1.97,0-2.74-0.76-2.74-2.7v-4.13
				c0-1.93,0.79-2.72,2.74-2.72c1.92,0,2.7,0.79,2.7,2.72v0.05h0.23v-0.05C116.28,13.66,115.44,12.81,113.36,12.81z"/>
		</g>
		<g>
			<path d="M121.5,19.88v-6.57h-1.8v-0.4h1.8v-2.25h0.43v2.25h2.72v0.4h-2.72v6.55c0,1.78,0.49,2.41,1.9,2.41h0.82v0.4h-0.84
				C122.15,22.67,121.5,21.89,121.5,19.88z"/>
			<path d="M124.75,22.77h-0.94c-1.71,0-2.41-0.84-2.41-2.89V13.4h-1.8v-0.6h1.8v-2.25h0.63v2.25h2.72v0.6h-2.72v6.45
				c0,1.73,0.45,2.31,1.79,2.31h0.92V22.77z M119.81,13.21h1.8v6.67c0,1.96,0.6,2.69,2.2,2.69h0.74v-0.2h-0.72
				c-1.46,0-2-0.68-2-2.51v-6.65h2.72V13h-2.72v-2.25h-0.23V13h-1.8V13.21z"/>
		</g>
		<g>
			<path d="M128.15,20.34v-0.46h0.43v0.46c0,1.49,0.72,2.12,2.58,2.12c1.72,0,2.56-0.55,2.56-2.12c0-1.09-0.39-1.72-1.58-2.2
				l-2.19-0.86c-1.25-0.52-1.64-1.13-1.64-2.24c0-1.68,0.96-2.33,2.83-2.33c1.99,0,2.85,0.73,2.85,2.27v0.4h-0.43v-0.4
				c0-1.32-0.72-1.87-2.4-1.87c-1.64,0-2.42,0.5-2.42,1.93c0,0.92,0.31,1.43,1.41,1.85l2.13,0.86c1.41,0.57,1.88,1.32,1.88,2.58
				c0,1.82-1.02,2.52-2.99,2.52C129.05,22.86,128.15,22.08,128.15,20.34z"/>
			<path d="M131.16,22.96c-2.15,0-3.11-0.81-3.11-2.62v-0.56h0.63v0.56c0,1.45,0.69,2.02,2.48,2.02c1.75,0,2.46-0.59,2.46-2.02
				c0-1.09-0.41-1.66-1.52-2.11l-2.19-0.86c-1.24-0.51-1.71-1.14-1.71-2.33c0-1.68,0.91-2.43,2.94-2.43c2.02,0,2.95,0.75,2.95,2.37
				v0.5h-0.63v-0.5c0-1.26-0.67-1.77-2.3-1.77c-1.67,0-2.32,0.51-2.32,1.83c0,0.93,0.34,1.38,1.34,1.76l2.13,0.86
				c1.4,0.57,1.94,1.32,1.94,2.67C134.25,22.13,133.27,22.96,131.16,22.96z M128.25,19.98v0.36c0,1.7,0.87,2.42,2.91,2.42
				c2,0,2.89-0.75,2.89-2.42c0-1.28-0.49-1.95-1.81-2.49l-2.13-0.86c-1.07-0.41-1.47-0.94-1.47-1.94c0-1.42,0.76-2.03,2.52-2.03
				c1.73,0,2.51,0.61,2.51,1.97v0.3h0.23v-0.3c0-1.5-0.85-2.17-2.75-2.17c-1.92,0-2.73,0.67-2.73,2.23c0,1.1,0.41,1.66,1.58,2.14
				l2.19,0.86c1.19,0.47,1.65,1.12,1.65,2.29c0,1.56-0.8,2.22-2.66,2.22c-1.88,0-2.68-0.66-2.68-2.22v-0.36H128.25z"/>
		</g>
	</g>
	<g>
		<path d="M3.46,21.84l6.28-11.53H3.66V9.93h6.6v0.28l-6.3,11.54h6.37v0.38H3.46V21.84z"/>
		<polygon points="11.04,22.83 2.75,22.83 2.75,21.66 8.56,11 2.95,11 2.95,9.23 10.96,9.23 10.96,10.38 5.14,21.06 11.04,21.06 		
			"/>
	</g>
	<g>
		<path d="M14.14,9.93h5.64v0.37h-5.24v5.34h4.89v0.38h-4.89v5.75h5.4v0.37h-5.8V9.93z"/>
		<polygon points="20.65,22.83 13.43,22.83 13.43,9.23 20.49,9.23 20.49,10.99 15.24,10.99 15.24,14.93 20.13,14.93 20.13,16.71 
			15.24,16.71 15.24,21.07 20.65,21.07 		"/>
	</g>
	<g>
		<path d="M23.99,9.93h3.05c2.69,0,3.55,0.84,3.55,3.24c0,2.09-0.62,3.02-2.51,3.23l3.17,5.74H30.8l-3.16-5.7
			c-0.2,0.02-0.39,0.02-0.61,0.02h-2.66v5.68h-0.39V9.93z M27.05,16.08c2.44,0,3.14-0.7,3.14-2.91c0-2.18-0.7-2.88-3.16-2.88h-2.66
			v5.79H27.05z"/>
		<path d="M32.43,22.83h-2.06l-3.15-5.68c-0.06,0-0.13,0-0.19,0h-1.95v5.68h-1.81V9.23h3.76c3.06,0,4.26,1.1,4.26,3.94
			c0,1.53-0.28,3.11-2.15,3.71L32.43,22.83z M25.09,15.39h1.97c2.13,0,2.43-0.47,2.43-2.22c0-1.72-0.3-2.18-2.45-2.18h-1.95V15.39z"
			/>
	</g>
</g>
</svg>
