<?xml version="1.0" encoding="utf-8"?>
<!-- Generator: Adobe Illustrator 27.4.0, SVG Export Plug-In . SVG Version: 6.00 Build 0)  -->
<svg version="1.1" id="Layer_1" xmlns="http://www.w3.org/2000/svg" xmlns:xlink="http://www.w3.org/1999/xlink" x="0px" y="0px"
	 viewBox="0 0 137 32" style="enable-background:new 0 0 137 32;" xml:space="preserve">
<style type="text/css">
	.st0{fill:#800000;}
	.st1{fill:#222222;}
	.st2{fill:url(#SVGID_1_);}
	.st3{fill:#B98C6D;}
	.st4{fill:#130D56;}
	.st5{fill:#F84500;}
	.st6{fill:#FF5B00;}
	.st7{fill:#FF8000;}
	.st8{fill:#3944B3;}
	.st9{fill-rule:evenodd;clip-rule:evenodd;fill:url(#SVGID_00000105411887253646487940000010803089250903069312_);}
	.st10{fill:url(#SVGID_00000169544264961003320120000018085325815140540805_);}
	.st11{fill:url(#SVGID_00000029043771791910635400000006149259390180195982_);}
	.st12{fill:url(#SVGID_00000162344709058817697750000015517962176927375011_);}
	.st13{fill:url(#SVGID_00000041259849956871713830000010101473157385965503_);}
	.st14{fill:#00417F;}
	.st15{fill:#46B7C2;}
	.st16{fill:#0B9ACF;}
	.st17{fill:#0080BC;}
</style>
<g>
	<g>
		<polygon class="st0" points="69.13,11.76 70.8,13.79 68.57,11.97 68.31,11.84 68.55,12.2 68.55,12.26 68.27,16.04 67.97,11.97 
			67.97,11.71 67.77,12.13 67.77,12.13 65.74,13.79 67.55,11.58 67.75,11.36 67.27,11.57 67.27,11.57 61.11,11.26 67.17,10.97 
			67.17,10.97 67.75,11.11 67.5,10.95 63.21,6.21 67.72,10.29 67.94,10.8 67.94,10.49 68.27,1.25 68.59,10.49 68.59,10.87 
			68.82,10.29 73.33,6.21 69.03,10.95 68.86,11.16 69.39,10.97 69.39,10.97 75.42,11.26 68.98,11.58 68.59,11.58 		"/>
	</g>
	<g>
		<path class="st0" d="M50.96,30.68l0,0.02c-0.07-0.01-0.24-0.01-0.33-0.01c-0.09,0-0.24,0-0.33,0.01l0-0.02
			c0.07-0.03,0.1-0.06,0.1-0.14c0-0.1,0.01-0.4,0.01-0.87h-1.12c0,0.48,0,0.77,0.01,0.87c0,0.08,0.03,0.11,0.1,0.14l0,0.02
			c-0.09-0.01-0.24-0.01-0.32-0.01c-0.09,0-0.24,0-0.33,0.01l0-0.02c0.07-0.03,0.1-0.06,0.1-0.14c0-0.1,0.01-0.42,0.01-0.92
			c0-0.51,0-0.82-0.01-0.92c0-0.08-0.03-0.11-0.1-0.14l0-0.02c0.09,0.01,0.24,0.01,0.33,0.01c0.08,0,0.23,0,0.32-0.01l0,0.02
			c-0.07,0.03-0.1,0.06-0.1,0.14c0,0.09-0.01,0.36-0.01,0.8h1.12c0-0.44,0-0.71-0.01-0.8c0-0.08-0.03-0.11-0.1-0.14l0-0.02
			c0.09,0.01,0.24,0.01,0.33,0.01c0.09,0,0.24,0,0.33-0.01l0,0.02c-0.07,0.03-0.1,0.06-0.1,0.14c0,0.1-0.01,0.41-0.01,0.92
			c0,0.51,0,0.82,0.01,0.92C50.86,30.63,50.89,30.66,50.96,30.68z"/>
		<path class="st0" d="M53.11,30.75c-0.67,0-1.21-0.44-1.21-1.13c0-0.68,0.54-1.13,1.21-1.13c0.68,0,1.22,0.44,1.22,1.13
			C54.33,30.31,53.79,30.75,53.11,30.75z M53.11,28.67c-0.45,0-0.71,0.35-0.71,0.96c0,0.6,0.26,0.96,0.71,0.96
			c0.45,0,0.71-0.36,0.71-0.96C53.82,29.02,53.56,28.67,53.11,28.67z"/>
		<path class="st0" d="M56.94,28.96c-0.22-0.18-0.5-0.27-0.7-0.27H56.2v0.93c0,0.51,0,0.82,0.01,0.92c0,0.08,0.04,0.11,0.1,0.14
			l-0.01,0.02c-0.09-0.01-0.24-0.01-0.33-0.01s-0.23,0-0.33,0.01l-0.01-0.02c0.07-0.03,0.1-0.06,0.1-0.14c0-0.1,0.01-0.42,0.01-0.92
			v-0.93h-0.03c-0.2,0-0.49,0.09-0.71,0.27l-0.02-0.02c0.05-0.12,0.1-0.29,0.12-0.4h1.72c0.02,0.1,0.07,0.27,0.11,0.4L56.94,28.96z"
			/>
		<path class="st0" d="M58.17,30.69c-0.19,0-0.33,0-0.42,0.01l0-0.02c0.07-0.03,0.1-0.06,0.1-0.14c0-0.1,0.01-0.42,0.01-0.92
			c0-0.51,0-0.82-0.01-0.92c0-0.08-0.03-0.11-0.1-0.14l0-0.02c0.09,0.01,0.24,0.01,0.36,0.01h1.06c0.03,0.11,0.08,0.27,0.14,0.39
			l-0.02,0.02c-0.25-0.22-0.5-0.26-0.79-0.26c-0.07,0-0.12,0-0.18,0c0,0.13-0.01,0.46-0.01,0.82c0.55-0.01,0.67-0.05,0.71-0.22
			l0.02,0c-0.01,0.1-0.01,0.17-0.01,0.28c0,0.12,0,0.19,0.01,0.28l-0.02,0c-0.03-0.17-0.16-0.2-0.71-0.21c0,0.45,0,0.78,0.01,0.89
			h0.1c0.37,0,0.77-0.08,1.01-0.26l0.02,0.02c-0.05,0.1-0.12,0.27-0.16,0.39H58.17z"/>
		<path class="st0" d="M61.79,30.31c-0.05,0.1-0.12,0.27-0.16,0.39h-0.9c-0.26,0-0.41,0-0.5,0.01l0-0.02
			c0.07-0.03,0.1-0.06,0.1-0.14c0-0.1,0.01-0.42,0.01-0.92c0-0.51,0-0.82-0.01-0.92c0-0.08-0.03-0.11-0.1-0.14l0-0.02
			c0.09,0.01,0.24,0.01,0.33,0.01c0.08,0,0.23,0,0.32-0.01l0,0.02c-0.07,0.03-0.1,0.06-0.1,0.14c0,0.1-0.01,0.46-0.01,0.92
			c0,0.51,0,0.76,0.01,0.93h0.11c0.36,0,0.64-0.08,0.88-0.26L61.79,30.31z"/>
		<path class="st0" d="M63.31,30.75c-0.24,0-0.52-0.07-0.68-0.19l-0.06-0.49l0.03-0.01c0.2,0.37,0.49,0.52,0.74,0.52
			c0.22,0,0.41-0.11,0.41-0.35c0-0.2-0.15-0.32-0.49-0.47c-0.39-0.18-0.62-0.34-0.62-0.66c0-0.39,0.32-0.6,0.73-0.6
			c0.24,0,0.47,0.06,0.59,0.16l0.04,0.44l-0.03,0.01c-0.15-0.32-0.39-0.43-0.61-0.43c-0.22,0-0.35,0.12-0.35,0.28
			c0,0.17,0.13,0.27,0.47,0.42c0.38,0.17,0.66,0.33,0.66,0.73C64.12,30.52,63.76,30.75,63.31,30.75z"/>
		<path class="st0" d="M68.4,29.56c-0.06,0.16-0.17,0.31-0.4,0.31c-0.02,0-0.05,0-0.07-0.01c0.09,0.07,0.13,0.2,0.13,0.3
			c0,0.28-0.26,0.59-0.8,0.59c-0.47,0-0.93-0.24-0.93-0.68c0-0.3,0.24-0.56,0.64-0.64c-0.22-0.06-0.42-0.19-0.42-0.45
			c0-0.32,0.34-0.48,0.64-0.48c0.27,0,0.43,0.06,0.55,0.16L67.78,29L67.76,29c-0.11-0.21-0.24-0.33-0.45-0.33
			c-0.17,0-0.32,0.11-0.32,0.34c0,0.24,0.18,0.38,0.34,0.38v0.13c-0.37,0.01-0.54,0.22-0.54,0.53c0,0.36,0.27,0.53,0.56,0.53
			c0.44,0,0.58-0.25,0.58-0.44c0-0.16-0.09-0.27-0.24-0.27c-0.11,0-0.18,0.06-0.22,0.1l-0.04-0.02c0.05-0.25,0.27-0.4,0.49-0.4
			c0.11,0,0.21,0.03,0.3,0.03c0.08,0,0.11-0.02,0.14-0.05L68.4,29.56z"/>
		<path class="st0" d="M72.19,30.64c-0.07,0.06-0.2,0.09-0.3,0.09c-0.38,0-0.53-0.29-0.65-0.65c-0.06-0.19-0.13-0.33-0.25-0.37
			c-0.03,0-0.06,0-0.09,0c0,0.41,0,0.73,0.01,0.83c0,0.08,0.03,0.11,0.1,0.14l0,0.02c-0.09-0.01-0.24-0.01-0.33-0.01
			c-0.09,0-0.23,0-0.32,0.01l0-0.02c0.07-0.03,0.1-0.06,0.1-0.14c0-0.1,0.01-0.42,0.01-0.92c0-0.51,0-0.82-0.01-0.92
			c0-0.09-0.04-0.12-0.1-0.13v-0.02c0.19-0.01,0.41-0.01,0.58-0.01c0.59,0,0.96,0.21,0.96,0.56c0,0.35-0.29,0.54-0.64,0.6
			c0.18,0.06,0.34,0.24,0.5,0.49c0.22,0.35,0.31,0.46,0.43,0.43L72.19,30.64z M70.91,29.55h0.06c0.32,0,0.45-0.18,0.45-0.46
			c0-0.25-0.11-0.41-0.5-0.41C70.91,28.82,70.91,29.16,70.91,29.55z"/>
		<path class="st0" d="M73.32,30.69c-0.19,0-0.33,0-0.42,0.01l0-0.02c0.07-0.03,0.1-0.06,0.1-0.14c0-0.1,0.01-0.42,0.01-0.92
			c0-0.51,0-0.82-0.01-0.92c0-0.08-0.03-0.11-0.1-0.14l0-0.02c0.09,0.01,0.24,0.01,0.36,0.01h1.06c0.03,0.11,0.08,0.27,0.14,0.39
			l-0.02,0.02c-0.25-0.22-0.5-0.26-0.79-0.26c-0.07,0-0.12,0-0.18,0c0,0.13-0.01,0.46-0.01,0.82c0.55-0.01,0.67-0.05,0.71-0.22
			l0.02,0c-0.01,0.1-0.01,0.17-0.01,0.28c0,0.12,0,0.19,0.01,0.28l-0.02,0c-0.03-0.17-0.16-0.2-0.71-0.21c0,0.45,0,0.78,0.01,0.89
			h0.1c0.37,0,0.77-0.08,1.01-0.26l0.02,0.02c-0.05,0.1-0.12,0.27-0.16,0.39H73.32z"/>
		<path class="st0" d="M76.11,30.75c-0.24,0-0.52-0.07-0.68-0.19l-0.06-0.49l0.03-0.01c0.2,0.37,0.49,0.52,0.74,0.52
			c0.22,0,0.41-0.11,0.41-0.35c0-0.2-0.15-0.32-0.49-0.47c-0.39-0.18-0.62-0.34-0.62-0.66c0-0.39,0.32-0.6,0.73-0.6
			c0.24,0,0.47,0.06,0.59,0.16l0.04,0.44l-0.03,0.01c-0.15-0.32-0.39-0.43-0.61-0.43c-0.22,0-0.35,0.12-0.35,0.28
			c0,0.17,0.13,0.27,0.47,0.42c0.38,0.17,0.66,0.33,0.66,0.73C76.92,30.52,76.56,30.75,76.11,30.75z"/>
		<path class="st0" d="M79.07,30.75c-0.67,0-1.21-0.44-1.21-1.13c0-0.68,0.54-1.13,1.21-1.13c0.68,0,1.22,0.44,1.22,1.13
			C80.28,30.31,79.74,30.75,79.07,30.75z M79.07,28.67c-0.45,0-0.71,0.35-0.71,0.96c0,0.6,0.26,0.96,0.71,0.96
			c0.45,0,0.71-0.36,0.71-0.96C79.78,29.02,79.52,28.67,79.07,28.67z"/>
		<path class="st0" d="M83.06,30.64c-0.07,0.06-0.2,0.09-0.3,0.09c-0.38,0-0.53-0.29-0.65-0.65c-0.06-0.19-0.13-0.33-0.25-0.37
			c-0.03,0-0.06,0-0.09,0c0,0.41,0,0.73,0.01,0.83c0,0.08,0.03,0.11,0.1,0.14l0,0.02c-0.09-0.01-0.24-0.01-0.33-0.01
			c-0.09,0-0.23,0-0.32,0.01l0-0.02c0.07-0.03,0.1-0.06,0.1-0.14c0-0.1,0.01-0.42,0.01-0.92c0-0.51,0-0.82-0.01-0.92
			c0-0.09-0.04-0.12-0.1-0.13v-0.02c0.19-0.01,0.41-0.01,0.58-0.01c0.59,0,0.96,0.21,0.96,0.56c0,0.35-0.29,0.54-0.64,0.6
			c0.18,0.06,0.34,0.24,0.5,0.49c0.22,0.35,0.31,0.46,0.43,0.43L83.06,30.64z M81.78,29.55h0.06c0.32,0,0.45-0.18,0.45-0.46
			c0-0.25-0.11-0.41-0.5-0.41C81.78,28.82,81.78,29.16,81.78,29.55z"/>
		<path class="st0" d="M85.47,28.96c-0.22-0.18-0.5-0.27-0.7-0.27h-0.03v0.93c0,0.51,0,0.82,0.01,0.92c0,0.08,0.04,0.11,0.1,0.14
			l-0.01,0.02c-0.09-0.01-0.24-0.01-0.33-0.01c-0.09,0-0.23,0-0.33,0.01l-0.01-0.02c0.07-0.03,0.1-0.06,0.1-0.14
			c0-0.1,0.01-0.42,0.01-0.92v-0.93h-0.03c-0.2,0-0.49,0.09-0.71,0.27l-0.02-0.02c0.05-0.12,0.1-0.29,0.12-0.4h1.72
			c0.02,0.1,0.07,0.27,0.11,0.4L85.47,28.96z"/>
		<path class="st0" d="M87.01,30.75c-0.24,0-0.52-0.07-0.68-0.19l-0.06-0.49l0.03-0.01c0.2,0.37,0.49,0.52,0.74,0.52
			c0.22,0,0.41-0.11,0.41-0.35c0-0.2-0.15-0.32-0.49-0.47c-0.39-0.18-0.62-0.34-0.62-0.66c0-0.39,0.32-0.6,0.73-0.6
			c0.24,0,0.47,0.06,0.59,0.16l0.04,0.44l-0.03,0.01c-0.15-0.32-0.39-0.43-0.61-0.43c-0.22,0-0.35,0.12-0.35,0.28
			c0,0.17,0.13,0.27,0.47,0.42c0.38,0.17,0.66,0.33,0.66,0.73C87.81,30.52,87.46,30.75,87.01,30.75z"/>
	</g>
	<g>
		<path class="st0" d="M44.21,19.79c-0.16,0.07-0.24,0.13-0.25,0.36c-0.03,0.44-0.05,0.97-0.05,2.19c0,1.21,0.01,2.13,0.02,2.64
			h-0.39c-1.53-1.66-2.85-3.07-4.05-4.31c0.02,0.44,0.02,0.96,0.03,1.66c0.01,1.06,0.05,1.76,0.09,2.19
			c0.02,0.22,0.1,0.29,0.25,0.36l-0.01,0.05c-0.16-0.02-0.38-0.02-0.51-0.02c-0.13,0-0.31,0.01-0.5,0.02l-0.01-0.05
			c0.16-0.08,0.24-0.13,0.24-0.31c0.04-0.49,0.05-1.03,0.05-2.24c0-0.94-0.01-1.55-0.02-1.8c-0.01-0.41-0.17-0.61-0.42-0.75
			l0.02-0.05c0.27,0.02,0.53,0.02,0.72,0.02c0.2,0,0.42,0,0.61-0.01c1.36,1.5,2.49,2.68,3.5,3.7c-0.01-0.35-0.02-0.77-0.02-1.12
			c-0.01-1.06-0.05-1.73-0.08-2.18c-0.02-0.23-0.11-0.3-0.27-0.37l0.02-0.05c0.16,0.02,0.35,0.02,0.49,0.02
			c0.14,0,0.33-0.01,0.51-0.02L44.21,19.79z"/>
		<path class="st0" d="M49.34,25.04c-1.62,0-2.91-1.07-2.91-2.71c0-1.64,1.29-2.71,2.91-2.71c1.62,0,2.92,1.07,2.92,2.71
			C52.26,23.98,50.96,25.04,49.34,25.04z M49.34,20.04c-1.07,0-1.69,0.85-1.69,2.3c0,1.44,0.62,2.3,1.69,2.3
			c1.08,0,1.7-0.85,1.7-2.3C51.04,20.89,50.42,20.04,49.34,20.04z"/>
		<path class="st0" d="M59.2,19.79c-0.16,0.05-0.31,0.16-0.45,0.42c-0.67,1.29-1.69,3.48-2.24,4.78h-0.13
			c-0.51-1.15-1.69-3.67-2.24-4.77c-0.12-0.23-0.31-0.39-0.46-0.44l0.01-0.05c0.24,0.02,0.64,0.02,0.86,0.02
			c0.23,0,0.74-0.01,0.95-0.02l0.01,0.05c-0.22,0.09-0.27,0.18-0.19,0.37c0.19,0.45,1.04,2.35,1.5,3.33
			c0.42-0.96,1.12-2.67,1.34-3.26c0.09-0.27,0.02-0.36-0.21-0.44l0.02-0.05c0.24,0.02,0.46,0.02,0.67,0.02
			c0.2,0,0.35-0.01,0.56-0.02L59.2,19.79z"/>
		<path class="st0" d="M70.45,22.76c-0.08,0-0.16,0-0.24-0.01c0,0.85,0.01,1.57,0.02,1.8c0.01,0.19,0.08,0.27,0.24,0.33l-0.01,0.05
			c-0.22-0.02-0.57-0.02-0.79-0.02c-0.21,0-0.56,0.01-0.78,0.02l-0.01-0.05c0.17-0.07,0.24-0.14,0.24-0.33
			c0.01-0.25,0.02-1,0.02-2.22c0-1.22-0.01-1.97-0.02-2.22c-0.01-0.2-0.1-0.29-0.24-0.31v-0.05c0.45-0.02,0.97-0.03,1.39-0.03
			c1.31,0,2.43,0.45,2.43,1.44C72.69,22.26,71.81,22.76,70.45,22.76z M70.22,20.09c-0.01,0.34-0.02,1.19-0.02,2.27h0.18
			c0.82,0,1.16-0.46,1.16-1.18C71.55,20.46,71.18,20.09,70.22,20.09z"/>
		<path class="st0" d="M78.48,23.98c-0.12,0.24-0.29,0.64-0.39,0.93h-2.16c-0.63,0-0.97,0.01-1.2,0.02l-0.01-0.05
			c0.17-0.07,0.24-0.14,0.24-0.33c0.01-0.25,0.02-1,0.02-2.22c0-1.22-0.01-1.97-0.02-2.22c-0.01-0.19-0.07-0.26-0.24-0.33l0.01-0.05
			c0.23,0.02,0.57,0.02,0.8,0.02c0.2,0,0.56-0.01,0.78-0.02l0.01,0.05c-0.16,0.06-0.24,0.14-0.24,0.33
			c-0.01,0.25-0.02,1.11-0.02,2.22c0,1.22,0.01,1.84,0.02,2.23h0.26c0.85,0,1.55-0.19,2.11-0.63L78.48,23.98z"/>
		<path class="st0" d="M91.35,23.93c-0.13,0.24-0.3,0.71-0.38,0.98h-4.16l-0.02-0.05c0.48-0.79,2.44-3.95,2.89-4.75h-0.32
			c-0.85,0-1.8,0.1-2.42,0.69l-0.05-0.04c0.13-0.25,0.33-0.77,0.39-1h3.84l0.02,0.07c-0.47,0.75-2.51,4.02-2.89,4.73h0.36
			c0.9,0,2.07-0.18,2.69-0.68L91.35,23.93z"/>
		<path class="st0" d="M64.86,24.45c-0.56-1.1-1.73-3.62-2.24-4.77h-0.13c-0.55,1.3-1.57,3.49-2.24,4.78
			c-0.14,0.27-0.3,0.38-0.45,0.42l0.02,0.05c0.16-0.02,0.39-0.02,0.57-0.02c0.17,0,0.49,0.01,0.67,0.02l0.01-0.05
			c-0.23-0.08-0.31-0.16-0.21-0.44c0.07-0.2,0.2-0.5,0.35-0.87l0,0l0.17-0.41h0c0.02-0.05,0.04-0.1,0.06-0.15
			c0-0.01,0.01-0.02,0.01-0.03l0-0.01h0c0.26-0.63,0.54-1.31,0.76-1.81c0.22,0.48,0.54,1.17,0.82,1.81h0l0,0.01
			c0.03,0.06,0.05,0.11,0.08,0.17h0l0.27,0.6c0.15,0.34,0.27,0.61,0.33,0.75c0.08,0.19,0.03,0.28-0.19,0.37l0.01,0.05
			c0.19-0.02,0.76-0.02,0.96-0.02c0.2,0,0.64,0.01,0.85,0.02l0.01-0.05C65.16,24.84,64.98,24.67,64.86,24.45z"/>
		<path class="st0" d="M84.84,24.45c-0.56-1.1-1.73-3.62-2.24-4.77h-0.13c-0.55,1.3-1.57,3.49-2.24,4.78
			c-0.14,0.27-0.3,0.38-0.45,0.42l0.02,0.05c0.16-0.02,0.39-0.02,0.57-0.02c0.17,0,0.49,0.01,0.67,0.02l0.01-0.05
			c-0.23-0.08-0.31-0.16-0.21-0.44c0.07-0.2,0.2-0.5,0.35-0.87h0l0.17-0.41h0c0.04-0.09,0.08-0.19,0.12-0.29l0-0.01h0
			c0.24-0.6,0.51-1.23,0.71-1.69c0.22,0.48,0.54,1.17,0.82,1.81h0l0,0.01c0.02,0.06,0.05,0.11,0.07,0.17h0l0.22,0.49
			c0.17,0.39,0.31,0.7,0.38,0.86c0.08,0.19,0.03,0.28-0.19,0.37l0.01,0.05c0.19-0.02,0.76-0.02,0.96-0.02c0.2,0,0.64,0.01,0.85,0.02
			l0.01-0.05C85.14,24.84,84.96,24.67,84.84,24.45z"/>
		<path class="st0" d="M97.85,24.45c-0.56-1.1-1.73-3.62-2.24-4.77h-0.13c-0.55,1.3-1.57,3.49-2.24,4.78
			c-0.14,0.27-0.3,0.38-0.45,0.42l0.02,0.05c0.16-0.02,0.39-0.02,0.57-0.02c0.17,0,0.49,0.01,0.67,0.02l0.01-0.05
			c-0.23-0.08-0.31-0.16-0.21-0.44c0.07-0.2,0.2-0.5,0.35-0.87h0l0.17-0.41h0c0.05-0.12,0.1-0.25,0.15-0.37l0.01-0.02l0,0
			c0.23-0.57,0.48-1.15,0.67-1.59c0.21,0.46,0.5,1.1,0.78,1.71l0,0l0,0c0.04,0.09,0.08,0.18,0.12,0.27h0l0.25,0.57l0,0
			c0.16,0.35,0.28,0.63,0.35,0.78c0.08,0.19,0.03,0.28-0.19,0.37l0.01,0.05c0.19-0.02,0.76-0.02,0.96-0.02
			c0.2,0,0.64,0.01,0.85,0.02l0.01-0.05C98.15,24.84,97.97,24.67,97.85,24.45z"/>
	</g>
</g>
</svg>
