<?xml version="1.0" encoding="utf-8"?>
<!-- Generator: Adobe Illustrator 27.4.0, SVG Export Plug-In . SVG Version: 6.00 Build 0)  -->
<svg version="1.1" id="Layer_1" xmlns="http://www.w3.org/2000/svg" xmlns:xlink="http://www.w3.org/1999/xlink" x="0px" y="0px"
	 viewBox="0 0 137 32" style="enable-background:new 0 0 137 32;" xml:space="preserve">
<style type="text/css">
	.st0{fill:#800000;}
	.st1{fill:#222222;}
	.st2{fill:url(#SVGID_1_);}
	.st3{fill:#B98C6D;}
	.st4{fill:#130D56;}
	.st5{fill:#F84500;}
	.st6{fill:#FF5B00;}
	.st7{fill:#FF8000;}
	.st8{fill:#3944B3;}
	.st9{fill-rule:evenodd;clip-rule:evenodd;fill:url(#SVGID_00000183242274019110909280000008284872053879900829_);}
	.st10{fill:url(#SVGID_00000169532002673139231790000004884721078612523947_);}
	.st11{fill:url(#SVGID_00000183229803600505701740000002189248149262987450_);}
	.st12{fill:url(#SVGID_00000088839962139392635470000015717458264097121944_);}
	.st13{fill:url(#SVGID_00000165204651060050935660000000351948983162789516_);}
	.st14{fill:#00417F;}
	.st15{fill:#46B7C2;}
	.st16{fill:#0B9ACF;}
	.st17{fill:#0080BC;}
</style>
<g>
	<g>
		<g>
			<path class="st14" d="M37.96,12.19v10.29h-1.01c-0.8,0-1.45-0.65-1.45-1.45v0c-0.35,0.54-0.86,0.97-1.52,1.28
				c-0.66,0.32-1.39,0.47-2.2,0.47c-0.95,0-1.8-0.22-2.54-0.67c-0.74-0.45-1.31-1.08-1.72-1.89c-0.41-0.82-0.61-1.76-0.61-2.85
				c0-1.09,0.21-2.05,0.64-2.89c0.43-0.84,1.03-1.48,1.8-1.94c0.77-0.45,1.66-0.68,2.65-0.68c0.78,0,1.49,0.14,2.11,0.43
				c0.63,0.29,1.13,0.69,1.49,1.21v0c0.12-0.75,0.76-1.31,1.53-1.31H37.96z M34.53,19.57c0.54-0.59,0.82-1.35,0.82-2.29
				c0-0.94-0.26-1.69-0.79-2.26c-0.53-0.57-1.23-0.85-2.11-0.85s-1.58,0.29-2.11,0.86c-0.53,0.57-0.79,1.33-0.79,2.27
				c0,0.94,0.27,1.7,0.8,2.28c0.53,0.58,1.23,0.87,2.09,0.87C33.28,20.45,33.98,20.16,34.53,19.57z"/>
			<path class="st14" d="M46.38,12.19v2.21c-0.28-0.03-0.48-0.05-0.61-0.05c-0.92,0-1.64,0.26-2.14,0.77
				c-0.5,0.51-0.75,1.24-0.75,2.18v3.85c0,0.73-0.59,1.32-1.32,1.32H40.3V12.19h0.84c0.86,0,1.59,0.63,1.72,1.48v0
				c0.15-0.51,0.45-0.9,0.91-1.17c0.46-0.27,1-0.41,1.63-0.41C45.75,12.1,46.07,12.13,46.38,12.19z"/>
			<path class="st14" d="M56.38,12.55c0.76,0.45,1.35,1.09,1.79,1.92c0.43,0.82,0.65,1.77,0.65,2.85c0,1.07-0.22,2.03-0.65,2.86
				c-0.43,0.83-1.03,1.48-1.79,1.93c-0.76,0.45-1.63,0.68-2.63,0.68c-0.74,0-1.41-0.12-2.01-0.37c-0.6-0.25-1.08-0.6-1.43-1.06v7.11
				c0,0.65-0.43,1.22-1.06,1.4l-1.5,0.42V12.19h0.63c0.85,0,1.57,0.63,1.68,1.48v0c0.37-0.56,0.88-1,1.53-1.32
				c0.65-0.32,1.38-0.48,2.19-0.48C54.75,11.86,55.62,12.09,56.38,12.55z M55.38,19.59c0.53-0.58,0.79-1.33,0.79-2.25
				c0-0.94-0.26-1.7-0.79-2.27c-0.53-0.57-1.23-0.86-2.09-0.86c-0.86,0-1.57,0.29-2.1,0.86c-0.54,0.57-0.81,1.34-0.81,2.29
				c0,0.94,0.27,1.69,0.8,2.25c0.53,0.56,1.23,0.85,2.09,0.85C54.15,20.45,54.85,20.16,55.38,19.59z"/>
			<path class="st14" d="M71.07,12.21v10.25c0,0.01-0.01,0.02-0.02,0.02h-1.06c-0.77,0-1.39-0.62-1.39-1.39v0
				c0-0.02-0.03-0.03-0.04-0.01c-0.35,0.51-0.84,0.92-1.48,1.23c-0.66,0.32-1.39,0.47-2.2,0.47c-0.95,0-1.8-0.22-2.54-0.67
				c-0.74-0.45-1.31-1.08-1.72-1.89c-0.41-0.82-0.61-1.76-0.61-2.85c0-1.09,0.21-2.05,0.64-2.89c0.43-0.84,1.03-1.48,1.8-1.94
				c0.77-0.45,1.66-0.68,2.65-0.68c0.78,0,1.49,0.14,2.11,0.43c0.61,0.28,1.1,0.67,1.46,1.17c0.01,0.02,0.03,0.01,0.04-0.01v0
				c0.11-0.72,0.74-1.26,1.47-1.26h0.86C71.06,12.19,71.07,12.2,71.07,12.21z M67.63,19.57c0.54-0.59,0.82-1.35,0.82-2.29
				c0-0.94-0.26-1.69-0.79-2.26c-0.53-0.57-1.23-0.85-2.11-0.85c-0.88,0-1.58,0.29-2.11,0.86c-0.53,0.57-0.79,1.33-0.79,2.27
				c0,0.94,0.27,1.7,0.8,2.28c0.53,0.58,1.23,0.87,2.09,0.87C66.38,20.45,67.09,20.16,67.63,19.57z"/>
			<path class="st14" d="M81.88,13c0.69,0.76,1.04,1.79,1.04,3.12v6.36c0,0,0,0.01-0.01,0.01h-1.22c-0.75,0-1.36-0.61-1.36-1.36
				v-4.41c0-1.68-0.68-2.51-2.05-2.51c-0.74,0-1.31,0.21-1.71,0.64c-0.4,0.43-0.6,1.01-0.6,1.74v4.54c0,0.76-0.61,1.37-1.37,1.37
				h-1.18c0,0-0.01,0-0.01-0.01V12.2c0,0,0-0.01,0.01-0.01h0.9c0.71,0,1.32,0.52,1.43,1.22v0c0,0.01,0.01,0.01,0.01,0
				c0.32-0.47,0.78-0.84,1.37-1.12c0.59-0.29,1.24-0.43,1.93-0.43C80.24,11.86,81.19,12.24,81.88,13z"/>
			<path class="st14" d="M94.34,12.19v9.61c0,0.37-0.3,0.68-0.68,0.68h-0.93c-0.31,0-0.57-0.22-0.61-0.53l-0.11-0.77
				c-0.37,0.53-0.83,0.92-1.38,1.19s-1.17,0.41-1.87,0.41c-1.22,0-2.16-0.37-2.82-1.1c-0.66-0.73-0.99-1.72-0.99-2.95v-4.9
				c0-0.91,0.74-1.65,1.65-1.65h0.93v6.11c0,0.78,0.18,1.35,0.54,1.7s0.87,0.52,1.53,0.52c0.66,0,1.19-0.22,1.57-0.65
				c0.39-0.43,0.58-1.02,0.58-1.75v-4.45c0-0.82,0.66-1.48,1.48-1.48H94.34z"/>
			<path class="st14" d="M63.44,26.34v3.61h-0.48v-1.17c0-0.46,0.01-0.93,0.04-1.4l-1.06,2.47h-0.46l-1.04-2.44
				c0.03,0.42,0.05,0.88,0.05,1.38v1.17h-0.48v-3.62h0.46l1.25,2.96l1.26-2.96L63.44,26.34z"/>
			<path class="st14" d="M66.92,26.8v1.13h1.58v0.43h-1.58v1.15h1.75v0.45h-2.24v-3.62h2.24v0.46H66.92z"/>
			<path class="st14" d="M73.69,26.57c0.28,0.15,0.49,0.37,0.65,0.64c0.15,0.27,0.23,0.59,0.23,0.94c0,0.35-0.08,0.67-0.23,0.94
				c-0.15,0.27-0.37,0.48-0.64,0.63c-0.28,0.15-0.59,0.23-0.95,0.23h-1.21v-3.62h1.21C73.1,26.34,73.42,26.42,73.69,26.57z
				 M73.42,29.34c0.2-0.11,0.36-0.27,0.47-0.48c0.11-0.2,0.17-0.44,0.17-0.7c0-0.27-0.06-0.51-0.17-0.72
				c-0.11-0.21-0.27-0.37-0.47-0.48c-0.2-0.11-0.43-0.17-0.7-0.17h-0.68v2.71h0.68C72.98,29.51,73.22,29.45,73.42,29.34z"/>
			<path class="st14" d="M77.37,29.96v-3.62h0.49v3.62H77.37z"/>
			<path class="st14" d="M81.5,29.79c-0.28-0.16-0.49-0.38-0.65-0.66c-0.15-0.28-0.23-0.61-0.23-0.98c0-0.37,0.08-0.7,0.23-0.98
				c0.15-0.28,0.37-0.5,0.65-0.66c0.28-0.16,0.6-0.24,0.95-0.24c0.28,0,0.54,0.05,0.78,0.15c0.24,0.1,0.44,0.24,0.6,0.42
				s0.27,0.39,0.32,0.63h-0.54c-0.07-0.22-0.21-0.4-0.42-0.53c-0.21-0.14-0.46-0.21-0.75-0.21c-0.26,0-0.48,0.06-0.68,0.18
				c-0.2,0.12-0.35,0.29-0.46,0.5c-0.11,0.21-0.16,0.46-0.16,0.75c0,0.29,0.05,0.54,0.16,0.75c0.11,0.21,0.26,0.38,0.46,0.49
				c0.2,0.11,0.42,0.17,0.68,0.17c0.28,0,0.53-0.07,0.74-0.2c0.21-0.13,0.35-0.31,0.43-0.54h0.54c-0.05,0.24-0.15,0.45-0.31,0.63
				c-0.16,0.18-0.36,0.32-0.6,0.42c-0.24,0.1-0.5,0.15-0.79,0.15C82.1,30.03,81.78,29.95,81.5,29.79z"/>
			<path class="st14" d="M87.8,26.34h0.54l1.35,3.62h-0.52l-0.33-0.9h-1.55l-0.34,0.9h-0.5L87.8,26.34z M88.7,28.65l-0.33-0.9
				c-0.1-0.3-0.18-0.5-0.22-0.6l-0.09-0.24c0.01,0-0.09,0.28-0.3,0.85l-0.34,0.89H88.7z"/>
			<path class="st14" d="M94.32,29.51v0.45h-2v-3.62h0.49v3.17H94.32z"/>
		</g>
	</g>
	<g>
		<path class="st15" d="M110.1,5.94c-0.08,0.09-0.14,0.16-0.2,0.22c-1.49,1.49-2.98,2.99-4.48,4.48c-1.43,1.42-3.9,1.09-4.89-0.64
			c-0.01-0.02-0.02-0.05-0.03-0.16c0.05,0.02,0.09,0.05,0.14,0.06c0.58,0.13,1.08-0.02,1.5-0.43c1.02-1.02,2.04-2.04,3.06-3.06
			c0.92-0.93,2-1.25,3.28-0.9c0.43,0.12,0.87,0.23,1.3,0.34C109.88,5.87,109.97,5.9,110.1,5.94z"/>
	</g>
	<g>
		<path class="st16" d="M98.57,17.49c-0.11-0.38-0.2-0.71-0.29-1.04c-0.48-1.78-0.96-3.57-1.43-5.35c-0.5-1.9,0.87-3.8,2.81-3.93
			c0.09-0.01,0.17-0.03,0.25-0.05c0.01,0.03,0.01,0.06,0.02,0.08c-0.04,0.05-0.08,0.1-0.12,0.15c-0.34,0.43-0.46,0.9-0.32,1.44
			c0.38,1.42,0.76,2.84,1.14,4.26c0.33,1.23,0.05,2.31-0.85,3.22C99.4,16.66,99.01,17.05,98.57,17.49z"/>
	</g>
	<g>
		<path class="st17" d="M94.34,1.72C95.2,1.94,96,2.15,96.79,2.37c1.29,0.34,2.58,0.7,3.87,1.04c2.04,0.53,3.04,2.9,1.92,4.68
			c-0.03-0.06-0.06-0.11-0.08-0.16c-0.17-0.55-0.54-0.9-1.09-1.05c-1.07-0.29-2.14-0.57-3.21-0.86c-0.44-0.12-0.89-0.22-1.32-0.36
			c-0.99-0.33-1.68-0.99-2-1.98C94.68,3.05,94.53,2.4,94.34,1.72z"/>
	</g>
</g>
</svg>
