<?xml version="1.0" encoding="utf-8"?>
<!-- Generator: Adobe Illustrator 27.4.0, SVG Export Plug-In . SVG Version: 6.00 Build 0)  -->
<svg version="1.1" id="Layer_1" xmlns="http://www.w3.org/2000/svg" xmlns:xlink="http://www.w3.org/1999/xlink" x="0px" y="0px"
	 viewBox="0 0 137 32" style="enable-background:new 0 0 137 32;" xml:space="preserve">
<style type="text/css">
	.st0{fill:#800000;}
	.st1{fill:#222222;}
	.st2{fill:url(#SVGID_1_);}
	.st3{fill:#B98C6D;}
	.st4{fill:#130D56;}
	.st5{fill:#F84500;}
	.st6{fill:#FF5B00;}
	.st7{fill:#FF8000;}
	.st8{fill:#3944B3;}
	.st9{fill-rule:evenodd;clip-rule:evenodd;fill:url(#SVGID_00000146494762986585644300000014396326383594742684_);}
	.st10{fill:url(#SVGID_00000145742166785403808030000006147756917148137647_);}
	.st11{fill:url(#SVGID_00000005224414040871011670000001588952096676734363_);}
	.st12{fill:url(#SVGID_00000091731482108971058570000005199591956961027233_);}
	.st13{fill:url(#SVGID_00000109019127952093889090000011525760169302610567_);}
	.st14{fill:#00417F;}
	.st15{fill:#46B7C2;}
	.st16{fill:#0B9ACF;}
	.st17{fill:#0080BC;}
</style>
<g>
	<g>
		<path class="st8" d="M41,24.54c0.4,0.18,0.7,0.43,0.91,0.76c0.21,0.33,0.32,0.72,0.32,1.17c0,0.45-0.11,0.83-0.32,1.17
			c-0.21,0.33-0.51,0.59-0.91,0.76c-0.4,0.18-0.86,0.26-1.39,0.26h-1.39v1.78h-1.14v-6.16h2.53C40.14,24.27,40.61,24.36,41,24.54z
			 M40.69,27.37c0.26-0.21,0.39-0.51,0.39-0.91c0-0.39-0.13-0.69-0.39-0.91c-0.26-0.21-0.64-0.32-1.13-0.32h-1.34v2.45h1.34
			C40.06,27.69,40.43,27.58,40.69,27.37z"/>
		<path class="st8" d="M51.69,29.47v0.96h-4.62v-6.16h4.5v0.96h-3.35v1.6h2.97v0.94h-2.97v1.7H51.69z"/>
		<path class="st8" d="M60.69,30.43l-1.26-1.8c-0.05,0.01-0.13,0.01-0.24,0.01H57.8v1.79h-1.14v-6.16h2.53c0.53,0,1,0.09,1.39,0.26
			c0.4,0.18,0.7,0.43,0.91,0.76c0.21,0.33,0.32,0.72,0.32,1.17c0,0.46-0.11,0.86-0.34,1.2c-0.23,0.33-0.55,0.58-0.97,0.75l1.42,2.02
			H60.69z M60.27,25.56c-0.26-0.21-0.64-0.32-1.13-0.32H57.8v2.45h1.34c0.5,0,0.88-0.11,1.13-0.32c0.26-0.21,0.39-0.52,0.39-0.91
			C60.66,26.07,60.53,25.77,60.27,25.56z"/>
		<path class="st8" d="M67.93,25.23v1.87h2.97v0.97h-2.97v2.36h-1.14v-6.16h4.5v0.96H67.93z"/>
		<path class="st8" d="M80.7,29.47v0.96h-4.62v-6.16h4.5v0.96h-3.35v1.6h2.97v0.94h-2.97v1.7H80.7z"/>
		<path class="st8" d="M86.81,30.11c-0.5-0.27-0.89-0.65-1.18-1.13c-0.28-0.48-0.43-1.02-0.43-1.63s0.14-1.15,0.43-1.63
			c0.29-0.48,0.68-0.86,1.18-1.13c0.5-0.27,1.06-0.41,1.68-0.41c0.5,0,0.96,0.09,1.38,0.26c0.42,0.18,0.77,0.43,1.06,0.77
			l-0.74,0.69c-0.45-0.48-0.99-0.72-1.64-0.72c-0.42,0-0.8,0.09-1.13,0.28c-0.33,0.18-0.6,0.44-0.78,0.77
			c-0.19,0.33-0.28,0.7-0.28,1.12s0.09,0.79,0.28,1.12c0.19,0.33,0.45,0.59,0.78,0.77c0.33,0.18,0.71,0.28,1.13,0.28
			c0.65,0,1.2-0.24,1.64-0.73l0.74,0.7c-0.29,0.33-0.64,0.59-1.06,0.77c-0.42,0.18-0.88,0.26-1.39,0.26
			C87.87,30.52,87.31,30.38,86.81,30.11z"/>
		<path class="st8" d="M96.74,25.24H94.7v-0.97h5.23v0.97h-2.04v5.19h-1.14V25.24z"/>
	</g>
	<linearGradient id="SVGID_1_" gradientUnits="userSpaceOnUse" x1="90.0788" y1="6.4182" x2="99.5301" y2="6.4182">
		<stop  offset="0" style="stop-color:#EC7949"/>
		<stop  offset="1" style="stop-color:#E64B49"/>
		<stop  offset="1" style="stop-color:#E64B49"/>
	</linearGradient>
	<path style="fill-rule:evenodd;clip-rule:evenodd;fill:url(#SVGID_1_);" d="M96.53,11.35l3-9.87l-9.45,3.99l5.14,0.81L96.53,11.35z
		"/>
	
		<linearGradient id="SVGID_00000060737731426967014330000018427450979900934573_" gradientUnits="userSpaceOnUse" x1="44.0291" y1="6.2696" x2="44.0291" y2="20.3752">
		<stop  offset="0" style="stop-color:#EC7949"/>
		<stop  offset="1" style="stop-color:#E64B49"/>
		<stop  offset="1" style="stop-color:#E64B49"/>
	</linearGradient>
	<path style="fill:url(#SVGID_00000060737731426967014330000018427450979900934573_);" d="M50.3,14.35c0.46,0.59,0.69,1.3,0.69,2.14
		c0,1.24-0.51,2.19-1.53,2.87c-1.02,0.68-2.5,1.02-4.43,1.02h-7.94V6.27h7.54c1.88,0,3.3,0.34,4.26,1.01
		c0.96,0.67,1.44,1.57,1.44,2.68c0,0.66-0.16,1.25-0.49,1.77c-0.33,0.52-0.82,0.95-1.46,1.27C49.19,13.31,49.84,13.76,50.3,14.35z
		 M41.75,9.59v2.1h2.22c1.03,0,1.55-0.35,1.55-1.05c0-0.7-0.52-1.05-1.55-1.05H41.75z M46.19,15.94c0-0.74-0.52-1.11-1.57-1.11
		h-2.86v2.22h2.86C45.66,17.05,46.19,16.68,46.19,15.94z"/>
	
		<linearGradient id="SVGID_00000016782661446619614970000018431823338352476334_" gradientUnits="userSpaceOnUse" x1="58.6096" y1="5.9471" x2="58.6096" y2="20.6975">
		<stop  offset="0" style="stop-color:#EC7949"/>
		<stop  offset="1" style="stop-color:#E64B49"/>
		<stop  offset="1" style="stop-color:#E64B49"/>
	</linearGradient>
	<path style="fill:url(#SVGID_00000016782661446619614970000018431823338352476334_);" d="M65.59,17.6
		c-0.76-1.25-1.15-2.66-1.15-4.23c0-1.57,0.38-2.98,1.15-4.23c0.07-0.11,0.14-0.22,0.21-0.32c-0.62-0.79-1.4-1.43-2.34-1.92
		c-1.21-0.63-2.57-0.95-4.09-0.95c-1.52,0-2.88,0.32-4.09,0.95c-1.21,0.63-2.16,1.51-2.84,2.63c-0.69,1.12-1.03,2.39-1.03,3.8
		s0.34,2.68,1.03,3.8c0.69,1.12,1.63,2,2.84,2.63c1.21,0.63,2.57,0.95,4.09,0.95c1.52,0,2.88-0.32,4.09-0.95
		c0.92-0.48,1.69-1.11,2.31-1.87C65.71,17.78,65.65,17.69,65.59,17.6z M62.11,15.19c-0.28,0.53-0.66,0.94-1.14,1.23
		c-0.48,0.29-1.01,0.43-1.6,0.43c-0.59,0-1.13-0.14-1.6-0.43c-0.48-0.29-0.86-0.7-1.14-1.23c-0.28-0.53-0.42-1.15-0.42-1.86
		c0-0.71,0.14-1.33,0.42-1.86c0.28-0.53,0.66-0.94,1.14-1.23c0.48-0.29,1.01-0.43,1.6-0.43c0.59,0,1.12,0.14,1.6,0.43
		c0.48,0.29,0.86,0.7,1.14,1.23c0.28,0.53,0.42,1.15,0.42,1.86C62.54,14.03,62.4,14.66,62.11,15.19z"/>
	
		<linearGradient id="SVGID_00000025426160055277332640000017459542941932223396_" gradientUnits="userSpaceOnUse" x1="73.3391" y1="5.9908" x2="73.3391" y2="20.7412">
		<stop  offset="0" style="stop-color:#EC7949"/>
		<stop  offset="1" style="stop-color:#E64B49"/>
		<stop  offset="1" style="stop-color:#E64B49"/>
	</linearGradient>
	<path style="fill:url(#SVGID_00000025426160055277332640000017459542941932223396_);" d="M69.25,19.79
		c-1.21-0.63-2.16-1.51-2.84-2.63c-0.69-1.12-1.03-2.39-1.03-3.8s0.34-2.68,1.03-3.8c0.69-1.12,1.63-2,2.84-2.63
		c1.21-0.63,2.57-0.95,4.09-0.95c1.52,0,2.88,0.32,4.09,0.95c1.21,0.63,2.16,1.51,2.84,2.63c0.69,1.12,1.03,2.39,1.03,3.8
		s-0.34,2.68-1.03,3.8c-0.69,1.12-1.63,2-2.84,2.63c-1.21,0.63-2.57,0.95-4.09,0.95C71.82,20.74,70.46,20.43,69.25,19.79z
		 M74.94,16.46c0.48-0.29,0.86-0.7,1.14-1.23c0.28-0.53,0.42-1.15,0.42-1.86c0-0.71-0.14-1.33-0.42-1.86
		c-0.28-0.53-0.66-0.94-1.14-1.23c-0.48-0.29-1.01-0.43-1.6-0.43c-0.59,0-1.13,0.14-1.6,0.43c-0.48,0.29-0.86,0.7-1.14,1.23
		c-0.28,0.53-0.42,1.15-0.42,1.86c0,0.71,0.14,1.33,0.42,1.86s0.66,0.94,1.14,1.23c0.48,0.29,1.01,0.43,1.6,0.43
		C73.93,16.89,74.46,16.75,74.94,16.46z"/>
	
		<linearGradient id="SVGID_00000109709413846532553890000003685868712793550492_" gradientUnits="userSpaceOnUse" x1="82.1934" y1="13.3285" x2="99.923" y2="13.3285">
		<stop  offset="0" style="stop-color:#EC7949"/>
		<stop  offset="1" style="stop-color:#E64B49"/>
		<stop  offset="1" style="stop-color:#E64B49"/>
	</linearGradient>
	<path style="fill:url(#SVGID_00000109709413846532553890000003685868712793550492_);" d="M94.08,13.89
		c-0.48-0.54-0.91-1.02-1.25-1.4c-0.84-0.95-0.94-2.36-0.21-3.41c0.46-0.66,1.07-1.35,1.69-1.99l-5.89,2.85
		c-0.54,0.33-1,0.09-1-0.43V6.28h-5.23v14.09h5.23v-2.3c0-1.78,1.67-2.28,2.65-1.22l3.05,3.52h6.79
		C99.92,20.38,94.98,14.89,94.08,13.89z"/>
</g>
</svg>
