<svg width="24" height="24" viewBox="0 0 24 24" fill="currentColor" xmlns="http://www.w3.org/2000/svg">
<path d="M17 21.25H7C3.35 21.25 1.25 19.15 1.25 15.5V8.5C1.25 4.85 3.35 2.75 7 2.75H17C20.65 2.75 22.75 4.85 22.75 8.5V15.5C22.75 19.15 20.65 21.25 17 21.25ZM7 4.25C4.14 4.25 2.75 5.64 2.75 8.5V15.5C2.75 18.36 4.14 19.75 7 19.75H17C19.86 19.75 21.25 18.36 21.25 15.5V8.5C21.25 5.64 19.86 4.25 17 4.25H7Z"/>
<path d="M12 12.8698C11.1527 12.8809 10.3271 12.6021 9.65998 12.0798L6.52998 9.5798C6.37483 9.45647 6.27502 9.27656 6.25252 9.07965C6.23001 8.88274 6.28665 8.68495 6.40998 8.5298C6.5333 8.37464 6.71321 8.27484 6.91013 8.25233C7.10704 8.22983 7.30483 8.28647 7.45998 8.4098L10.59 10.9098C10.9981 11.2071 11.49 11.3673 11.995 11.3673C12.4999 11.3673 12.9919 11.2071 13.4 10.9098L16.53 8.4098C16.6063 8.34754 16.6943 8.30119 16.7888 8.27347C16.8833 8.24576 16.9824 8.23724 17.0803 8.24843C17.1781 8.25961 17.2728 8.29027 17.3586 8.33859C17.4444 8.38691 17.5197 8.45193 17.58 8.5298C17.6422 8.60611 17.6886 8.69412 17.7163 8.78863C17.744 8.88314 17.7525 8.98224 17.7413 9.0801C17.7302 9.17795 17.6995 9.27257 17.6512 9.35839C17.6029 9.44421 17.5378 9.51949 17.46 9.5798L14.33 12.0798C13.6673 12.6034 12.8444 12.8824 12 12.8698Z"/>
</svg>
