<svg width="200" height="24" viewBox="0 0 200 24" fill="currentColor" xmlns="http://www.w3.org/2000/svg">
<path d="M0 0.382172H2.1666L17.8657 19.7237V0.382172H20.0998V23.6156H18.2939L2.23409 3.86017V23.6156H0V0.382172Z"/>
<path d="M32.1826 12.0622V11.9989C32.1826 5.615 37.0766 0 44.3351 0C51.5935 0 56.4201 5.55394 56.4201 11.9356V11.9989C56.4201 18.3827 51.5261 24 44.2676 24C37.0091 24 32.1826 18.4461 32.1826 12.0644V12.0622ZM54.0231 12.0622V11.9989C54.0231 6.51051 49.918 2.01036 44.2676 2.01036C38.6172 2.01036 34.5796 6.44719 34.5796 11.9356V11.9989C34.5796 17.4872 38.6847 21.9874 44.3351 21.9874C49.9855 21.9874 54.0231 17.5506 54.0231 12.0622Z"/>
<path d="M65.0889 0.382172H67.6185L76.52 20.9991L85.454 0.382172H87.8836L77.5044 23.7761H75.4681L65.0889 0.382172Z"/>
<path d="M132.216 2.45586H124.039V0.379913H142.661V2.45586H134.516V23.6156H132.216V2.45586Z"/>
<path d="M182.232 20.2325L183.677 18.5727C186.207 20.8386 188.636 21.9557 192.053 21.9557C195.469 21.9557 197.701 20.1376 197.701 17.6795V17.6161C197.701 15.3819 196.453 14.0092 191.231 12.9894C185.583 11.8722 183.184 10.0224 183.184 6.35221V6.28889C183.184 2.71365 186.5 0.0655823 190.968 0.0655823C194.482 0.0655823 196.814 0.990486 199.279 2.90587L197.898 4.62904C195.664 2.81089 193.433 2.04429 190.903 2.04429C187.619 2.04429 185.483 3.89636 185.483 6.09668V6.15999C185.483 8.42589 186.73 9.79855 192.183 10.9157C197.603 12.0328 200 13.9482 200 17.4262V17.4895C200 21.3519 196.616 23.9367 191.92 23.9367C188.11 23.9367 185.122 22.7562 182.232 20.2348V20.2325Z"/>
<path d="M115.207 23.6156H117.702L106.701 0.221619H104.532L93.5293 23.6156H95.8937L98.2884 18.4393L99.7452 15.2847H99.7382L100.539 13.5683L105.584 2.74305L110.601 13.5683L111.397 15.2847H111.39L112.314 17.2973H112.317L112.919 18.6134L112.924 18.627L115.207 23.6156Z"/>
<path d="M162.169 0.221619H160L148.998 23.6156H151.362L154.287 17.2973H154.294L155.223 15.2847H155.206L161.052 2.74305L166.07 13.5683H166.079L168.402 18.627H168.392L170.675 23.6156H173.17L162.169 0.221619Z"/>
</svg>
