<svg width="200" height="24" viewBox="0 0 200 24" fill="none" xmlns="http://www.w3.org/2000/svg">
<path d="M0 0.382324H2.1666L17.8657 19.7239V0.382324H20.0998V23.6157H18.2939L2.23409 3.86032V23.6157H0V0.382324Z" fill="white"/>
<path d="M32.1826 12.0622V11.9989C32.1826 5.615 37.0766 0 44.3351 0C51.5935 0 56.4201 5.55394 56.4201 11.9356V11.9989C56.4201 18.3827 51.5261 24 44.2676 24C37.0091 24 32.1826 18.4461 32.1826 12.0644V12.0622ZM54.0231 12.0622V11.9989C54.0231 6.51051 49.918 2.01036 44.2676 2.01036C38.6172 2.01036 34.5796 6.44719 34.5796 11.9356V11.9989C34.5796 17.4872 38.6847 21.9874 44.3351 21.9874C49.9855 21.9874 54.0231 17.5506 54.0231 12.0622Z" fill="white"/>
<path d="M65.0889 0.382324H67.6185L76.52 20.9993L85.454 0.382324H87.8836L77.5044 23.7763H75.4681L65.0889 0.382324Z" fill="white"/>
<path d="M132.216 2.45583H124.039V0.379883H142.661V2.45583H134.516V23.6155H132.216V2.45583Z" fill="white"/>
<path d="M182.232 20.2324L183.677 18.5725C186.207 20.8384 188.636 21.9556 192.053 21.9556C195.469 21.9556 197.701 20.1374 197.701 17.6793V17.616C197.701 15.3817 196.453 14.0091 191.231 12.9892C185.583 11.8721 183.184 10.0223 183.184 6.35206V6.28874C183.184 2.7135 186.5 0.0654297 190.968 0.0654297C194.482 0.0654297 196.814 0.990333 199.279 2.90572L197.898 4.62889C195.664 2.81074 193.433 2.04414 190.903 2.04414C187.619 2.04414 185.483 3.8962 185.483 6.09652V6.15984C185.483 8.42574 186.73 9.7984 192.183 10.9155C197.603 12.0326 200 13.948 200 17.426V17.4893C200 21.3518 196.616 23.9365 191.92 23.9365C188.11 23.9365 185.122 22.7561 182.232 20.2347V20.2324Z" fill="white"/>
<path d="M115.207 23.6156H117.702L106.701 0.22168H104.532L93.5293 23.6156H95.8937L98.2884 18.4393L99.7452 15.2847H99.7382L100.539 13.5683L105.584 2.74311L110.601 13.5683L111.397 15.2847H111.39L112.314 17.2973H112.317L112.919 18.6135L112.924 18.627L115.207 23.6156Z" fill="white"/>
<path d="M162.169 0.22168H160L148.998 23.6156H151.362L154.287 17.2973H154.294L155.223 15.2847H155.206L161.052 2.74311L166.07 13.5683H166.079L168.402 18.627H168.392L170.675 23.6156H173.17L162.169 0.22168Z" fill="white"/>
</svg>
