<svg width="44" height="44" viewBox="0 0 44 44" fill="none" xmlns="http://www.w3.org/2000/svg">
<path d="M22 9.625C22.3647 9.625 22.7144 9.48013 22.9723 9.22227C23.2301 8.96441 23.375 8.61467 23.375 8.25V6.875C23.375 6.51033 23.2301 6.16059 22.9723 5.90273C22.7144 5.64487 22.3647 5.5 22 5.5C21.6353 5.5 21.2856 5.64487 21.0277 5.90273C20.7699 6.16059 20.625 6.51033 20.625 6.875V8.25C20.625 8.61467 20.7699 8.96441 21.0277 9.22227C21.2856 9.48013 21.6353 9.625 22 9.625ZM27.3625 18.2875C26.6887 15.6475 23.6912 12.1963 23.0312 11.4125C22.9023 11.2685 22.7444 11.1532 22.5679 11.0744C22.3914 10.9955 22.2002 10.9547 22.0069 10.9547C21.8135 10.9547 21.6224 10.9955 21.4459 11.0744C21.2694 11.1532 21.1115 11.2685 20.9825 11.4125C20.3225 12.155 17.325 15.5375 16.6512 18.2875C8.25 19.525 2.75 23.375 2.75 28.1875C2.75 33.9762 11.2063 38.5 22 38.5C32.7938 38.5 41.25 33.9762 41.25 28.1875C41.25 23.375 35.75 19.525 27.3625 18.2875ZM22 14.5063C23.4575 16.335 24.75 18.3975 24.75 19.25C24.75 19.9793 24.4603 20.6788 23.9445 21.1945C23.4288 21.7103 22.7293 22 22 22C21.2707 22 20.5712 21.7103 20.0555 21.1945C19.5397 20.6788 19.25 19.9793 19.25 19.25C19.25 18.37 20.5425 16.3212 22 14.5063ZM22 35.75C12.1275 35.75 5.5 31.845 5.5 28.1875C5.5 25.0387 10.285 22.0688 16.8162 21.0375C17.1876 22.1181 17.8863 23.0562 18.8153 23.7215C19.7442 24.3869 20.8574 24.7463 22 24.75C26.3725 24.75 29.7687 26.3725 30.25 27.8713C30.2919 28.0532 30.3704 28.2246 30.4807 28.3752C30.591 28.5258 30.7308 28.6524 30.8916 28.7472C31.0524 28.842 31.2308 28.9031 31.4159 28.9267C31.6011 28.9503 31.7891 28.936 31.9686 28.8846C32.148 28.8332 32.3152 28.7458 32.4597 28.6277C32.6043 28.5096 32.7233 28.3633 32.8095 28.1978C32.8957 28.0322 32.9473 27.8508 32.9612 27.6647C32.975 27.4785 32.9508 27.2915 32.89 27.115C32.285 24.9562 29.8237 23.2788 26.4688 22.4813C26.7923 22.036 27.0473 21.5447 27.225 21.0238C33.715 22 38.5 25.0387 38.5 28.1875C38.5 31.845 31.8725 35.75 22 35.75Z" fill="black"/>
<path d="M23.3751 30.25C19.0026 30.25 15.6064 28.6275 15.1251 27.1288C15.0832 26.9469 15.0047 26.7754 14.8944 26.6248C14.7841 26.4742 14.6443 26.3476 14.4835 26.2528C14.3227 26.158 14.1443 26.0969 13.9592 26.0733C13.774 26.0497 13.586 26.064 13.4065 26.1154C13.2271 26.1668 13.06 26.2542 12.9154 26.3723C12.7708 26.4904 12.6518 26.6367 12.5656 26.8022C12.4794 26.9678 12.4278 27.1492 12.4139 27.3353C12.4001 27.5215 12.4243 27.7085 12.4851 27.885C13.3926 30.8963 17.8751 33 23.3751 33C23.7398 33 24.0895 32.8551 24.3474 32.5973C24.6052 32.3394 24.7501 31.9897 24.7501 31.625C24.7501 31.2603 24.6052 30.9106 24.3474 30.6527C24.0895 30.3949 23.7398 30.25 23.3751 30.25Z" fill="black"/>
</svg>
