<svg xmlns="http://www.w3.org/2000/svg" width="25" height="20" viewBox="1358 378 25 20"><g data-name="icon-back"><path d="M1370.496 390.5c2.243 0 4.027-1.819 4.027-4.062 0-2.244-1.818-4.063-4.027-4.063-2.242 0-4.027 1.819-4.027 4.063-.035 2.242 1.785 4.062 4.027 4.062Zm0-6.25a2.19 2.19 0 0 1 2.186 2.188 2.19 2.19 0 0 1-2.186 2.187 2.191 2.191 0 0 1-2.187-2.187c0-1.208.98-2.188 2.187-2.188Zm7.504 0a3.125 3.125 0 1 0 0-6.25 3.125 3.125 0 0 0 0 6.25Zm-5.55 7.5h-3.9c-3.066 0-5.55 2.332-5.55 5.207 0 .578.496 1.043 1.11 1.043h12.78c.614 0 1.11-.465 1.11-1.043 0-2.875-2.484-5.207-5.55-5.207Zm-7.493 4.375c.409-1.436 1.85-2.5 3.56-2.5h3.932c1.71 0 3.151 1.064 3.56 2.5h-11.052Zm14.602-10.625h-2.416c-.5 0-.972.119-1.4.322.023.205.062.405.062.616 0 1.316-.5 2.508-1.296 3.437h7.801c.381 0 .69-.328.69-.73 0-2.012-1.54-3.645-3.441-3.645Zm-14.375.938c0-.213.038-.416.062-.622-.426-.234-.894-.316-1.39-.316h-2.415c-1.9 0-3.441 1.633-3.441 3.645 0 .402.308.73.688.73h7.793c-.797-.93-1.297-2.121-1.297-3.437ZM1363 384.25a3.125 3.125 0 1 0 0-6.25 3.125 3.125 0 0 0 0 6.25Z" fill="#222" fill-rule="evenodd" data-name="users"/></g></svg>