<svg xmlns="http://www.w3.org/2000/svg" width="13.75" height="20" fill="currentColor" viewBox="1003 488 13.75 20"><g data-name="icon-back"><path d="M1014.25 488h-8.75a2.5 2.5 0 0 0-2.5 2.5v15a2.5 2.5 0 0 0 2.5 2.5h8.75a2.5 2.5 0 0 0 2.5-2.5v-15c0-1.38-1.121-2.5-2.5-2.5Zm.625 17.5c0 .345-.28.625-.625.625h-8.75a.626.626 0 0 1-.625-.625v-15c0-.345.28-.625.625-.625h8.75c.344 0 .625.28.625.625v15Zm-5-2.188a.937.937 0 1 0 0 1.875.937.937 0 0 0 0-1.875Z" fill-rule="evenodd" data-name="mobile-button"/></g></svg>