<svg width="24" height="24" viewBox="0 0 24 24" fill="none" xmlns="http://www.w3.org/2000/svg">
<path d="M17.4501 22.75C16.2258 22.7269 15.0186 22.4582 13.9001 21.96C12.6311 21.4077 11.4271 20.7169 10.3101 19.9C9.12022 19.0243 7.99405 18.0652 6.94005 17.03C5.90176 15.9824 4.94247 14.8593 4.07005 13.67C3.26127 12.5619 2.57714 11.368 2.03005 10.11C1.53548 8.98363 1.27031 7.77 1.25005 6.54C1.2469 5.78414 1.38599 5.03443 1.66005 4.33C1.95662 3.59159 2.41444 2.92877 3.00005 2.39C3.33351 2.03634 3.73457 1.75321 4.17946 1.55738C4.62435 1.36156 5.10402 1.25704 5.59005 1.25C5.98036 1.25068 6.36588 1.33597 6.72005 1.5C7.10935 1.67516 7.44188 1.95573 7.68005 2.31L10.0001 5.58C10.1953 5.84196 10.3565 6.12756 10.4801 6.43C10.6069 6.70986 10.675 7.01278 10.6801 7.32C10.6763 7.70907 10.5655 8.08961 10.3601 8.42C10.1763 8.73238 9.95086 9.01833 9.69005 9.27L9.01005 9.98C9.01821 10.0041 9.02824 10.0275 9.04005 10.05C9.27957 10.4438 9.554 10.8153 9.86005 11.16C10.3501 11.72 10.8101 12.23 11.2701 12.7C11.8601 13.28 12.3501 13.74 12.8101 14.12C13.1652 14.4383 13.5542 14.7166 13.9701 14.95L13.9501 15L14.6801 14.28C14.9432 14.0055 15.2467 13.7728 15.5801 13.59C15.8722 13.416 16.2021 13.3151 16.5416 13.2959C16.8811 13.2768 17.2202 13.3399 17.5301 13.48C17.8259 13.6065 18.1074 13.7641 18.3701 13.95L21.6901 16.31C22.0444 16.541 22.3227 16.8715 22.4901 17.26C22.6319 17.6026 22.7066 17.9692 22.7101 18.34C22.7078 18.8277 22.5985 19.3091 22.3901 19.75C22.1873 20.1891 21.9174 20.594 21.5901 20.95C21.068 21.5484 20.4142 22.0173 19.6801 22.32C18.9716 22.6064 18.2142 22.7524 17.4501 22.75ZM5.59005 2.75C5.29664 2.7601 5.00825 2.82903 4.74199 2.95271C4.47573 3.0764 4.23703 3.2523 4.04005 3.47C3.61104 3.85991 3.27598 4.34199 3.06005 4.88C2.8499 5.40795 2.7446 5.97179 2.75005 6.54C2.76927 7.56739 2.99367 8.58057 3.41005 9.52C3.91184 10.6741 4.54251 11.7677 5.29005 12.78C6.11194 13.9068 7.01786 14.9698 8.00005 15.96C8.99432 16.9447 10.0606 17.8539 11.1901 18.68C12.2091 19.4363 13.3133 20.0706 14.4801 20.57C15.1892 20.9349 15.9643 21.154 16.7596 21.2141C17.5549 21.2742 18.3541 21.1742 19.1101 20.92C19.6371 20.7004 20.1061 20.3615 20.4801 19.93C20.7094 19.681 20.8984 19.3975 21.0401 19.09C21.1573 18.8502 21.2188 18.5869 21.2201 18.32C21.22 18.1473 21.1824 17.9768 21.1101 17.82C21.0461 17.6961 20.9492 17.5923 20.8301 17.52L17.5101 15.16C17.3387 15.0367 17.1542 14.9328 16.9601 14.85C16.864 14.7814 16.7478 14.747 16.6299 14.7524C16.512 14.7579 16.3993 14.8028 16.3101 14.88C16.0937 14.9977 15.8978 15.1497 15.7301 15.33L14.9701 16.08C14.779 16.2581 14.5428 16.3802 14.2871 16.4331C14.0314 16.486 13.766 16.4676 13.5201 16.38L13.2501 16.26C12.7435 15.9727 12.2676 15.6343 11.8301 15.25C11.3501 14.84 10.8301 14.36 10.2001 13.74C9.71005 13.24 9.22005 12.71 8.71005 12.12C8.32288 11.686 7.98111 11.2135 7.69005 10.71L7.57005 10.41C7.5208 10.2477 7.49389 10.0795 7.49005 9.91C7.48757 9.73739 7.51995 9.56606 7.58524 9.40626C7.65053 9.24646 7.74741 9.10148 7.87005 8.98L8.62005 8.2C8.79268 8.03271 8.94384 7.8446 9.07005 7.64C9.13821 7.53939 9.17636 7.42147 9.18005 7.3C9.17267 7.18942 9.14557 7.08105 9.10005 6.98C9.01282 6.79231 8.90552 6.61461 8.78005 6.45L6.46005 3.17C6.36644 3.03564 6.23873 2.92864 6.09005 2.86C5.93274 2.78929 5.76252 2.75184 5.59005 2.75ZM13.9501 15.01L13.7901 15.69L14.0601 14.99C14.0414 14.9844 14.0218 14.9833 14.0026 14.9868C13.9835 14.9903 13.9655 14.9982 13.9501 15.01Z" fill="#0D0D0D"/>
<path d="M18.5 9.75C18.3015 9.74869 18.1115 9.66925 17.9711 9.52888C17.8307 9.38851 17.7513 9.19851 17.75 9C17.6161 8.33236 17.2811 7.72169 16.79 7.25C16.348 6.69427 15.7049 6.335 15 6.25C14.8015 6.24869 14.6115 6.16925 14.4711 6.02888C14.3307 5.88851 14.2513 5.69851 14.25 5.5C14.2513 5.30149 14.3307 5.11149 14.4711 4.97112C14.6115 4.83075 14.8015 4.75131 15 4.75C15.5548 4.78637 16.0963 4.93548 16.5915 5.18823C17.0867 5.44098 17.5251 5.79206 17.88 6.22C18.6428 6.96153 19.1266 7.94335 19.25 9C19.2487 9.19851 19.1693 9.38851 19.0289 9.52888C18.8885 9.66925 18.6985 9.74869 18.5 9.75Z" fill="#0D0D0D"/>
<path d="M22 9.75C21.8015 9.74869 21.6115 9.66925 21.4711 9.52888C21.3307 9.38851 21.2513 9.19851 21.25 9C21.2495 7.34256 20.5908 5.75316 19.4188 4.58117C18.2468 3.40918 16.6574 2.75053 15 2.75C14.8015 2.74869 14.6115 2.66925 14.4711 2.52888C14.3307 2.38851 14.2513 2.19851 14.25 2C14.2513 1.80149 14.3307 1.61149 14.4711 1.47112C14.6115 1.33075 14.8015 1.25131 15 1.25C17.0544 1.25344 19.0236 2.07106 20.4763 3.52372C21.9289 4.97638 22.7466 6.94563 22.75 9C22.7487 9.19851 22.6693 9.38851 22.5289 9.52888C22.3885 9.66925 22.1985 9.74869 22 9.75Z" fill="#0D0D0D"/>
</svg>
