<svg width="32" height="32" viewBox="0 0 32 32" fill="none" xmlns="http://www.w3.org/2000/svg">
<g clip-path="url(#clip0_118_728)">
<path fill-rule="evenodd" clip-rule="evenodd" d="M28.814 3.41794C28.7212 3.2887 28.599 3.1834 28.4575 3.11076C28.3159 3.03813 28.1591 3.00024 28 3.00024C27.8409 3.00024 27.6841 3.03813 27.5425 3.11076C27.401 3.1834 27.2788 3.2887 27.186 3.41794C27.186 3.41794 25.661 5.55694 24.745 7.48094C24.291 8.43394 24 9.34994 24 9.99994C24 12.2079 25.792 13.9999 28 13.9999C30.208 13.9999 32 12.2079 32 9.99994C32 9.35194 31.709 8.43394 31.255 7.47994C30.339 5.55694 28.814 3.41794 28.814 3.41794ZM28 5.79294C28.46 6.50994 29.025 7.44994 29.449 8.33994C29.751 8.97494 30 9.56894 30 9.99994C30 10.5304 29.7893 11.0391 29.4142 11.4142C29.0391 11.7892 28.5304 11.9999 28 11.9999C27.4696 11.9999 26.9609 11.7892 26.5858 11.4142C26.2107 11.0391 26 10.5304 26 9.99994C26 9.56894 26.249 8.97494 26.551 8.33994C26.975 7.44994 27.54 6.50994 28 5.79294ZM4.814 8.41794C4.72122 8.2887 4.59901 8.1834 4.45746 8.11076C4.31591 8.03813 4.1591 8.00024 4 8.00024C3.8409 8.00024 3.68409 8.03813 3.54254 8.11076C3.40099 8.1834 3.27878 8.2887 3.186 8.41794C3.186 8.41794 1.661 10.5569 0.745 12.4809C0.291 13.4339 0 14.3499 0 14.9999C0 17.2079 1.792 18.9999 4 18.9999C6.208 18.9999 8 17.2079 8 14.9999C8 14.3519 7.709 13.4339 7.255 12.4799C6.339 10.5569 4.814 8.41794 4.814 8.41794ZM4 10.7929C4.46 11.5099 5.025 12.4499 5.449 13.3399C5.751 13.9749 6 14.5699 6 14.9999C6 15.5304 5.78929 16.0391 5.41421 16.4142C5.03914 16.7892 4.53043 16.9999 4 16.9999C3.46957 16.9999 2.96086 16.7892 2.58579 16.4142C2.21071 16.0391 2 15.5304 2 14.9999C2 14.5689 2.249 13.9749 2.551 13.3399C2.975 12.4499 3.54 11.5099 4 10.7929ZM1.716 30.6869C2.936 29.4329 4.054 30.2769 5.249 30.9149C7.182 31.9469 9.227 32.8449 11.654 30.7459C11.6755 30.7272 11.6962 30.7075 11.716 30.6869C12.936 29.4329 14.054 30.2769 15.249 30.9149C17.182 31.9469 19.227 32.8449 21.654 30.7459C21.6755 30.7272 21.6962 30.7075 21.716 30.6869C22.932 29.4369 24.016 30.1909 25.188 30.7959C27.065 31.7629 29.085 32.6599 31.596 30.7919C31.8049 30.6323 31.9424 30.3968 31.979 30.1365C32.0155 29.8762 31.9481 29.6119 31.7913 29.4009C31.6344 29.1899 31.4008 29.0492 31.141 29.0092C30.8812 28.9691 30.6161 29.033 30.403 29.1869C29.252 30.0429 28.263 29.9519 27.355 29.6049C26.579 29.3079 25.849 28.8619 25.132 28.5349C24.185 28.1019 23.249 27.8669 22.295 28.0829C21.653 28.2299 20.989 28.5769 20.313 29.2619C19.261 30.1549 18.324 30.0939 17.445 29.7549C16.672 29.4559 15.935 28.9909 15.207 28.6399C14.249 28.1789 13.296 27.9099 12.336 28.0999C11.676 28.2299 10.997 28.5689 10.313 29.2619C9.261 30.1549 8.324 30.0939 7.445 29.7549C6.672 29.4559 5.935 28.9909 5.207 28.6399C4.249 28.1789 3.297 27.9099 2.336 28.0999C1.666 28.2319 0.977 28.5789 0.283 29.2929C0.106936 29.4846 0.0125336 29.7374 0.0198469 29.9975C0.0271602 30.2577 0.135613 30.5047 0.322166 30.6862C0.50872 30.8677 0.758676 30.9693 1.01894 30.9694C1.2792 30.9696 1.52926 30.8682 1.716 30.6869ZM1.716 25.6869C2.936 24.4329 4.054 25.2769 5.249 25.9149C7.182 26.9469 9.227 27.8449 11.654 25.7459C11.6755 25.7272 11.6962 25.7075 11.716 25.6869C12.936 24.4329 14.054 25.2769 15.249 25.9149C17.182 26.9469 19.227 27.8449 21.654 25.7459C21.6755 25.7272 21.6962 25.7075 21.716 25.6869C22.932 24.4369 24.016 25.1909 25.188 25.7959C27.065 26.7629 29.085 27.6599 31.596 25.7919C31.8049 25.6323 31.9424 25.3968 31.979 25.1365C32.0155 24.8762 31.9481 24.6119 31.7913 24.4009C31.6344 24.1899 31.4008 24.0492 31.141 24.0092C30.8812 23.9691 30.6161 24.033 30.403 24.1869C29.252 25.0429 28.263 24.9519 27.355 24.6049C26.579 24.3079 25.849 23.8619 25.132 23.5349C24.185 23.1019 23.249 22.8669 22.295 23.0829C21.653 23.2299 20.989 23.5769 20.313 24.2619C19.261 25.1549 18.324 25.0939 17.445 24.7549C16.672 24.4559 15.935 23.9909 15.207 23.6399C14.249 23.1789 13.296 22.9099 12.336 23.0999C11.676 23.2299 10.997 23.5689 10.313 24.2619C9.261 25.1549 8.324 25.0939 7.445 24.7549C6.672 24.4559 5.935 23.9909 5.207 23.6399C4.249 23.1789 3.297 22.9099 2.336 23.0999C1.666 23.2319 0.977 23.5789 0.283 24.2929C0.106936 24.4846 0.0125336 24.7374 0.0198469 24.9975C0.0271602 25.2577 0.135613 25.5047 0.322166 25.6862C0.50872 25.8677 0.758676 25.9693 1.01894 25.9694C1.2792 25.9696 1.52926 25.8682 1.716 25.6869Z" fill="black"/>
<path fill-rule="evenodd" clip-rule="evenodd" d="M8.5 0C7.57174 0 6.6815 0.368749 6.02513 1.02513C5.36875 1.6815 5 2.57174 5 3.5V4C5 4.26522 5.10536 4.51957 5.29289 4.70711C5.48043 4.89464 5.73478 5 6 5C6 5 7 4.931 7 3.994V3.5C7 3.10218 7.15804 2.72064 7.43934 2.43934C7.72064 2.15804 8.10218 2 8.5 2C8.89782 2 9.27936 2.15804 9.56066 2.43934C9.84196 2.72064 10 3.10218 10 3.5V21C10 21.2652 10.1054 21.5196 10.2929 21.7071C10.4804 21.8946 10.7348 22 11 22C11.2652 22 11.5196 21.8946 11.7071 21.7071C11.8946 21.5196 12 21.2652 12 21V3.5C12 2.57174 11.6313 1.6815 10.9749 1.02513C10.3185 0.368749 9.42826 0 8.5 0ZM18.5 0C17.5717 0 16.6815 0.368749 16.0251 1.02513C15.3687 1.6815 15 2.57174 15 3.5V4L15.002 4.066L15.003 4.079L15.006 4.105C15.028 4.355 15.126 4.535 15.254 4.665C15.437 4.871 15.704 5 16 5C16 5 17 4.931 17 3.994V3.5C17 3.10218 17.158 2.72064 17.4393 2.43934C17.7206 2.15804 18.1022 2 18.5 2C18.8978 2 19.2794 2.15804 19.5607 2.43934C19.842 2.72064 20 3.10218 20 3.5V21C20 21.2652 20.1054 21.5196 20.2929 21.7071C20.4804 21.8946 20.7348 22 21 22C21.2652 22 21.5196 21.8946 21.7071 21.7071C21.8946 21.5196 22 21.2652 22 21V3.5C22 2.57174 21.6313 1.6815 20.9749 1.02513C20.3185 0.368749 19.4283 0 18.5 0Z" fill="black"/>
<path fill-rule="evenodd" clip-rule="evenodd" d="M11 9H21C21.2652 9 21.5196 8.89464 21.7071 8.70711C21.8946 8.51957 22 8.26522 22 8C22 7.73478 21.8946 7.48043 21.7071 7.29289C21.5196 7.10536 21.2652 7 21 7H11C10.7348 7 10.4804 7.10536 10.2929 7.29289C10.1054 7.48043 10 7.73478 10 8C10 8.26522 10.1054 8.51957 10.2929 8.70711C10.4804 8.89464 10.7348 9 11 9ZM11 14H21C21.2652 14 21.5196 13.8946 21.7071 13.7071C21.8946 13.5196 22 13.2652 22 13C22 12.7348 21.8946 12.4804 21.7071 12.2929C21.5196 12.1054 21.2652 12 21 12H11C10.7348 12 10.4804 12.1054 10.2929 12.2929C10.1054 12.4804 10 12.7348 10 13C10 13.2652 10.1054 13.5196 10.2929 13.7071C10.4804 13.8946 10.7348 14 11 14ZM11 19H21C21.2652 19 21.5196 18.8946 21.7071 18.7071C21.8946 18.5196 22 18.2652 22 18C22 17.7348 21.8946 17.4804 21.7071 17.2929C21.5196 17.1054 21.2652 17 21 17H11C10.7348 17 10.4804 17.1054 10.2929 17.2929C10.1054 17.4804 10 17.7348 10 18C10 18.2652 10.1054 18.5196 10.2929 18.7071C10.4804 18.8946 10.7348 19 11 19Z" fill="black"/>
</g>
<defs>
<clipPath id="clip0_118_728">
<rect width="32" height="32" fill="white"/>
</clipPath>
</defs>
</svg>
