<svg xmlns="http://www.w3.org/2000/svg" width="38" height="45.05" viewBox="1481 869.95 38 45.05"><g data-name="Group 328"><path d="M1494.565 874.9a5.5 5 0 1 1 0 .1z" stroke-linejoin="round" stroke-linecap="round" stroke-width="2" stroke="#222" fill="transparent" data-name="Ellipse 8"/><path d="M1500.244 883.869c-6.792 0-9.82 1.186-11.32 10.188-1.132 6.792-4.528 9.056-7.924 6.792" stroke-linejoin="round" stroke-linecap="round" stroke-width="2" stroke="#222" fill="transparent" data-name="Path 5484"/><path d="M1499.756 883.869c6.792 0 9.82 1.186 11.32 10.188 1.132 6.792 4.528 9.056 7.924 6.792" stroke-linejoin="round" stroke-linecap="round" stroke-width="2" stroke="#222" fill="transparent" data-name="Path 5485"/><path d="M1494.584 891.885v6.792c0 4.528-11.32 5.66-11.32 11.32 0 6.462 6.399 5.608 12.556 3.29" stroke-linejoin="round" stroke-linecap="round" stroke-width="2" stroke="#222" fill="transparent" data-name="Path 5486"/><path d="M1505.416 891.885v6.792c0 5.66 11.32 5.66 11.32 11.32 0 8.06-9.954 4.738-16.98 1.392" stroke-linejoin="round" stroke-linecap="round" stroke-width="2" stroke="#222" fill="transparent" data-name="Path 5487"/><path d="M1493.26 907.734s2.962 1.83 6.791 3.655" stroke-linejoin="round" stroke-linecap="round" stroke-width="2" stroke="#222" fill="transparent" data-name="Path 5488"/></g></svg>