<svg width="92" height="124" viewBox="0 0 92 124" fill="none" xmlns="http://www.w3.org/2000/svg">
<path d="M0.317078 104.535L7.77415 95.959C20.8271 107.666 33.3637 113.438 50.9918 113.438C68.6199 113.438 80.1358 104.044 80.1358 91.3439V91.0167C80.1358 79.4731 73.6994 72.3811 46.7529 67.1117C17.6089 61.3399 5.22841 51.7826 5.22841 32.8198V32.4926C5.22841 14.0206 22.3402 0.338867 45.396 0.338867C63.5284 0.338867 75.5607 5.11753 88.2775 15.0137L81.1566 23.9167C69.6287 14.523 58.1128 10.5622 45.0598 10.5622C28.1162 10.5622 17.0926 20.1312 17.0926 31.4995V31.8267C17.0926 43.5338 23.529 50.6259 51.6643 56.3977C79.6315 62.1695 92 72.0656 92 90.0353V90.3624C92 110.318 74.54 123.673 50.3074 123.673C30.6499 123.673 15.2313 117.574 0.317078 104.547V104.535Z" fill="#666B45"/>
</svg>
