<svg width="32" height="39" viewBox="0 0 32 39" fill="none" xmlns="http://www.w3.org/2000/svg">
<g clip-path="url(#clip0_127_1488)">
<path fill-rule="evenodd" clip-rule="evenodd" d="M28.814 4.12357C28.7212 3.96764 28.599 3.8406 28.4575 3.75297C28.3159 3.66534 28.1591 3.61963 28 3.61963C27.8409 3.61963 27.6841 3.66534 27.5425 3.75297C27.401 3.8406 27.2788 3.96764 27.186 4.12357C27.186 4.12357 25.661 6.70419 24.745 9.02543C24.291 10.1752 24 11.2803 24 12.0645C24 14.7284 25.792 16.8904 28 16.8904C30.208 16.8904 32 14.7284 32 12.0645C32 11.2827 31.709 10.1752 31.255 9.02422C30.339 6.70419 28.814 4.12357 28.814 4.12357ZM28 6.98892C28.46 7.85395 29.025 8.98803 29.449 10.0618C29.751 10.8279 30 11.5445 30 12.0645C30 12.7045 29.7893 13.3182 29.4142 13.7707C29.0391 14.2232 28.5304 14.4774 28 14.4774C27.4696 14.4774 26.9609 14.2232 26.5858 13.7707C26.2107 13.3182 26 12.7045 26 12.0645C26 11.5445 26.249 10.8279 26.551 10.0618C26.975 8.98803 27.54 7.85395 28 6.98892ZM4.814 10.1559C4.72122 9.99996 4.59901 9.87292 4.45746 9.78529C4.31591 9.69765 4.1591 9.65195 4 9.65195C3.8409 9.65195 3.68409 9.69765 3.54254 9.78529C3.40099 9.87292 3.27878 9.99996 3.186 10.1559C3.186 10.1559 1.661 12.7365 0.745 15.0577C0.291 16.2075 0 17.3126 0 18.0968C0 20.7607 1.792 22.9227 4 22.9227C6.208 22.9227 8 20.7607 8 18.0968C8 17.315 7.709 16.2075 7.255 15.0565C6.339 12.7365 4.814 10.1559 4.814 10.1559ZM4 13.0212C4.46 13.8863 5.025 15.0203 5.449 16.0941C5.751 16.8602 6 17.5781 6 18.0968C6 18.7368 5.78929 19.3505 5.41421 19.803C5.03914 20.2555 4.53043 20.5098 4 20.5098C3.46957 20.5098 2.96086 20.2555 2.58579 19.803C2.21071 19.3505 2 18.7368 2 18.0968C2 17.5768 2.249 16.8602 2.551 16.0941C2.975 15.0203 3.54 13.8863 4 13.0212ZM1.716 37.0226C2.936 35.5097 4.054 36.528 5.249 37.2977C7.182 38.5428 9.227 39.6262 11.654 37.0938C11.6755 37.0712 11.6962 37.0474 11.716 37.0226C12.936 35.5097 14.054 36.528 15.249 37.2977C17.182 38.5428 19.227 39.6262 21.654 37.0938C21.6755 37.0712 21.6962 37.0474 21.716 37.0226C22.932 35.5146 24.016 36.4242 25.188 37.1541C27.065 38.3208 29.085 39.403 31.596 37.1493C31.8049 36.9567 31.9424 36.6726 31.979 36.3585C32.0155 36.0445 31.9481 35.7256 31.7913 35.4711C31.6344 35.2166 31.4008 35.0468 31.141 34.9984C30.8812 34.9501 30.6161 35.0272 30.403 35.2129C29.252 36.2457 28.263 36.1359 27.355 35.7172C26.579 35.3589 25.849 34.8208 25.132 34.4263C24.185 33.9039 23.249 33.6204 22.295 33.881C21.653 34.0584 20.989 34.477 20.313 35.3034C19.261 36.3808 18.324 36.3072 17.445 35.8982C16.672 35.5375 15.935 34.9765 15.207 34.553C14.249 33.9968 13.296 33.6723 12.336 33.9015C11.676 34.0584 10.997 34.4673 10.313 35.3034C9.261 36.3808 8.324 36.3072 7.445 35.8982C6.672 35.5375 5.935 34.9765 5.207 34.553C4.249 33.9968 3.297 33.6723 2.336 33.9015C1.666 34.0608 0.977 34.4794 0.283 35.3408C0.106936 35.5721 0.0125336 35.877 0.0198469 36.1909C0.0271602 36.5048 0.135613 36.8028 0.322166 37.0218C0.50872 37.2407 0.758676 37.3633 1.01894 37.3634C1.2792 37.3636 1.52926 37.2413 1.716 37.0226ZM1.716 30.9903C2.936 29.4774 4.054 30.4957 5.249 31.2654C7.182 32.5105 9.227 33.5939 11.654 31.0615C11.6755 31.0388 11.6962 31.0151 11.716 30.9903C12.936 29.4774 14.054 30.4957 15.249 31.2654C17.182 32.5105 19.227 33.5939 21.654 31.0615C21.6755 31.0388 21.6962 31.0151 21.716 30.9903C22.932 29.4822 24.016 30.3919 25.188 31.1218C27.065 32.2885 29.085 33.3707 31.596 31.117C31.8049 30.9244 31.9424 30.6403 31.979 30.3262C32.0155 30.0121 31.9481 29.6933 31.7913 29.4388C31.6344 29.1842 31.4008 29.0144 31.141 28.9661C30.8812 28.9178 30.6161 28.9949 30.403 29.1806C29.252 30.2134 28.263 30.1036 27.355 29.6849C26.579 29.3266 25.849 28.7885 25.132 28.394C24.185 27.8716 23.249 27.5881 22.295 27.8487C21.653 28.026 20.989 28.4447 20.313 29.2711C19.261 30.3485 18.324 30.2749 17.445 29.8659C16.672 29.5052 15.935 28.9441 15.207 28.5207C14.249 27.9645 13.296 27.64 12.336 27.8692C11.676 28.026 10.997 28.435 10.313 29.2711C9.261 30.3485 8.324 30.2749 7.445 29.8659C6.672 29.5052 5.935 28.9441 5.207 28.5207C4.249 27.9645 3.297 27.64 2.336 27.8692C1.666 28.0284 0.977 28.4471 0.283 29.3085C0.106936 29.5397 0.0125336 29.8447 0.0198469 30.1586C0.0271602 30.4724 0.135613 30.7705 0.322166 30.9894C0.50872 31.2084 0.758676 31.331 1.01894 31.3311C1.2792 31.3313 1.52926 31.209 1.716 30.9903Z" fill="black"/>
<path fill-rule="evenodd" clip-rule="evenodd" d="M8.5 0C7.57174 0 6.6815 0.444882 6.02513 1.23678C5.36875 2.02867 5 3.10271 5 4.22262V4.82586C5 5.14583 5.10536 5.4527 5.29289 5.67895C5.48043 5.90521 5.73478 6.03232 6 6.03232C6 6.03232 7 5.94907 7 4.81862V4.22262C7 3.74266 7.15804 3.28236 7.43934 2.94298C7.72064 2.60359 8.10218 2.41293 8.5 2.41293C8.89782 2.41293 9.27936 2.60359 9.56066 2.94298C9.84196 3.28236 10 3.74266 10 4.22262V25.3357C10 25.6557 10.1054 25.9626 10.2929 26.1888C10.4804 26.4151 10.7348 26.5422 11 26.5422C11.2652 26.5422 11.5196 26.4151 11.7071 26.1888C11.8946 25.9626 12 25.6557 12 25.3357V4.22262C12 3.10271 11.6313 2.02867 10.9749 1.23678C10.3185 0.444882 9.42826 0 8.5 0ZM18.5 0C17.5717 0 16.6815 0.444882 16.0251 1.23678C15.3687 2.02867 15 3.10271 15 4.22262V4.82586L15.002 4.90548L15.003 4.92117L15.006 4.95253C15.028 5.25415 15.126 5.47131 15.254 5.62815C15.437 5.87669 15.704 6.03232 16 6.03232C16 6.03232 17 5.94907 17 4.81862V4.22262C17 3.74266 17.158 3.28236 17.4393 2.94298C17.7206 2.60359 18.1022 2.41293 18.5 2.41293C18.8978 2.41293 19.2794 2.60359 19.5607 2.94298C19.842 3.28236 20 3.74266 20 4.22262V25.3357C20 25.6557 20.1054 25.9626 20.2929 26.1888C20.4804 26.4151 20.7348 26.5422 21 26.5422C21.2652 26.5422 21.5196 26.4151 21.7071 26.1888C21.8946 25.9626 22 25.6557 22 25.3357V4.22262C22 3.10271 21.6313 2.02867 20.9749 1.23678C20.3185 0.444882 19.4283 0 18.5 0Z" fill="black"/>
<path fill-rule="evenodd" clip-rule="evenodd" d="M11 10.8582H21C21.2652 10.8582 21.5196 10.7311 21.7071 10.5049C21.8946 10.2786 22 9.97175 22 9.65178C22 9.3318 21.8946 9.02493 21.7071 8.79868C21.5196 8.57242 21.2652 8.44531 21 8.44531H11C10.7348 8.44531 10.4804 8.57242 10.2929 8.79868C10.1054 9.02493 10 9.3318 10 9.65178C10 9.97175 10.1054 10.2786 10.2929 10.5049C10.4804 10.7311 10.7348 10.8582 11 10.8582ZM11 16.8906H21C21.2652 16.8906 21.5196 16.7635 21.7071 16.5372C21.8946 16.3109 22 16.0041 22 15.6841C22 15.3641 21.8946 15.0573 21.7071 14.831C21.5196 14.6047 21.2652 14.4776 21 14.4776H11C10.7348 14.4776 10.4804 14.6047 10.2929 14.831C10.1054 15.0573 10 15.3641 10 15.6841C10 16.0041 10.1054 16.3109 10.2929 16.5372C10.4804 16.7635 10.7348 16.8906 11 16.8906ZM11 22.9229H21C21.2652 22.9229 21.5196 22.7958 21.7071 22.5695C21.8946 22.3433 22 22.0364 22 21.7164C22 21.3964 21.8946 21.0896 21.7071 20.8633C21.5196 20.6371 21.2652 20.51 21 20.51H11C10.7348 20.51 10.4804 20.6371 10.2929 20.8633C10.1054 21.0896 10 21.3964 10 21.7164C10 22.0364 10.1054 22.3433 10.2929 22.5695C10.4804 22.7958 10.7348 22.9229 11 22.9229Z" fill="black"/>
</g>
<defs>
<clipPath id="clip0_127_1488">
<rect width="32" height="38.6068" fill="white"/>
</clipPath>
</defs>
</svg>
