<svg xmlns="http://www.w3.org/2000/svg" width="41" height="45.05" viewBox="1360 692.95 41 45.05"><g data-name="Group 326"><path d="M1394.166 695.926c0 2.926-3.9 2.926-2.926 5.852" stroke-linejoin="round" stroke-linecap="round" stroke-width="2" stroke="#222" fill="transparent" data-name="Path 5476"/><path d="M1401 695.926c0 2.926-3.9 2.926-2.926 5.852" stroke-linejoin="round" stroke-linecap="round" stroke-width="2" stroke="#222" fill="transparent" data-name="Path 5477"/><path d="M1363.083 695.926c0 2.926-3.902 2.926-2.926 5.852" stroke-linejoin="round" stroke-linecap="round" stroke-width="2" stroke="#222" fill="transparent" data-name="Path 5478"/><path d="M1369.917 695.926c0 2.926-3.902 2.926-2.926 5.852" stroke-linejoin="round" stroke-linecap="round" stroke-width="2" stroke="#222" fill="transparent" data-name="Path 5479"/><path d="M1377.018 696.9a3.5 4 0 1 1 0 .1z" stroke-linejoin="round" stroke-linecap="round" stroke-width="2" stroke="#222" fill="transparent" data-name="Ellipse 7"/><path d="M1380.481 703.729c-5.851 0-8.101 1.044-9.753 8.36-.975 4.319-.975 6.966-4.876 7.245" stroke-linejoin="round" stroke-linecap="round" stroke-width="2" stroke="#222" fill="transparent" data-name="Path 5480"/><path d="M1380.518 703.729c5.852 0 8.101 1.044 9.753 8.36.975 4.319.975 6.966 4.877 7.245" stroke-linejoin="round" stroke-linecap="round" stroke-width="2" stroke="#222" fill="transparent" data-name="Path 5481"/><path d="M1375.616 710.556v5.852c0 3.901-6.827 4.876-6.827 9.753s2.926 7.803 2.926 9.753c0 2.926 3.901 2.926 3.901-.975 0-4.973-.975-4.877-.975-7.803 0-1.95 2.926-3.901 5.852-3.901" stroke-linejoin="round" stroke-linecap="round" stroke-width="2" stroke="#222" fill="transparent" data-name="Path 5482"/><path d="M1385.384 710.556v5.852c0 3.901 6.828 4.876 6.828 9.753s-2.926 7.803-2.926 9.753c0 2.926-3.902 2.926-3.902-.975 0-4.973.976-4.877.976-7.803 0-1.95-2.926-3.901-5.852-3.901" stroke-linejoin="round" stroke-linecap="round" stroke-width="2" stroke="#222" fill="transparent" data-name="Path 5483"/><path d="M1370 723h-9" stroke-linejoin="round" stroke-linecap="round" stroke-width="2" stroke="#222" fill="transparent" data-name="Line 3"/><path d="M1391.035 723h9" stroke-linejoin="round" stroke-linecap="round" stroke-width="2" stroke="#222" fill="transparent" data-name="Line 4"/></g></svg>